<svg width="567" height="93" viewBox="0 0 567 93" fill="none" xmlns="http://www.w3.org/2000/svg">
<path d="M60.048 13.528V62.992C60.048 73 57.564 80.38 52.596 85.132C47.628 89.956 40.212 92.368 30.348 92.368C24.948 92.368 19.8 91.612 14.904 90.1C10.008 88.66 6.048 86.572 3.024 83.836L7.992 75.844C10.656 78.148 13.932 79.948 17.82 81.244C21.78 82.612 25.848 83.296 30.024 83.296C36.72 83.296 41.652 81.712 44.82 78.544C48.06 75.376 49.68 70.552 49.68 64.072V59.536C47.232 62.488 44.208 64.72 40.608 66.232C37.08 67.672 33.228 68.392 29.052 68.392C23.58 68.392 18.612 67.24 14.148 64.936C9.756 62.56 6.3 59.284 3.78 55.108C1.26 50.86 0 46.036 0 40.636C0 35.236 1.26 30.448 3.78 26.272C6.3 22.024 9.756 18.748 14.148 16.444C18.612 14.14 23.58 12.988 29.052 12.988C33.372 12.988 37.368 13.78 41.04 15.364C44.784 16.948 47.844 19.288 50.22 22.384V13.528H60.048ZM30.24 59.32C33.984 59.32 37.332 58.528 40.284 56.944C43.308 55.36 45.648 53.164 47.304 50.356C49.032 47.476 49.896 44.236 49.896 40.636C49.896 35.092 48.06 30.628 44.388 27.244C40.716 23.788 36 22.06 30.24 22.06C24.408 22.06 19.656 23.788 15.984 27.244C12.312 30.628 10.476 35.092 10.476 40.636C10.476 44.236 11.304 47.476 12.96 50.356C14.688 53.164 17.028 55.36 19.98 56.944C23.004 58.528 26.424 59.32 30.24 59.32Z" fill="#5F5F5F"/>
<path d="M420.499 12.988C427.771 12.988 433.531 15.112 437.779 19.36C442.099 23.536 444.259 29.692 444.259 37.828V70.768H433.891V39.016C433.891 33.472 432.559 29.296 429.895 26.488C427.231 23.68 423.415 22.276 418.447 22.276C412.831 22.276 408.403 23.932 405.163 27.244C401.923 30.484 400.303 35.164 400.303 41.284V70.768H389.935V13.528H399.871V22.168C401.959 19.216 404.767 16.948 408.295 15.364C411.895 13.78 415.963 12.988 420.499 12.988Z" fill="#3A3A3A"/>
<path d="M517.655 42.472C517.655 43.264 517.583 44.308 517.439 45.604H470.999C471.647 50.644 473.843 54.712 477.587 57.808C481.403 60.832 486.119 62.344 491.735 62.344C498.575 62.344 504.083 60.04 508.259 55.432L513.983 62.128C511.391 65.152 508.151 67.456 504.263 69.04C500.447 70.624 496.163 71.416 491.411 71.416C485.363 71.416 479.999 70.192 475.319 67.744C470.639 65.224 467.003 61.732 464.411 57.268C461.891 52.804 460.631 47.764 460.631 42.148C460.631 36.604 461.855 31.6 464.303 27.136C466.823 22.672 470.243 19.216 474.563 16.768C478.955 14.248 483.887 12.988 489.359 12.988C494.831 12.988 499.691 14.248 503.939 16.768C508.259 19.216 511.607 22.672 513.983 27.136C516.431 31.6 517.655 36.712 517.655 42.472ZM489.359 21.736C484.391 21.736 480.215 23.248 476.831 26.272C473.519 29.296 471.575 33.256 470.999 38.152H507.719C507.143 33.328 505.163 29.404 501.779 26.38C498.467 23.284 494.327 21.736 489.359 21.736Z" fill="#3A3A3A"/>
<path d="M566.396 67.42C564.884 68.716 563.012 69.724 560.78 70.444C558.548 71.092 556.244 71.416 553.868 71.416C548.108 71.416 543.644 69.868 540.476 66.772C537.308 63.676 535.724 59.248 535.724 53.488V22.06H526.004V13.528H535.724V1H546.092V13.528H562.508V22.06H546.092V53.056C546.092 56.152 546.848 58.528 548.36 60.184C549.944 61.84 552.176 62.668 555.056 62.668C558.224 62.668 560.924 61.768 563.156 59.968L566.396 67.42Z" fill="#3A3A3A"/>
<path d="M185.357 67.5339L185.441 67.4618L185.397 67.3602L182.157 59.9082L182.078 59.7277L181.925 59.8512C179.723 61.6274 177.057 62.518 173.919 62.518C171.07 62.518 168.882 61.7 167.333 60.0815C165.855 58.4623 165.105 56.1281 165.105 53.056V22.21H181.371H181.521V22.06V13.528V13.378H181.371H165.105V1V0.85H164.955H154.587H154.437V1V13.378H144.867H144.717V13.528V22.06V22.21H144.867H154.437V53.488C154.437 59.2757 156.03 63.7473 159.235 66.8793C162.438 70.0102 166.944 71.566 172.731 71.566C175.121 71.566 177.439 71.2401 179.685 70.5881L179.685 70.5881L179.689 70.5868C181.937 69.8617 183.827 68.8449 185.357 67.5339ZM210.04 22.5683V13.528V13.378H209.89H199.954H199.804V13.528V70.768V70.918H199.954H210.322H210.472V70.768V42.256C210.472 36.0888 212.049 31.3792 215.183 28.1037C218.389 24.7551 222.774 23.074 228.358 23.074C229.364 23.074 230.149 23.11 230.716 23.1808L230.884 23.2019V23.032V12.988V12.838H230.734C225.678 12.838 221.37 13.7048 217.816 15.4453C214.441 17.0984 211.848 19.4731 210.04 22.5683ZM299.913 13.528V13.378H299.763H289.395H289.245V13.528V43.12C289.245 49.1421 287.668 53.7802 284.535 57.0563C281.4 60.3331 277.123 61.978 271.683 61.978C266.744 61.978 262.973 60.5832 260.344 57.8134C257.715 54.9708 256.389 50.8014 256.389 45.28V13.528V13.378H256.239H245.871H245.721V13.528V46.468C245.721 54.7022 247.925 60.9749 252.355 65.2598L252.356 65.2607C256.782 69.4696 262.835 71.566 270.495 71.566C274.547 71.566 278.277 70.7699 281.683 69.1759L281.684 69.1753C285.013 67.5799 287.715 65.3851 289.785 62.591V70.768V70.918H289.935H299.763H299.913V70.768V13.528ZM373.177 45.754H373.311L373.326 45.6206C373.47 44.3221 373.543 43.2719 373.543 42.472C373.543 36.6908 372.314 31.5539 369.853 27.0654C367.464 22.5771 364.097 19.1003 359.752 16.638C355.479 14.1035 350.592 12.838 345.097 12.838C339.601 12.838 334.643 14.1037 330.227 16.6375C325.882 19.0994 322.443 22.5754 319.91 27.0623L319.909 27.0639C317.448 31.5519 316.219 36.5811 316.219 42.148C316.219 47.7873 317.484 52.8531 320.018 57.3417L320.019 57.3433C322.625 61.832 326.282 65.3433 330.986 67.8761L330.987 67.8769C335.692 70.3377 341.08 71.566 347.149 71.566C351.918 71.566 356.221 70.7712 360.058 69.1786C363.967 67.5861 367.227 65.2685 369.835 62.2256L369.918 62.1281L369.835 62.0305L364.111 55.3345L364 55.205L363.886 55.3313C359.741 59.9046 354.275 62.194 347.473 62.194C341.886 62.194 337.205 60.6907 333.42 57.6917C329.749 54.6559 327.578 50.6796 326.908 45.754H373.177ZM357.414 26.4896L357.417 26.4918C360.732 29.4546 362.69 33.2884 363.287 38.002H326.906C327.503 33.2156 329.425 29.346 332.669 26.3833C336.023 23.3867 340.162 21.886 345.097 21.886C350.031 21.886 354.133 23.4221 357.414 26.4896Z" fill="#559E0C" stroke="#60863A" stroke-width="0.3"/>
</svg>
