<svg width="510" height="84" viewBox="0 0 510 84" fill="none" xmlns="http://www.w3.org/2000/svg">
<path d="M53.8905 12.452V57.728C53.8905 66.4827 51.7345 72.9507 47.4225 77.132C43.1758 81.3787 36.7405 83.502 28.1165 83.502C23.3472 83.502 18.8065 82.7833 14.4945 81.346C10.2478 79.974 6.78517 78.0467 4.1065 75.564L7.6345 70.272C10.1172 72.4933 13.1225 74.2247 16.6505 75.466C20.2438 76.7073 24.0005 77.328 27.9205 77.328C34.4538 77.328 39.2558 75.7927 42.3265 72.722C45.3972 69.7167 46.9325 65.0127 46.9325 58.61V52.044C44.7765 55.3107 41.9345 57.7933 38.4065 59.492C34.9438 61.1907 31.0892 62.04 26.8425 62.04C22.0078 62.04 17.5978 60.9947 13.6125 58.904C9.6925 56.748 6.58917 53.7753 4.3025 49.986C2.08117 46.1313 0.970502 41.7867 0.970502 36.952C0.970502 32.1173 2.08117 27.8053 4.3025 24.016C6.58917 20.2267 9.6925 17.2867 13.6125 15.196C17.5325 13.1053 21.9425 12.06 26.8425 12.06C31.2198 12.06 35.1725 12.942 38.7005 14.706C42.2285 16.47 45.0705 19.018 47.2265 22.35V12.452H53.8905ZM27.5285 55.866C31.2525 55.866 34.6172 55.082 37.6225 53.514C40.6278 51.8807 42.9472 49.6267 44.5805 46.752C46.2792 43.8773 47.1285 40.6107 47.1285 36.952C47.1285 33.2933 46.2792 30.0593 44.5805 27.25C42.9472 24.3753 40.6278 22.154 37.6225 20.586C34.6825 18.9527 31.3178 18.136 27.5285 18.136C23.8045 18.136 20.4398 18.92 17.4345 20.488C14.4945 22.056 12.1752 24.2773 10.4765 27.152C8.84317 30.0267 8.0265 33.2933 8.0265 36.952C8.0265 40.6107 8.84317 43.8773 10.4765 46.752C12.1752 49.6267 14.4945 51.8807 17.4345 53.514C20.4398 55.082 23.8045 55.866 27.5285 55.866ZM96.8681 64.49C91.9028 64.49 87.4274 63.3793 83.4421 61.158C79.4568 58.8713 76.3208 55.7353 74.0341 51.75C71.7474 47.7647 70.6041 43.2567 70.6041 38.226C70.6041 33.1953 71.7474 28.6873 74.0341 24.702C76.3208 20.7167 79.4568 17.6133 83.4421 15.392C87.4274 13.1707 91.9028 12.06 96.8681 12.06C101.833 12.06 106.309 13.1707 110.294 15.392C114.279 17.6133 117.383 20.7167 119.604 24.702C121.891 28.6873 123.034 33.1953 123.034 38.226C123.034 43.2567 121.891 47.7647 119.604 51.75C117.383 55.7353 114.279 58.8713 110.294 61.158C106.309 63.3793 101.833 64.49 96.8681 64.49ZM96.8681 58.316C100.527 58.316 103.793 57.4993 106.668 55.866C109.608 54.1673 111.895 51.7827 113.528 48.712C115.161 45.6413 115.978 42.146 115.978 38.226C115.978 34.306 115.161 30.8107 113.528 27.74C111.895 24.6693 109.608 22.3173 106.668 20.684C103.793 18.9853 100.527 18.136 96.8681 18.136C93.2094 18.136 89.9101 18.9853 86.9701 20.684C84.0954 22.3173 81.8088 24.6693 80.1101 27.74C78.4768 30.8107 77.6601 34.306 77.6601 38.226C77.6601 42.146 78.4768 45.6413 80.1101 48.712C81.8088 51.7827 84.0954 54.1673 86.9701 55.866C89.9101 57.4993 93.2094 58.316 96.8681 58.316Z" fill="#5F5F5F"/>
<path d="M378.281 12.06C384.749 12.06 389.877 13.9547 393.667 17.744C397.521 21.468 399.449 26.9233 399.449 34.11V64H392.491V34.796C392.491 29.4387 391.151 25.3553 388.473 22.546C385.794 19.7367 381.972 18.332 377.007 18.332C371.453 18.332 367.043 19.998 363.777 23.33C360.575 26.5967 358.975 31.1373 358.975 36.952V64H352.017V12.452H358.681V21.958C360.575 18.822 363.189 16.4047 366.521 14.706C369.918 12.942 373.838 12.06 378.281 12.06ZM465.864 40.382H422.744C423.136 45.7393 425.194 50.084 428.918 53.416C432.642 56.6827 437.346 58.316 443.03 58.316C446.232 58.316 449.172 57.7607 451.85 56.65C454.529 55.474 456.848 53.7753 458.808 51.554L462.728 56.062C460.442 58.806 457.567 60.8967 454.104 62.334C450.707 63.7713 446.95 64.49 442.834 64.49C437.542 64.49 432.838 63.3793 428.722 61.158C424.672 58.8713 421.503 55.7353 419.216 51.75C416.93 47.7647 415.786 43.2567 415.786 38.226C415.786 33.1953 416.864 28.6873 419.02 24.702C421.242 20.7167 424.247 17.6133 428.036 15.392C431.891 13.1707 436.203 12.06 440.972 12.06C445.742 12.06 450.021 13.1707 453.81 15.392C457.6 17.6133 460.572 20.7167 462.728 24.702C464.884 28.622 465.962 33.13 465.962 38.226L465.864 40.382ZM440.972 18.038C436.007 18.038 431.826 19.6387 428.428 22.84C425.096 25.976 423.202 30.092 422.744 35.188H459.298C458.841 30.092 456.914 25.976 453.516 22.84C450.184 19.6387 446.003 18.038 440.972 18.038ZM509.721 60.864C508.414 62.04 506.781 62.9547 504.821 63.608C502.926 64.196 500.934 64.49 498.843 64.49C494.008 64.49 490.284 63.1833 487.671 60.57C485.058 57.9567 483.751 54.2653 483.751 49.496V18.332H474.539V12.452H483.751V1.182H490.709V12.452H506.389V18.332H490.709V49.104C490.709 52.1747 491.46 54.5267 492.963 56.16C494.531 57.728 496.752 58.512 499.627 58.512C501.064 58.512 502.436 58.2833 503.743 57.826C505.115 57.3687 506.291 56.7153 507.271 55.866L509.721 60.864Z" fill="#3A3A3A"/>
<path d="M167.058 60.864C165.751 62.04 164.118 62.9547 162.158 63.608C160.263 64.196 158.27 64.49 156.18 64.49C151.345 64.49 147.621 63.1833 145.008 60.57C142.394 57.9567 141.088 54.2653 141.088 49.496V18.332H131.876V12.452H141.088V1.182H148.046V12.452H163.726V18.332H148.046V49.104C148.046 52.1747 148.797 54.5267 150.3 56.16C151.868 57.728 154.089 58.512 156.964 58.512C158.401 58.512 159.773 58.2833 161.08 57.826C162.452 57.3687 163.628 56.7153 164.608 55.866L167.058 60.864ZM188.838 22.546C190.472 19.0833 192.889 16.47 196.09 14.706C199.357 12.942 203.375 12.06 208.144 12.06V18.822L206.478 18.724C201.056 18.724 196.809 20.39 193.738 23.722C190.668 27.054 189.132 31.7253 189.132 37.736V64H182.174V12.452H188.838V22.546ZM270.41 12.452V64H263.746V54.592C261.917 57.728 259.402 60.178 256.2 61.942C252.999 63.6407 249.34 64.49 245.224 64.49C238.495 64.49 233.17 62.628 229.25 58.904C225.396 55.1147 223.468 49.594 223.468 42.342V12.452H230.426V41.656C230.426 47.0787 231.766 51.1947 234.444 54.004C237.123 56.8133 240.945 58.218 245.91 58.218C251.333 58.218 255.612 56.5847 258.748 53.318C261.884 49.986 263.452 45.38 263.452 39.5V12.452H270.41ZM337.232 40.382H294.112C294.504 45.7393 296.562 50.084 300.286 53.416C304.01 56.6827 308.714 58.316 314.398 58.316C317.599 58.316 320.539 57.7607 323.218 56.65C325.896 55.474 328.216 53.7753 330.176 51.554L334.096 56.062C331.809 58.806 328.934 60.8967 325.472 62.334C322.074 63.7713 318.318 64.49 314.202 64.49C308.91 64.49 304.206 63.3793 300.09 61.158C296.039 58.8713 292.87 55.7353 290.584 51.75C288.297 47.7647 287.154 43.2567 287.154 38.226C287.154 33.1953 288.232 28.6873 290.388 24.702C292.609 20.7167 295.614 17.6133 299.404 15.392C303.258 13.1707 307.57 12.06 312.34 12.06C317.109 12.06 321.388 13.1707 325.178 15.392C328.967 17.6133 331.94 20.7167 334.096 24.702C336.252 28.622 337.33 33.13 337.33 38.226L337.232 40.382ZM312.34 18.038C307.374 18.038 303.193 19.6387 299.796 22.84C296.464 25.976 294.569 30.092 294.112 35.188H330.666C330.208 30.092 328.281 25.976 324.884 22.84C321.552 19.6387 317.37 18.038 312.34 18.038Z" fill="#559E0C"/>
<path d="M167.058 60.864L167.258 61.087L167.427 60.9354L167.327 60.7319L167.058 60.864ZM162.158 63.608L162.247 63.8946L162.253 63.8926L162.158 63.608ZM145.008 60.57L144.796 60.7821L145.008 60.57ZM141.088 18.332H141.388V18.032H141.088V18.332ZM131.876 18.332H131.576V18.632H131.876V18.332ZM131.876 12.452V12.152H131.576V12.452H131.876ZM141.088 12.452V12.752H141.388V12.452H141.088ZM141.088 1.182V0.881997H140.788V1.182H141.088ZM148.046 1.182H148.346V0.881997H148.046V1.182ZM148.046 12.452H147.746V12.752H148.046V12.452ZM163.726 12.452H164.026V12.152H163.726V12.452ZM163.726 18.332V18.632H164.026V18.332H163.726ZM148.046 18.332V18.032H147.746V18.332H148.046ZM150.3 56.16L150.079 56.3633L150.088 56.3721L150.3 56.16ZM161.08 57.826L160.985 57.5414L160.981 57.5428L161.08 57.826ZM164.608 55.866L164.877 55.734L164.706 55.3842L164.411 55.6393L164.608 55.866ZM166.857 60.641C165.586 61.785 163.991 62.6808 162.063 63.3234L162.253 63.8926C164.245 63.2285 165.916 62.295 167.258 61.087L166.857 60.641ZM162.069 63.3215C160.204 63.9001 158.242 64.19 156.18 64.19V64.79C158.299 64.79 160.322 64.4919 162.247 63.8945L162.069 63.3215ZM156.18 64.19C151.399 64.19 147.761 62.8992 145.22 60.3579L144.796 60.7821C147.481 63.4675 151.291 64.79 156.18 64.79V64.19ZM145.22 60.3579C142.678 57.8158 141.388 54.2099 141.388 49.496H140.788C140.788 54.3207 142.111 58.0975 144.796 60.7821L145.22 60.3579ZM141.388 49.496V18.332H140.788V49.496H141.388ZM141.088 18.032H131.876V18.632H141.088V18.032ZM132.176 18.332V12.452H131.576V18.332H132.176ZM131.876 12.752H141.088V12.152H131.876V12.752ZM141.388 12.452V1.182H140.788V12.452H141.388ZM141.088 1.482H148.046V0.881997H141.088V1.482ZM147.746 1.182V12.452H148.346V1.182H147.746ZM148.046 12.752H163.726V12.152H148.046V12.752ZM163.426 12.452V18.332H164.026V12.452H163.426ZM163.726 18.032H148.046V18.632H163.726V18.032ZM147.746 18.332V49.104H148.346V18.332H147.746ZM147.746 49.104C147.746 52.2209 148.509 54.6562 150.079 56.3631L150.521 55.9569C149.086 54.3971 148.346 52.1285 148.346 49.104H147.746ZM150.088 56.3721C151.727 58.0117 154.034 58.812 156.964 58.812V58.212C154.144 58.212 152.008 57.4443 150.512 55.9479L150.088 56.3721ZM156.964 58.812C158.434 58.812 159.839 58.5781 161.179 58.1092L160.981 57.5428C159.707 57.9886 158.369 58.212 156.964 58.212V58.812ZM161.175 58.1106C162.58 57.6423 163.791 56.9706 164.804 56.0927L164.411 55.6393C163.464 56.46 162.324 57.0951 160.985 57.5414L161.175 58.1106ZM164.338 55.998L166.788 60.996L167.327 60.7319L164.877 55.734L164.338 55.998ZM188.838 22.546H188.538L189.11 22.674L188.838 22.546ZM196.09 14.706L195.948 14.442L195.945 14.4432L196.09 14.706ZM208.144 12.06H208.444V11.76H208.144V12.06ZM208.144 18.822L208.127 19.1215L208.444 19.1402V18.822H208.144ZM206.478 18.724L206.496 18.4245L206.487 18.424H206.478V18.724ZM193.738 23.722L193.959 23.9253L193.738 23.722ZM189.132 64V64.3H189.432V64H189.132ZM182.174 64H181.874V64.3H182.174V64ZM182.174 12.452V12.152H181.874V12.452H182.174ZM188.838 12.452H189.138V12.152H188.838V12.452ZM189.11 22.674C190.717 19.2656 193.092 16.7008 196.235 14.9688L195.945 14.4432C192.686 16.2392 190.226 18.9011 188.567 22.418L189.11 22.674ZM196.233 14.97C199.445 13.2354 203.411 12.36 208.144 12.36V11.76C203.339 11.76 199.269 12.6486 195.948 14.442L196.233 14.97ZM207.844 12.06V18.822H208.444V12.06H207.844ZM208.162 18.5225L206.496 18.4245L206.461 19.0235L208.127 19.1215L208.162 18.5225ZM206.478 18.424C200.99 18.424 196.656 20.113 193.518 23.5187L193.959 23.9253C196.962 20.667 201.122 19.024 206.478 19.024V18.424ZM193.518 23.5187C190.381 26.9222 188.832 31.6751 188.832 37.736H189.432C189.432 31.7755 190.954 27.1858 193.959 23.9253L193.518 23.5187ZM188.832 37.736V64H189.432V37.736H188.832ZM189.132 63.7H182.174V64.3H189.132V63.7ZM182.474 64V12.452H181.874V64H182.474ZM182.174 12.752H188.838V12.152H182.174V12.752ZM188.538 12.452V22.546H189.138V12.452H188.538ZM270.41 12.452H270.71V12.152H270.41V12.452ZM270.41 64V64.3H270.71V64H270.41ZM263.746 64H263.446V64.3H263.746V64ZM263.746 54.592H264.046V53.4823L263.487 54.4408L263.746 54.592ZM256.2 61.942L256.341 62.207L256.345 62.2048L256.2 61.942ZM229.25 58.904L229.04 59.118L229.044 59.1215L229.25 58.904ZM223.468 12.452V12.152H223.168V12.452H223.468ZM230.426 12.452H230.726V12.152H230.426V12.452ZM234.444 54.004L234.661 53.797L234.444 54.004ZM258.748 53.318L258.965 53.5258L258.967 53.5236L258.748 53.318ZM263.452 12.452V12.152H263.152V12.452H263.452ZM270.11 12.452V64H270.71V12.452H270.11ZM270.41 63.7H263.746V64.3H270.41V63.7ZM264.046 64V54.592H263.446V64H264.046ZM263.487 54.4408C261.685 57.5297 259.21 59.9412 256.055 61.6792L256.345 62.2048C259.594 60.4148 262.149 57.9263 264.005 54.7432L263.487 54.4408ZM256.06 61.677C252.907 63.3497 249.298 64.19 245.224 64.19V64.79C249.383 64.79 253.091 63.9316 256.341 62.207L256.06 61.677ZM245.224 64.19C238.552 64.19 233.308 62.3453 229.457 58.6865L229.044 59.1215C233.032 62.9107 238.438 64.79 245.224 64.79V64.19ZM229.461 58.6901C225.681 54.9743 223.768 49.542 223.768 42.342H223.168C223.168 49.646 225.11 55.255 229.04 59.1179L229.461 58.6901ZM223.768 42.342V12.452H223.168V42.342H223.768ZM223.468 12.752H230.426V12.152H223.468V12.752ZM230.126 12.452V41.656H230.726V12.452H230.126ZM230.126 41.656C230.126 47.1249 231.477 51.327 234.227 54.211L234.661 53.797C232.054 51.0624 230.726 47.0324 230.726 41.656H230.126ZM234.227 54.211C236.977 57.0952 240.887 58.518 245.91 58.518V57.918C241.003 57.918 237.269 56.5314 234.661 53.797L234.227 54.211ZM245.91 58.518C251.397 58.518 255.761 56.8628 258.965 53.5258L258.532 53.1102C255.463 56.3065 251.269 57.918 245.91 57.918V58.518ZM258.967 53.5236C262.169 50.1214 263.752 45.4338 263.752 39.5H263.152C263.152 45.3262 261.6 49.8506 258.53 53.1124L258.967 53.5236ZM263.752 39.5V12.452H263.152V39.5H263.752ZM263.452 12.752H270.41V12.152H263.452V12.752ZM337.232 40.382V40.682H337.518L337.531 40.3956L337.232 40.382ZM294.112 40.382V40.082H293.789L293.812 40.4039L294.112 40.382ZM300.286 53.416L300.086 53.6396L300.088 53.6415L300.286 53.416ZM323.218 56.65L323.333 56.9272L323.338 56.9247L323.218 56.65ZM330.176 51.554L330.402 51.3571L330.177 51.0987L329.951 51.3555L330.176 51.554ZM334.096 56.062L334.326 56.2541L334.49 56.0579L334.322 55.8651L334.096 56.062ZM325.472 62.334L325.357 62.0569L325.355 62.0577L325.472 62.334ZM300.09 61.158L299.942 61.4193L299.947 61.422L300.09 61.158ZM290.584 51.75L290.324 51.8993L290.584 51.75ZM290.388 24.702L290.126 24.5559L290.124 24.5593L290.388 24.702ZM299.404 15.392L299.254 15.1321L299.252 15.1332L299.404 15.392ZM325.178 15.392L325.329 15.1332L325.178 15.392ZM334.096 24.702L333.832 24.8447L333.833 24.8466L334.096 24.702ZM337.33 38.226L337.63 38.2396V38.226H337.33ZM299.796 22.84L300.001 23.0585L300.001 23.0583L299.796 22.84ZM294.112 35.188L293.813 35.1612L293.784 35.488H294.112V35.188ZM330.666 35.188V35.488H330.994L330.965 35.1612L330.666 35.188ZM324.884 22.84L324.676 23.0564L324.68 23.0604L324.884 22.84ZM337.232 40.082H294.112V40.682H337.232V40.082ZM293.812 40.4039C294.21 45.8324 296.299 50.2516 300.086 53.6396L300.486 53.1924C296.824 49.9164 294.798 45.6463 294.411 40.3601L293.812 40.4039ZM300.088 53.6415C303.875 56.9632 308.652 58.616 314.398 58.616V58.016C308.775 58.016 304.145 56.4021 300.484 53.1905L300.088 53.6415ZM314.398 58.616C317.634 58.616 320.614 58.0544 323.333 56.9271L323.103 56.3729C320.464 57.4669 317.564 58.016 314.398 58.016V58.616ZM323.338 56.9247C326.057 55.7309 328.412 54.0061 330.401 51.7525L329.951 51.3555C328.019 53.5446 325.735 55.2171 323.097 56.3753L323.338 56.9247ZM329.949 51.7509L333.869 56.2589L334.322 55.8651L330.402 51.3571L329.949 51.7509ZM333.865 55.8699C331.611 58.5748 328.777 60.6372 325.357 62.0569L325.587 62.6111C329.092 61.1561 332.007 59.0372 334.326 56.2541L333.865 55.8699ZM325.355 62.0577C321.999 63.4777 318.282 64.19 314.202 64.19V64.79C318.353 64.79 322.15 64.065 325.589 62.6103L325.355 62.0577ZM314.202 64.19C308.953 64.19 304.299 63.0887 300.232 60.894L299.947 61.422C304.112 63.6699 308.867 64.79 314.202 64.79V64.19ZM300.237 60.8968C296.233 58.6362 293.103 55.5387 290.844 51.6007L290.324 51.8993C292.637 55.932 295.845 59.1064 299.942 61.4193L300.237 60.8968ZM290.844 51.6007C288.586 47.665 287.454 43.2094 287.454 38.226H286.854C286.854 43.3039 288.008 47.8643 290.324 51.8993L290.844 51.6007ZM287.454 38.226C287.454 33.2396 288.522 28.7816 290.652 24.8447L290.124 24.5593C287.942 28.5931 286.854 33.1511 286.854 38.226H287.454ZM290.65 24.8481C292.846 20.9076 295.814 17.844 299.555 15.6508L299.252 15.1332C295.415 17.3827 292.372 20.5257 290.126 24.5559L290.65 24.8481ZM299.553 15.6519C303.359 13.4587 307.619 12.36 312.34 12.36V11.76C307.522 11.76 303.157 12.8826 299.254 15.1321L299.553 15.6519ZM312.34 12.36C317.06 12.36 321.287 13.4587 325.026 15.6508L325.329 15.1332C321.49 12.8826 317.158 11.76 312.34 11.76V12.36ZM325.026 15.6508C328.766 17.8435 331.701 20.906 333.832 24.8447L334.36 24.5593C332.178 20.5273 329.168 17.3831 325.329 15.1332L325.026 15.6508ZM333.833 24.8466C335.961 28.7164 337.03 33.1734 337.03 38.226H337.63C337.63 33.0866 336.542 28.5276 334.359 24.5574L333.833 24.8466ZM337.03 38.2124L336.932 40.3684L337.531 40.3956L337.629 38.2396L337.03 38.2124ZM312.34 17.738C307.303 17.738 303.047 19.3643 299.59 22.6217L300.001 23.0583C303.339 19.913 307.446 18.338 312.34 18.338V17.738ZM299.59 22.6215C296.198 25.8139 294.276 30.0013 293.813 35.1612L294.411 35.2148C294.862 30.1827 296.729 26.1381 300.001 23.0585L299.59 22.6215ZM294.112 35.488H330.666V34.888H294.112V35.488ZM330.965 35.1612C330.501 29.9996 328.545 25.8116 325.087 22.6196L324.68 23.0604C328.017 26.1404 329.915 30.1844 330.367 35.2148L330.965 35.1612ZM325.092 22.6237C321.698 19.3636 317.44 17.738 312.34 17.738V18.338C317.3 18.338 321.405 19.9137 324.676 23.0563L325.092 22.6237Z" fill="#60863A"/>
</svg>
