<svg width="509" height="84" viewBox="0 0 509 84" fill="none" xmlns="http://www.w3.org/2000/svg">
<path d="M376.864 11.878C383.332 11.878 388.461 13.7727 392.25 17.562C396.105 21.286 398.032 26.7413 398.032 33.928V63.818H391.074V34.614C391.074 29.2567 389.735 25.1733 387.056 22.364C384.378 19.5547 380.556 18.15 375.59 18.15C370.037 18.15 365.627 19.816 362.36 23.148C359.159 26.4147 357.558 30.9553 357.558 36.77V63.818H350.6V12.27H357.264V21.776C359.159 18.64 361.772 16.2227 365.104 14.524C368.502 12.76 372.422 11.878 376.864 11.878Z" fill="#3A3A3A"/>
<path d="M464.448 40.2H421.328C421.72 45.5573 423.778 49.902 427.502 53.234C431.226 56.5007 435.93 58.134 441.614 58.134C444.815 58.134 447.755 57.5787 450.434 56.468C453.113 55.292 455.432 53.5933 457.392 51.372L461.312 55.88C459.025 58.624 456.151 60.7147 452.688 62.152C449.291 63.5893 445.534 64.308 441.418 64.308C436.126 64.308 431.422 63.1973 427.306 60.976C423.255 58.6893 420.087 55.5533 417.8 51.568C415.513 47.5827 414.37 43.0747 414.37 38.044C414.37 33.0133 415.448 28.5053 417.604 24.52C419.825 20.5347 422.831 17.4313 426.62 15.21C430.475 12.9887 434.787 11.878 439.556 11.878C444.325 11.878 448.605 12.9887 452.394 15.21C456.183 17.4313 459.156 20.5347 461.312 24.52C463.468 28.44 464.546 32.948 464.546 38.044L464.448 40.2ZM439.556 17.856C434.591 17.856 430.409 19.4567 427.012 22.658C423.68 25.794 421.785 29.91 421.328 35.006H457.882C457.425 29.91 455.497 25.794 452.1 22.658C448.768 19.4567 444.587 17.856 439.556 17.856Z" fill="#3A3A3A"/>
<path d="M508.305 60.682C506.998 61.858 505.365 62.7727 503.405 63.426C501.51 64.014 499.517 64.308 497.427 64.308C492.592 64.308 488.868 63.0013 486.255 60.388C483.641 57.7747 482.335 54.0833 482.335 49.314V18.15H473.123V12.27H482.335V1H489.293V12.27H504.973V18.15H489.293V48.922C489.293 51.9927 490.044 54.3447 491.547 55.978C493.115 57.546 495.336 58.33 498.211 58.33C499.648 58.33 501.02 58.1013 502.327 57.644C503.699 57.1867 504.875 56.5333 505.855 55.684L508.305 60.682Z" fill="#3A3A3A"/>
<path d="M165.742 60.7935L165.826 60.7177L165.776 60.616L163.326 55.618L163.24 55.4431L163.093 55.5706C162.13 56.4057 160.972 57.0499 159.616 57.5017L159.614 57.5024C158.324 57.954 156.969 58.18 155.548 58.18C152.702 58.18 150.524 57.4049 148.992 55.8741C147.524 54.2777 146.78 51.9681 146.78 48.922V18.3H162.31H162.46V18.15V12.27V12.12H162.31H146.78V1V0.85H146.63H139.672H139.522V1V12.12H130.46H130.31V12.27V18.15V18.3H130.46H139.522V49.314C139.522 54.111 140.836 57.8451 143.485 60.4941C146.135 63.1434 149.902 64.458 154.764 64.458C156.868 64.458 158.876 64.162 160.786 63.5693L160.786 63.5693L160.789 63.5683C162.765 62.9096 164.417 61.9855 165.742 60.7935ZM187.572 21.7185V12.27V12.12H187.422H180.758H180.608V12.27V63.818V63.968H180.758H187.716H187.866V63.818V37.554C187.866 31.5684 189.395 26.9379 192.432 23.6417C195.468 20.3474 199.67 18.6929 205.058 18.692L206.719 18.7897L206.878 18.7991V18.64V11.878V11.728H206.728C201.941 11.728 197.897 12.6133 194.603 14.392L194.602 14.3926C191.553 16.0724 189.21 18.5159 187.572 21.7185ZM269.144 12.27V12.12H268.994H262.036H261.886V12.27V39.318C261.886 45.1709 260.326 49.7359 257.223 53.0328C254.121 56.2638 249.884 57.886 244.494 57.886C239.558 57.886 235.78 56.4904 233.137 53.7185C230.494 50.9465 229.16 46.8736 229.16 41.474V12.27V12.12H229.01H222.052H221.902V12.27V42.16C221.902 49.438 223.837 55.0028 227.729 58.829L227.731 58.8308C231.685 62.5873 237.05 64.458 243.808 64.458C247.945 64.458 251.629 63.6041 254.854 61.8925L254.856 61.8914C257.921 60.2026 260.363 57.8886 262.18 54.951V63.818V63.968H262.33H268.994H269.144V63.818V12.27ZM335.815 40.35H335.959L335.965 40.2068L336.063 38.0508L336.063 38.0508V38.044C336.063 32.9263 334.981 28.3928 332.811 24.4477C330.642 20.4395 327.651 17.3161 323.837 15.0806C320.023 12.8446 315.717 11.728 310.923 11.728C306.13 11.728 301.792 12.8446 297.913 15.08L297.912 15.0806C294.098 17.316 291.074 20.4392 288.84 24.447L288.84 24.4486C286.67 28.4582 285.587 32.9912 285.587 38.044C285.587 43.0983 286.736 47.6325 289.037 51.6427C291.338 55.6517 294.526 58.8069 298.6 61.1066L298.602 61.108C302.743 63.3426 307.472 64.458 312.785 64.458C316.919 64.458 320.695 63.7363 324.113 62.2905C327.597 60.8444 330.492 58.7396 332.795 55.976L332.876 55.8779L332.793 55.7816L328.873 51.2736L328.76 51.1444L328.647 51.2728C326.702 53.4776 324.4 55.163 321.742 56.3301C319.084 57.432 316.164 57.984 312.981 57.984C307.328 57.984 302.661 56.3605 298.969 53.1216C295.314 49.851 293.276 45.5974 292.857 40.35H335.815ZM323.364 22.7662L323.366 22.7682C326.696 25.8427 328.604 29.8684 329.085 34.856H292.86C293.34 29.8675 295.216 25.8415 298.482 22.7672L298.379 22.658L298.482 22.7672C301.85 19.5938 305.994 18.006 310.923 18.006C315.919 18.006 320.062 19.5942 323.364 22.7662Z" fill="#559E0C" stroke="#60863A" stroke-width="0.3"/>
<path d="M52.92 12.27V57.546C52.92 66.3007 50.764 72.7687 46.452 76.95C42.2053 81.1967 35.77 83.32 27.146 83.32C22.3767 83.32 17.836 82.6013 13.524 81.164C9.27733 79.792 5.81467 77.8647 3.136 75.382L6.664 70.09C9.14667 72.3113 12.152 74.0427 15.68 75.284C19.2733 76.5253 23.03 77.146 26.95 77.146C33.4833 77.146 38.2853 75.6107 41.356 72.54C44.4267 69.5347 45.962 64.8307 45.962 58.428V51.862C43.806 55.1287 40.964 57.6113 37.436 59.31C33.9733 61.0087 30.1187 61.858 25.872 61.858C21.0373 61.858 16.6273 60.8127 12.642 58.722C8.722 56.566 5.61867 53.5933 3.332 49.804C1.11067 45.9493 0 41.6047 0 36.77C0 31.9353 1.11067 27.6233 3.332 23.834C5.61867 20.0447 8.722 17.1047 12.642 15.014C16.562 12.9233 20.972 11.878 25.872 11.878C30.2493 11.878 34.202 12.76 37.73 14.524C41.258 16.288 44.1 18.836 46.256 22.168V12.27H52.92ZM26.558 55.684C30.282 55.684 33.6467 54.9 36.652 53.332C39.6573 51.6987 41.9767 49.4447 43.61 46.57C45.3087 43.6953 46.158 40.4287 46.158 36.77C46.158 33.1113 45.3087 29.8773 43.61 27.068C41.9767 24.1933 39.6573 21.972 36.652 20.404C33.712 18.7707 30.3473 17.954 26.558 17.954C22.834 17.954 19.4693 18.738 16.464 20.306C13.524 21.874 11.2047 24.0953 9.506 26.97C7.87267 29.8447 7.056 33.1113 7.056 36.77C7.056 40.4287 7.87267 43.6953 9.506 46.57C11.2047 49.4447 13.524 51.6987 16.464 53.332C19.4693 54.9 22.834 55.684 26.558 55.684Z" fill="#5F5F5F"/>
</svg>
