<svg width="510" height="84" viewBox="0 0 510 84" fill="none" xmlns="http://www.w3.org/2000/svg">
<path d="M95.2306 24.2414L104.877 33.8874L107.331 36.3418L107.945 36.9554L108.079 37.0895L98.332 46.9307L95.8777 49.4088L95.2641 50.0283L95.2268 50.066C95.1871 47.5831 95.157 45.7115 95.1367 44.4509L95.113 42.9878L95.1071 42.6221L95.1056 42.5307L95.1052 42.5078L95.1052 42.5021L95.1051 42.5007L95.1051 42.5003L95.1051 42.5002L95.1037 42.4148L95.0192 42.4028C88.8871 41.531 82.7397 43.6881 76.5817 48.8493L76.2252 45.7311L76.1308 44.9053L76.1072 44.6988L76.1032 44.6637C80.8942 36.6899 87.2385 32.3588 95.1395 31.6504L95.2306 31.6422V31.5508V31.5213V31.4919V31.4626V31.4333V31.4041V31.3749V31.3458V31.3167V31.2877V31.2587V31.2299V31.201V31.1723V31.1435V31.1149V31.0863V31.0577V31.0293V31.0008V30.9725V30.9441V30.9159V30.8877V30.8596V30.8315V30.8034V30.7755V30.7476V30.7197V30.6919V30.6642V30.6365V30.6089V30.5813V30.5538V30.5264V30.499V30.4716V30.4444V30.4171V30.39V30.3629V30.3358V30.3089V30.2819V30.255V30.2282V30.2015V30.1748V30.1481V30.1215V30.095V30.0686V30.0421V30.0158V29.9895V29.9632V29.9371V29.9109V29.8849V29.8589V29.8329V29.807V29.7812V29.7554V29.7297V29.704V29.6784V29.6529V29.6274V29.6019V29.5766V29.5513V29.526V29.5008V29.4756V29.4506V29.4255V29.4006V29.3756V29.3508V29.326V29.3012V29.2766V29.2519V29.2274V29.2029V29.1784V29.154V29.1297V29.1054V29.0812V29.057V29.0329V29.0088V28.9848V28.9609V28.937V28.9132V28.8894V28.8657V28.8421V28.8185V28.795V28.7715V28.7481V28.7247V28.7014V28.6782V28.655V28.6319V28.6088V28.5858V28.5628V28.5399V28.5171V28.4943V28.4716V28.4489V28.4263V28.4037V28.3812V28.3588V28.3364V28.3141V28.2918V28.2696V28.2475V28.2254V28.2034V28.1814V28.1595V28.1376V28.1158V28.094V28.0724V28.0507V28.0291V28.0076V27.9862V27.9648V27.9434V27.9221V27.9009V27.8797V27.8586V27.8376V27.8166V27.7956V27.7748V27.7539V27.7332V27.7125V27.6918V27.6712V27.6507V27.6302V27.6098V27.5894V27.5691V27.5488V27.5287V27.5085V27.4884V27.4684V27.4485V27.4286V27.4087V27.3889V27.3692V27.3495V27.3299V27.3103V27.2908V27.2714V27.252V27.2327V27.2134V27.1942V27.1751V27.156V27.1369V27.1179V27.099V27.0801V27.0613V27.0426V27.0239V27.0053V26.9867V26.9682V26.9497V26.9313V26.9129V26.8946V26.8764V26.8582V26.8401V26.8221V26.8041V26.7861V26.7682V26.7504V26.7326V26.7149V26.6973V26.6797V26.6621V26.6446V26.6272V26.6098V26.5925V26.5753V26.5581V26.5409V26.5238V26.5068V26.4899V26.473V26.4561V26.4393V26.4226V26.4059V26.3893V26.3727V26.3562V26.3398V26.3234V26.307V26.2908V26.2745V26.2584V26.2423V26.2262V26.2103V26.1943V26.1785V26.1626V26.1469V26.1312V26.1155V26.1V26.0844V26.069V26.0536V26.0382V26.0229V26.0077V25.9925V25.9774V25.9623V25.9473V25.9323V25.9174V25.9026V25.8878V25.8731V25.8585V25.8439V25.8293V25.8148V25.8004V25.786V25.7717V25.7574V25.7432V25.7291V25.715V25.701V25.687V25.6731V25.6592V25.6454V25.6317V25.618V25.6044V25.5908V25.5773V25.5639V25.5505V25.5371V25.5239V25.5106V25.4975V25.4844V25.4713V25.4583V25.4454V25.4325V25.4197V25.4069V25.3942V25.3816V25.369V25.3565V25.344V25.3316V25.3192V25.3069V25.2947V25.2825V25.2704V25.2583V25.2463V25.2343V25.2224V25.2106V25.1988V25.1871V25.1754V25.1638V25.1523V25.1408V25.1293V25.118V25.1066V25.0954V25.0842V25.073V25.0619V25.0509V25.0399V25.029V25.0181V25.0073V24.9966V24.9859V24.9753V24.9647V24.9542V24.9437V24.9333V24.923V24.9127V24.9025V24.8923V24.8822V24.8722V24.8622V24.8522V24.8423V24.8325V24.8228V24.813V24.8034V24.7938V24.7843V24.7748V24.7654V24.756V24.7467V24.7375V24.7283V24.7191V24.7101V24.701V24.6921V24.6832V24.6743V24.6656V24.6568V24.6482V24.6395V24.631V24.6225V24.6141V24.6057V24.5973V24.5891V24.5809V24.5727V24.5646V24.5566V24.5486V24.5407V24.5328V24.525V24.5173V24.5096V24.5019V24.4944V24.4868V24.4794V24.472V24.4646V24.4573V24.4501V24.4429V24.4358V24.4288V24.4218V24.4148V24.4079V24.4011V24.3943V24.3876V24.381V24.3744V24.3678V24.3614V24.3549V24.3486V24.3423V24.336V24.3298V24.3237V24.3176V24.3116V24.3056V24.2997V24.2939V24.2881V24.2823V24.2767V24.271V24.2655V24.26V24.2545V24.2492V24.2438V24.2414Z" fill="#559E0C" stroke="#60863A" stroke-width="0.2"/>
<path d="M53.8907 12.4519V57.7279C53.8907 66.4826 51.7347 72.9506 47.4227 77.1319C43.176 81.3786 36.7407 83.5019 28.1167 83.5019C23.3474 83.5019 18.8067 82.7833 14.4947 81.3459C10.248 79.9739 6.78537 78.0466 4.1067 75.5639L7.6347 70.2719C10.1174 72.4933 13.1227 74.2246 16.6507 75.4659C20.244 76.7073 24.0007 77.3279 27.9207 77.3279C34.454 77.3279 39.256 75.7926 42.3267 72.7219C45.3974 69.7166 46.9327 65.0126 46.9327 58.6099V52.0439C44.7767 55.3106 41.9347 57.7933 38.4067 59.4919C34.944 61.1906 31.0894 62.0399 26.8427 62.0399C22.008 62.0399 17.598 60.9946 13.6127 58.9039C9.6927 56.7479 6.58937 53.7753 4.3027 49.9859C2.08137 46.1313 0.970703 41.7866 0.970703 36.9519C0.970703 32.1173 2.08137 27.8053 4.3027 24.0159C6.58937 20.2266 9.6927 17.2866 13.6127 15.1959C17.5327 13.1053 21.9427 12.0599 26.8427 12.0599C31.22 12.0599 35.1727 12.9419 38.7007 14.7059C42.2287 16.4699 45.0707 19.0179 47.2267 22.3499V12.4519H53.8907ZM27.5287 55.8659C31.2527 55.8659 34.6174 55.0819 37.6227 53.5139C40.628 51.8806 42.9474 49.6266 44.5807 46.7519C46.2794 43.8773 47.1287 40.6106 47.1287 36.9519C47.1287 33.2933 46.2794 30.0593 44.5807 27.2499C42.9474 24.3753 40.628 22.1539 37.6227 20.5859C34.6827 18.9526 31.318 18.1359 27.5287 18.1359C23.8047 18.1359 20.44 18.9199 17.4347 20.4879C14.4947 22.0559 12.1754 24.2773 10.4767 27.1519C8.84337 30.0266 8.0267 33.2933 8.0267 36.9519C8.0267 40.6106 8.84337 43.8773 10.4767 46.7519C12.1754 49.6266 14.4947 51.8806 17.4347 53.5139C20.44 55.0819 23.8047 55.8659 27.5287 55.8659Z" fill="#5F5F5F"/>
<path d="M96.8683 64.4899C91.903 64.4899 87.4276 63.3793 83.4423 61.1579C79.457 58.8713 76.321 55.7353 74.0343 51.7499C71.7476 47.7646 70.6043 43.2566 70.6043 38.2259C70.6043 33.1953 71.7476 28.6873 74.0343 24.7019C76.321 20.7166 79.457 17.6133 83.4423 15.3919C87.4276 13.1706 91.903 12.0599 96.8683 12.0599C101.834 12.0599 106.309 13.1706 110.294 15.3919C114.28 17.6133 117.383 20.7166 119.604 24.7019C121.891 28.6873 123.034 33.1953 123.034 38.2259C123.034 43.2566 121.891 47.7646 119.604 51.7499C117.383 55.7353 114.28 58.8713 110.294 61.1579C106.309 63.3793 101.834 64.4899 96.8683 64.4899ZM96.8683 58.3159C100.527 58.3159 103.794 57.4993 106.668 55.8659C109.608 54.1673 111.895 51.7826 113.528 48.7119C115.162 45.6413 115.978 42.1459 115.978 38.2259C115.978 34.3059 115.162 30.8106 113.528 27.7399C111.895 24.6693 109.608 22.3173 106.668 20.6839C103.794 18.9853 100.527 18.1359 96.8683 18.1359C93.2096 18.1359 89.9103 18.9853 86.9703 20.6839C84.0956 22.3173 81.809 24.6693 80.1103 27.7399C78.477 30.8106 77.6603 34.3059 77.6603 38.2259C77.6603 42.1459 78.477 45.6413 80.1103 48.7119C81.809 51.7826 84.0956 54.1673 86.9703 55.8659C89.9103 57.4993 93.2096 58.3159 96.8683 58.3159Z" fill="#5F5F5F"/>
<path d="M378.281 12.06C384.749 12.06 389.877 13.9547 393.667 17.744C397.521 21.468 399.449 26.9233 399.449 34.11V64H392.491V34.796C392.491 29.4387 391.151 25.3553 388.473 22.546C385.794 19.7367 381.972 18.332 377.007 18.332C371.453 18.332 367.043 19.998 363.777 23.33C360.575 26.5967 358.975 31.1373 358.975 36.952V64H352.017V12.452H358.681V21.958C360.575 18.822 363.189 16.4047 366.521 14.706C369.918 12.942 373.838 12.06 378.281 12.06Z" fill="#3A3A3A"/>
<path d="M465.864 40.382H422.744C423.136 45.7393 425.194 50.084 428.918 53.416C432.642 56.6827 437.346 58.316 443.03 58.316C446.232 58.316 449.172 57.7607 451.85 56.65C454.529 55.474 456.848 53.7753 458.808 51.554L462.728 56.062C460.442 58.806 457.567 60.8967 454.104 62.334C450.707 63.7713 446.95 64.49 442.834 64.49C437.542 64.49 432.838 63.3793 428.722 61.158C424.672 58.8713 421.503 55.7353 419.216 51.75C416.93 47.7647 415.786 43.2567 415.786 38.226C415.786 33.1953 416.864 28.6873 419.02 24.702C421.242 20.7167 424.247 17.6133 428.036 15.392C431.891 13.1707 436.203 12.06 440.972 12.06C445.742 12.06 450.021 13.1707 453.81 15.392C457.6 17.6133 460.572 20.7167 462.728 24.702C464.884 28.622 465.962 33.13 465.962 38.226L465.864 40.382ZM440.972 18.038C436.007 18.038 431.826 19.6387 428.428 22.84C425.096 25.976 423.202 30.092 422.744 35.188H459.298C458.841 30.092 456.914 25.976 453.516 22.84C450.184 19.6387 446.003 18.038 440.972 18.038Z" fill="#3A3A3A"/>
<path d="M509.721 60.864C508.414 62.04 506.781 62.9547 504.821 63.608C502.926 64.196 500.933 64.49 498.843 64.49C494.008 64.49 490.284 63.1833 487.671 60.57C485.057 57.9567 483.751 54.2653 483.751 49.496V18.332H474.539V12.452H483.751V1.18201H490.709V12.452H506.389V18.332H490.709V49.104C490.709 52.1747 491.46 54.5267 492.963 56.16C494.531 57.728 496.752 58.512 499.627 58.512C501.064 58.512 502.436 58.2833 503.743 57.826C505.115 57.3687 506.291 56.7153 507.271 55.866L509.721 60.864Z" fill="#3A3A3A"/>
<path d="M167.158 60.9755L167.243 60.8997L167.193 60.798L164.743 55.8L164.657 55.6251L164.51 55.7527C163.546 56.5877 162.388 57.2319 161.033 57.6837L161.03 57.6844C159.74 58.136 158.385 58.362 156.964 58.362C154.118 58.362 151.94 57.5869 150.408 56.0561C148.941 54.4597 148.196 52.1501 148.196 49.104V18.482H163.726H163.876V18.332V12.452V12.302H163.726H148.196V1.18201V1.03201H148.046H141.088H140.938V1.18201V12.302H131.876H131.726V12.452V18.332V18.482H131.876H140.938V49.496C140.938 54.293 142.253 58.0271 144.902 60.6761C147.551 63.3254 151.318 64.64 156.18 64.64C158.285 64.64 160.293 64.344 162.202 63.7513L162.202 63.7513L162.205 63.7503C164.182 63.0916 165.834 62.1675 167.158 60.9755ZM188.988 21.9005V12.452V12.302H188.838H182.174H182.024V12.452V64V64.15H182.174H189.132H189.282V64V37.736C189.282 31.7504 190.811 27.1199 193.849 23.8237C196.885 20.5294 201.086 18.8749 206.474 18.874L208.136 18.9717L208.294 18.9811V18.822V12.06V11.91H208.144C203.357 11.91 199.313 12.7953 196.019 14.574L196.018 14.5746C192.97 16.2544 190.626 18.6979 188.988 21.9005ZM270.56 12.452V12.302H270.41H263.452H263.302V12.452V39.5C263.302 45.3529 261.742 49.918 258.64 53.2148C255.537 56.4458 251.301 58.068 245.91 58.068C240.974 58.068 237.196 56.6724 234.553 53.9005C231.91 51.1285 230.576 47.0556 230.576 41.656V12.452V12.302H230.426H223.468H223.318V12.452V42.342C223.318 49.62 225.253 55.1848 229.145 59.011L229.147 59.0128C233.101 62.7693 238.467 64.64 245.224 64.64C249.362 64.64 253.045 63.7861 256.271 62.0745L256.273 62.0734C259.338 60.3846 261.78 58.0706 263.596 55.133V64V64.15H263.746H270.41H270.56V64V12.452ZM337.232 40.532H337.375L337.382 40.3888L337.48 38.2328L337.48 38.2328V38.226C337.48 33.1083 336.397 28.5748 334.227 24.6297C332.059 20.6215 329.067 17.4981 325.254 15.2626C321.439 13.0266 317.134 11.91 312.34 11.91C307.546 11.91 303.208 13.0266 299.329 15.262L299.328 15.2626C295.515 17.498 292.491 20.6212 290.257 24.629L290.256 24.6306C288.087 28.6402 287.004 33.1732 287.004 38.226C287.004 43.2803 288.153 47.8145 290.454 51.8247C292.754 55.8337 295.942 58.9889 300.016 61.2887L300.019 61.29C304.159 63.5246 308.888 64.64 314.202 64.64C318.335 64.64 322.112 63.9183 325.529 62.4725C329.013 61.0264 331.908 58.9216 334.211 56.158L334.293 56.0599L334.209 55.9636L330.289 51.4556L330.177 51.3264L330.063 51.4548C328.118 53.6596 325.817 55.345 323.159 56.5121C320.501 57.614 317.581 58.166 314.398 58.166C308.745 58.166 304.078 56.5425 300.385 53.3036C296.73 50.033 294.692 45.7794 294.274 40.532H337.232ZM324.78 22.9482L324.782 22.9502C328.113 26.0247 330.021 30.0504 330.501 35.038H294.277C294.757 30.0495 296.632 26.0236 299.899 22.9492L299.796 22.84L299.899 22.9492C303.266 19.7758 307.41 18.188 312.34 18.188C317.336 18.188 321.479 19.7762 324.78 22.9482Z" fill="#559E0C" stroke="#60863A" stroke-width="0.3"/>
</svg>
