<svg width="574" height="118" viewBox="0 0 574 118" fill="none" xmlns="http://www.w3.org/2000/svg">
<path d="M85.6265 104.99H87.2585V114H85.6265V104.99ZM86.4425 103.256C86.1252 103.256 85.8588 103.154 85.6435 102.95C85.4395 102.746 85.3375 102.497 85.3375 102.202C85.3375 101.907 85.4395 101.658 85.6435 101.454C85.8588 101.239 86.1252 101.131 86.4425 101.131C86.7598 101.131 87.0205 101.233 87.2245 101.437C87.4398 101.63 87.5475 101.873 87.5475 102.168C87.5475 102.474 87.4398 102.735 87.2245 102.95C87.0205 103.154 86.7598 103.256 86.4425 103.256ZM100.371 104.905C101.515 104.905 102.422 105.239 103.091 105.908C103.771 106.565 104.111 107.534 104.111 108.815V114H102.479V109.002C102.479 108.129 102.269 107.472 101.85 107.03C101.43 106.588 100.83 106.367 100.048 106.367C99.1635 106.367 98.4665 106.628 97.9565 107.149C97.4465 107.659 97.1915 108.396 97.1915 109.359V114H95.5595V104.99H97.1235V106.35C97.4522 105.885 97.8942 105.528 98.4495 105.279C99.0162 105.03 99.6565 104.905 100.371 104.905ZM117.382 113.473C117.144 113.677 116.849 113.836 116.498 113.949C116.147 114.051 115.784 114.102 115.41 114.102C114.503 114.102 113.8 113.858 113.302 113.371C112.803 112.884 112.554 112.187 112.554 111.28V106.333H111.024V104.99H112.554V103.018H114.186V104.99H116.77V106.333H114.186V111.212C114.186 111.699 114.305 112.073 114.543 112.334C114.792 112.595 115.144 112.725 115.597 112.725C116.095 112.725 116.521 112.583 116.872 112.3L117.382 113.473ZM132.384 109.546C132.384 109.671 132.373 109.835 132.35 110.039H125.04C125.142 110.832 125.488 111.473 126.077 111.96C126.678 112.436 127.42 112.674 128.304 112.674C129.381 112.674 130.248 112.311 130.905 111.586L131.806 112.64C131.398 113.116 130.888 113.479 130.276 113.728C129.675 113.977 129.001 114.102 128.253 114.102C127.301 114.102 126.457 113.909 125.72 113.524C124.983 113.127 124.411 112.578 124.003 111.875C123.606 111.172 123.408 110.379 123.408 109.495C123.408 108.622 123.601 107.835 123.986 107.132C124.383 106.429 124.921 105.885 125.601 105.5C126.292 105.103 127.069 104.905 127.93 104.905C128.791 104.905 129.556 105.103 130.225 105.5C130.905 105.885 131.432 106.429 131.806 107.132C132.191 107.835 132.384 108.639 132.384 109.546ZM127.93 106.282C127.148 106.282 126.491 106.52 125.958 106.996C125.437 107.472 125.131 108.095 125.04 108.866H130.82C130.729 108.107 130.418 107.489 129.885 107.013C129.364 106.526 128.712 106.282 127.93 106.282ZM141.399 106.503C141.683 105.982 142.102 105.585 142.657 105.313C143.213 105.041 143.887 104.905 144.68 104.905V106.486C144.59 106.475 144.465 106.469 144.306 106.469C143.422 106.469 142.725 106.735 142.215 107.268C141.717 107.789 141.467 108.537 141.467 109.512V114H139.835V104.99H141.399V106.503ZM156.688 104.905C157.832 104.905 158.739 105.239 159.408 105.908C160.088 106.565 160.428 107.534 160.428 108.815V114H158.796V109.002C158.796 108.129 158.586 107.472 158.167 107.03C157.747 106.588 157.147 106.367 156.365 106.367C155.481 106.367 154.784 106.628 154.274 107.149C153.764 107.659 153.509 108.396 153.509 109.359V114H151.877V104.99H153.441V106.35C153.769 105.885 154.211 105.528 154.767 105.279C155.333 105.03 155.974 104.905 156.688 104.905ZM171.914 104.905C173.161 104.905 174.113 105.211 174.77 105.823C175.439 106.435 175.773 107.347 175.773 108.56V114H174.226V112.81C173.954 113.229 173.563 113.552 173.053 113.779C172.554 113.994 171.959 114.102 171.268 114.102C170.259 114.102 169.449 113.858 168.837 113.371C168.236 112.884 167.936 112.243 167.936 111.45C167.936 110.657 168.225 110.022 168.803 109.546C169.381 109.059 170.299 108.815 171.557 108.815H174.141V108.492C174.141 107.789 173.937 107.251 173.529 106.877C173.121 106.503 172.52 106.316 171.727 106.316C171.194 106.316 170.673 106.407 170.163 106.588C169.653 106.758 169.222 106.99 168.871 107.285L168.191 106.061C168.656 105.687 169.211 105.404 169.857 105.211C170.503 105.007 171.189 104.905 171.914 104.905ZM171.54 112.844C172.163 112.844 172.702 112.708 173.155 112.436C173.608 112.153 173.937 111.756 174.141 111.246V109.988H171.625C170.242 109.988 169.551 110.453 169.551 111.382C169.551 111.835 169.727 112.192 170.078 112.453C170.429 112.714 170.917 112.844 171.54 112.844ZM189.044 113.473C188.806 113.677 188.511 113.836 188.16 113.949C187.809 114.051 187.446 114.102 187.072 114.102C186.165 114.102 185.463 113.858 184.964 113.371C184.465 112.884 184.216 112.187 184.216 111.28V106.333H182.686V104.99H184.216V103.018H185.848V104.99H188.432V106.333H185.848V111.212C185.848 111.699 185.967 112.073 186.205 112.334C186.454 112.595 186.806 112.725 187.259 112.725C187.758 112.725 188.183 112.583 188.534 112.3L189.044 113.473ZM196.202 104.99H197.834V114H196.202V104.99ZM197.018 103.256C196.701 103.256 196.435 103.154 196.219 102.95C196.015 102.746 195.913 102.497 195.913 102.202C195.913 101.907 196.015 101.658 196.219 101.454C196.435 101.239 196.701 101.131 197.018 101.131C197.336 101.131 197.596 101.233 197.8 101.437C198.016 101.63 198.123 101.873 198.123 102.168C198.123 102.474 198.016 102.735 197.8 102.95C197.596 103.154 197.336 103.256 197.018 103.256ZM209.994 114.102C209.099 114.102 208.294 113.904 207.58 113.507C206.866 113.11 206.305 112.566 205.897 111.875C205.501 111.172 205.302 110.379 205.302 109.495C205.302 108.611 205.501 107.823 205.897 107.132C206.305 106.429 206.866 105.885 207.58 105.5C208.294 105.103 209.099 104.905 209.994 104.905C210.89 104.905 211.689 105.103 212.391 105.5C213.105 105.885 213.661 106.429 214.057 107.132C214.465 107.823 214.669 108.611 214.669 109.495C214.669 110.379 214.465 111.172 214.057 111.875C213.661 112.566 213.105 113.11 212.391 113.507C211.689 113.904 210.89 114.102 209.994 114.102ZM209.994 112.674C210.572 112.674 211.088 112.544 211.541 112.283C212.006 112.011 212.369 111.637 212.629 111.161C212.89 110.674 213.02 110.118 213.02 109.495C213.02 108.872 212.89 108.322 212.629 107.846C212.369 107.359 212.006 106.985 211.541 106.724C211.088 106.463 210.572 106.333 209.994 106.333C209.416 106.333 208.895 106.463 208.43 106.724C207.977 106.985 207.614 107.359 207.342 107.846C207.082 108.322 206.951 108.872 206.951 109.495C206.951 110.118 207.082 110.674 207.342 111.161C207.614 111.637 207.977 112.011 208.43 112.283C208.895 112.544 209.416 112.674 209.994 112.674ZM226.922 104.905C228.067 104.905 228.974 105.239 229.642 105.908C230.322 106.565 230.662 107.534 230.662 108.815V114H229.03V109.002C229.03 108.129 228.821 107.472 228.401 107.03C227.982 106.588 227.381 106.367 226.599 106.367C225.715 106.367 225.018 106.628 224.508 107.149C223.998 107.659 223.743 108.396 223.743 109.359V114H222.111V104.99H223.675V106.35C224.004 105.885 224.446 105.528 225.001 105.279C225.568 105.03 226.208 104.905 226.922 104.905ZM242.149 104.905C243.395 104.905 244.347 105.211 245.005 105.823C245.673 106.435 246.008 107.347 246.008 108.56V114H244.461V112.81C244.189 113.229 243.798 113.552 243.288 113.779C242.789 113.994 242.194 114.102 241.503 114.102C240.494 114.102 239.684 113.858 239.072 113.371C238.471 112.884 238.171 112.243 238.171 111.45C238.171 110.657 238.46 110.022 239.038 109.546C239.616 109.059 240.534 108.815 241.792 108.815H244.376V108.492C244.376 107.789 244.172 107.251 243.764 106.877C243.356 106.503 242.755 106.316 241.962 106.316C241.429 106.316 240.908 106.407 240.398 106.588C239.888 106.758 239.457 106.99 239.106 107.285L238.426 106.061C238.89 105.687 239.446 105.404 240.092 105.211C240.738 105.007 241.423 104.905 242.149 104.905ZM241.775 112.844C242.398 112.844 242.936 112.708 243.39 112.436C243.843 112.153 244.172 111.756 244.376 111.246V109.988H241.86C240.477 109.988 239.786 110.453 239.786 111.382C239.786 111.835 239.961 112.192 240.313 112.453C240.664 112.714 241.151 112.844 241.775 112.844ZM254.213 101.386H255.845V114H254.213V101.386ZM276.48 114.102C275.744 114.102 275.035 114.006 274.355 113.813C273.675 113.609 273.143 113.354 272.757 113.048L273.437 111.756C273.834 112.039 274.316 112.266 274.882 112.436C275.449 112.606 276.021 112.691 276.599 112.691C278.027 112.691 278.741 112.283 278.741 111.467C278.741 111.195 278.645 110.98 278.452 110.821C278.26 110.662 278.016 110.549 277.721 110.481C277.438 110.402 277.03 110.317 276.497 110.226C275.772 110.113 275.177 109.982 274.712 109.835C274.259 109.688 273.868 109.438 273.539 109.087C273.211 108.736 273.046 108.243 273.046 107.608C273.046 106.792 273.386 106.14 274.066 105.653C274.746 105.154 275.659 104.905 276.803 104.905C277.404 104.905 278.005 104.979 278.605 105.126C279.206 105.273 279.699 105.472 280.084 105.721L279.387 107.013C278.651 106.537 277.784 106.299 276.786 106.299C276.095 106.299 275.568 106.412 275.205 106.639C274.843 106.866 274.661 107.166 274.661 107.54C274.661 107.835 274.763 108.067 274.967 108.237C275.171 108.407 275.421 108.532 275.715 108.611C276.021 108.69 276.446 108.781 276.99 108.883C277.716 109.008 278.299 109.144 278.741 109.291C279.195 109.427 279.58 109.665 279.897 110.005C280.215 110.345 280.373 110.821 280.373 111.433C280.373 112.249 280.022 112.901 279.319 113.388C278.628 113.864 277.682 114.102 276.48 114.102ZM295.741 109.546C295.741 109.671 295.729 109.835 295.707 110.039H288.397C288.499 110.832 288.844 111.473 289.434 111.96C290.034 112.436 290.777 112.674 291.661 112.674C292.737 112.674 293.604 112.311 294.262 111.586L295.163 112.64C294.755 113.116 294.245 113.479 293.633 113.728C293.032 113.977 292.358 114.102 291.61 114.102C290.658 114.102 289.813 113.909 289.077 113.524C288.34 113.127 287.768 112.578 287.36 111.875C286.963 111.172 286.765 110.379 286.765 109.495C286.765 108.622 286.957 107.835 287.343 107.132C287.739 106.429 288.278 105.885 288.958 105.5C289.649 105.103 290.425 104.905 291.287 104.905C292.148 104.905 292.913 105.103 293.582 105.5C294.262 105.885 294.789 106.429 295.163 107.132C295.548 107.835 295.741 108.639 295.741 109.546ZM291.287 106.282C290.505 106.282 289.847 106.52 289.315 106.996C288.793 107.472 288.487 108.095 288.397 108.866H294.177C294.086 108.107 293.774 107.489 293.242 107.013C292.72 106.526 292.069 106.282 291.287 106.282ZM306.224 104.905C307.471 104.905 308.423 105.211 309.08 105.823C309.749 106.435 310.083 107.347 310.083 108.56V114H308.536V112.81C308.264 113.229 307.873 113.552 307.363 113.779C306.864 113.994 306.269 114.102 305.578 114.102C304.569 114.102 303.759 113.858 303.147 113.371C302.546 112.884 302.246 112.243 302.246 111.45C302.246 110.657 302.535 110.022 303.113 109.546C303.691 109.059 304.609 108.815 305.867 108.815H308.451V108.492C308.451 107.789 308.247 107.251 307.839 106.877C307.431 106.503 306.83 106.316 306.037 106.316C305.504 106.316 304.983 106.407 304.473 106.588C303.963 106.758 303.532 106.99 303.181 107.285L302.501 106.061C302.966 105.687 303.521 105.404 304.167 105.211C304.813 105.007 305.499 104.905 306.224 104.905ZM305.85 112.844C306.473 112.844 307.012 112.708 307.465 112.436C307.918 112.153 308.247 111.756 308.451 111.246V109.988H305.935C304.552 109.988 303.861 110.453 303.861 111.382C303.861 111.835 304.037 112.192 304.388 112.453C304.739 112.714 305.227 112.844 305.85 112.844ZM319.852 106.503C320.135 105.982 320.555 105.585 321.11 105.313C321.665 105.041 322.34 104.905 323.133 104.905V106.486C323.042 106.475 322.918 106.469 322.759 106.469C321.875 106.469 321.178 106.735 320.668 107.268C320.169 107.789 319.92 108.537 319.92 109.512V114H318.288V104.99H319.852V106.503ZM334.174 114.102C333.256 114.102 332.434 113.904 331.709 113.507C330.995 113.11 330.434 112.566 330.026 111.875C329.618 111.172 329.414 110.379 329.414 109.495C329.414 108.611 329.618 107.823 330.026 107.132C330.434 106.429 330.995 105.885 331.709 105.5C332.434 105.103 333.256 104.905 334.174 104.905C334.99 104.905 335.715 105.069 336.35 105.398C336.996 105.727 337.494 106.203 337.846 106.826L336.605 107.625C336.321 107.194 335.97 106.871 335.551 106.656C335.131 106.441 334.667 106.333 334.157 106.333C333.567 106.333 333.035 106.463 332.559 106.724C332.094 106.985 331.726 107.359 331.454 107.846C331.193 108.322 331.063 108.872 331.063 109.495C331.063 110.13 331.193 110.691 331.454 111.178C331.726 111.654 332.094 112.022 332.559 112.283C333.035 112.544 333.567 112.674 334.157 112.674C334.667 112.674 335.131 112.566 335.551 112.351C335.97 112.136 336.321 111.813 336.605 111.382L337.846 112.164C337.494 112.787 336.996 113.269 336.35 113.609C335.715 113.938 334.99 114.102 334.174 114.102ZM349.838 104.905C350.983 104.905 351.89 105.239 352.558 105.908C353.238 106.565 353.578 107.534 353.578 108.815V114H351.946V109.002C351.946 108.129 351.737 107.472 351.317 107.03C350.898 106.588 350.297 106.367 349.515 106.367C348.631 106.367 347.934 106.628 347.424 107.149C346.914 107.659 346.659 108.396 346.659 109.359V114H345.027V101.386H346.659V106.265C346.999 105.834 347.441 105.5 347.985 105.262C348.541 105.024 349.158 104.905 349.838 104.905ZM374.815 104.905C376.062 104.905 377.014 105.211 377.671 105.823C378.34 106.435 378.674 107.347 378.674 108.56V114H377.127V112.81C376.855 113.229 376.464 113.552 375.954 113.779C375.455 113.994 374.86 114.102 374.169 114.102C373.16 114.102 372.35 113.858 371.738 113.371C371.137 112.884 370.837 112.243 370.837 111.45C370.837 110.657 371.126 110.022 371.704 109.546C372.282 109.059 373.2 108.815 374.458 108.815H377.042V108.492C377.042 107.789 376.838 107.251 376.43 106.877C376.022 106.503 375.421 106.316 374.628 106.316C374.095 106.316 373.574 106.407 373.064 106.588C372.554 106.758 372.123 106.99 371.772 107.285L371.092 106.061C371.557 105.687 372.112 105.404 372.758 105.211C373.404 105.007 374.09 104.905 374.815 104.905ZM374.441 112.844C375.064 112.844 375.603 112.708 376.056 112.436C376.509 112.153 376.838 111.756 377.042 111.246V109.988H374.526C373.143 109.988 372.452 110.453 372.452 111.382C372.452 111.835 372.628 112.192 372.979 112.453C373.33 112.714 373.818 112.844 374.441 112.844ZM395.548 104.99V112.776C395.548 114.351 395.157 115.513 394.375 116.261C393.593 117.02 392.426 117.4 390.873 117.4C390.023 117.4 389.213 117.281 388.442 117.043C387.671 116.816 387.048 116.488 386.572 116.057L387.354 114.799C387.773 115.162 388.289 115.445 388.901 115.649C389.524 115.864 390.165 115.972 390.822 115.972C391.876 115.972 392.652 115.723 393.151 115.224C393.661 114.725 393.916 113.966 393.916 112.946V112.232C393.531 112.697 393.055 113.048 392.488 113.286C391.933 113.513 391.326 113.626 390.669 113.626C389.808 113.626 389.026 113.445 388.323 113.082C387.632 112.708 387.088 112.192 386.691 111.535C386.294 110.866 386.096 110.107 386.096 109.257C386.096 108.407 386.294 107.653 386.691 106.996C387.088 106.327 387.632 105.812 388.323 105.449C389.026 105.086 389.808 104.905 390.669 104.905C391.349 104.905 391.978 105.03 392.556 105.279C393.145 105.528 393.627 105.897 394.001 106.384V104.99H395.548ZM390.856 112.198C391.445 112.198 391.972 112.073 392.437 111.824C392.913 111.575 393.281 111.229 393.542 110.787C393.814 110.334 393.95 109.824 393.95 109.257C393.95 108.384 393.661 107.682 393.083 107.149C392.505 106.605 391.763 106.333 390.856 106.333C389.938 106.333 389.19 106.605 388.612 107.149C388.034 107.682 387.745 108.384 387.745 109.257C387.745 109.824 387.875 110.334 388.136 110.787C388.408 111.229 388.776 111.575 389.241 111.824C389.717 112.073 390.255 112.198 390.856 112.198ZM412.47 104.99V112.776C412.47 114.351 412.079 115.513 411.297 116.261C410.515 117.02 409.348 117.4 407.795 117.4C406.945 117.4 406.135 117.281 405.364 117.043C404.594 116.816 403.97 116.488 403.494 116.057L404.276 114.799C404.696 115.162 405.211 115.445 405.823 115.649C406.447 115.864 407.087 115.972 407.744 115.972C408.798 115.972 409.575 115.723 410.073 115.224C410.583 114.725 410.838 113.966 410.838 112.946V112.232C410.453 112.697 409.977 113.048 409.41 113.286C408.855 113.513 408.249 113.626 407.591 113.626C406.73 113.626 405.948 113.445 405.245 113.082C404.554 112.708 404.01 112.192 403.613 111.535C403.217 110.866 403.018 110.107 403.018 109.257C403.018 108.407 403.217 107.653 403.613 106.996C404.01 106.327 404.554 105.812 405.245 105.449C405.948 105.086 406.73 104.905 407.591 104.905C408.271 104.905 408.9 105.03 409.478 105.279C410.068 105.528 410.549 105.897 410.923 106.384V104.99H412.47ZM407.778 112.198C408.368 112.198 408.895 112.073 409.359 111.824C409.835 111.575 410.204 111.229 410.464 110.787C410.736 110.334 410.872 109.824 410.872 109.257C410.872 108.384 410.583 107.682 410.005 107.149C409.427 106.605 408.685 106.333 407.778 106.333C406.86 106.333 406.112 106.605 405.534 107.149C404.956 107.682 404.667 108.384 404.667 109.257C404.667 109.824 404.798 110.334 405.058 110.787C405.33 111.229 405.699 111.575 406.163 111.824C406.639 112.073 407.178 112.198 407.778 112.198ZM422.338 106.503C422.621 105.982 423.04 105.585 423.596 105.313C424.151 105.041 424.825 104.905 425.619 104.905V106.486C425.528 106.475 425.403 106.469 425.245 106.469C424.361 106.469 423.664 106.735 423.154 107.268C422.655 107.789 422.406 108.537 422.406 109.512V114H420.774V104.99H422.338V106.503ZM440.875 109.546C440.875 109.671 440.864 109.835 440.841 110.039H433.531C433.633 110.832 433.979 111.473 434.568 111.96C435.169 112.436 435.911 112.674 436.795 112.674C437.872 112.674 438.739 112.311 439.396 111.586L440.297 112.64C439.889 113.116 439.379 113.479 438.767 113.728C438.166 113.977 437.492 114.102 436.744 114.102C435.792 114.102 434.948 113.909 434.211 113.524C433.474 113.127 432.902 112.578 432.494 111.875C432.097 111.172 431.899 110.379 431.899 109.495C431.899 108.622 432.092 107.835 432.477 107.132C432.874 106.429 433.412 105.885 434.092 105.5C434.783 105.103 435.56 104.905 436.421 104.905C437.282 104.905 438.047 105.103 438.716 105.5C439.396 105.885 439.923 106.429 440.297 107.132C440.682 107.835 440.875 108.639 440.875 109.546ZM436.421 106.282C435.639 106.282 434.982 106.52 434.449 106.996C433.928 107.472 433.622 108.095 433.531 108.866H439.311C439.22 108.107 438.909 107.489 438.376 107.013C437.855 106.526 437.203 106.282 436.421 106.282ZM456.945 104.99V112.776C456.945 114.351 456.554 115.513 455.772 116.261C454.99 117.02 453.823 117.4 452.27 117.4C451.42 117.4 450.61 117.281 449.839 117.043C449.068 116.816 448.445 116.488 447.969 116.057L448.751 114.799C449.17 115.162 449.686 115.445 450.298 115.649C450.921 115.864 451.562 115.972 452.219 115.972C453.273 115.972 454.049 115.723 454.548 115.224C455.058 114.725 455.313 113.966 455.313 112.946V112.232C454.928 112.697 454.452 113.048 453.885 113.286C453.33 113.513 452.723 113.626 452.066 113.626C451.205 113.626 450.423 113.445 449.72 113.082C449.029 112.708 448.485 112.192 448.088 111.535C447.691 110.866 447.493 110.107 447.493 109.257C447.493 108.407 447.691 107.653 448.088 106.996C448.485 106.327 449.029 105.812 449.72 105.449C450.423 105.086 451.205 104.905 452.066 104.905C452.746 104.905 453.375 105.03 453.953 105.279C454.542 105.528 455.024 105.897 455.398 106.384V104.99H456.945ZM452.253 112.198C452.842 112.198 453.369 112.073 453.834 111.824C454.31 111.575 454.678 111.229 454.939 110.787C455.211 110.334 455.347 109.824 455.347 109.257C455.347 108.384 455.058 107.682 454.48 107.149C453.902 106.605 453.16 106.333 452.253 106.333C451.335 106.333 450.587 106.605 450.009 107.149C449.431 107.682 449.142 108.384 449.142 109.257C449.142 109.824 449.272 110.334 449.533 110.787C449.805 111.229 450.173 111.575 450.638 111.824C451.114 112.073 451.652 112.198 452.253 112.198ZM468.529 104.905C469.776 104.905 470.728 105.211 471.385 105.823C472.054 106.435 472.388 107.347 472.388 108.56V114H470.841V112.81C470.569 113.229 470.178 113.552 469.668 113.779C469.17 113.994 468.575 114.102 467.883 114.102C466.875 114.102 466.064 113.858 465.452 113.371C464.852 112.884 464.551 112.243 464.551 111.45C464.551 110.657 464.84 110.022 465.418 109.546C465.996 109.059 466.914 108.815 468.172 108.815H470.756V108.492C470.756 107.789 470.552 107.251 470.144 106.877C469.736 106.503 469.136 106.316 468.342 106.316C467.81 106.316 467.288 106.407 466.778 106.588C466.268 106.758 465.838 106.99 465.486 107.285L464.806 106.061C465.271 105.687 465.826 105.404 466.472 105.211C467.118 105.007 467.804 104.905 468.529 104.905ZM468.155 112.844C468.779 112.844 469.317 112.708 469.77 112.436C470.224 112.153 470.552 111.756 470.756 111.246V109.988H468.24C466.858 109.988 466.166 110.453 466.166 111.382C466.166 111.835 466.342 112.192 466.693 112.453C467.045 112.714 467.532 112.844 468.155 112.844ZM485.66 113.473C485.422 113.677 485.127 113.836 484.776 113.949C484.424 114.051 484.062 114.102 483.688 114.102C482.781 114.102 482.078 113.858 481.58 113.371C481.081 112.884 480.832 112.187 480.832 111.28V106.333H479.302V104.99H480.832V103.018H482.464V104.99H485.048V106.333H482.464V111.212C482.464 111.699 482.583 112.073 482.821 112.334C483.07 112.595 483.421 112.725 483.875 112.725C484.373 112.725 484.798 112.583 485.15 112.3L485.66 113.473ZM496.378 114.102C495.482 114.102 494.678 113.904 493.964 113.507C493.25 113.11 492.689 112.566 492.281 111.875C491.884 111.172 491.686 110.379 491.686 109.495C491.686 108.611 491.884 107.823 492.281 107.132C492.689 106.429 493.25 105.885 493.964 105.5C494.678 105.103 495.482 104.905 496.378 104.905C497.273 104.905 498.072 105.103 498.775 105.5C499.489 105.885 500.044 106.429 500.441 107.132C500.849 107.823 501.053 108.611 501.053 109.495C501.053 110.379 500.849 111.172 500.441 111.875C500.044 112.566 499.489 113.11 498.775 113.507C498.072 113.904 497.273 114.102 496.378 114.102ZM496.378 112.674C496.956 112.674 497.471 112.544 497.925 112.283C498.389 112.011 498.752 111.637 499.013 111.161C499.273 110.674 499.404 110.118 499.404 109.495C499.404 108.872 499.273 108.322 499.013 107.846C498.752 107.359 498.389 106.985 497.925 106.724C497.471 106.463 496.956 106.333 496.378 106.333C495.8 106.333 495.278 106.463 494.814 106.724C494.36 106.985 493.998 107.359 493.726 107.846C493.465 108.322 493.335 108.872 493.335 109.495C493.335 110.118 493.465 110.674 493.726 111.161C493.998 111.637 494.36 112.011 494.814 112.283C495.278 112.544 495.8 112.674 496.378 112.674ZM510.059 106.503C510.342 105.982 510.762 105.585 511.317 105.313C511.872 105.041 512.547 104.905 513.34 104.905V106.486C513.249 106.475 513.125 106.469 512.966 106.469C512.082 106.469 511.385 106.735 510.875 107.268C510.376 107.789 510.127 108.537 510.127 109.512V114H508.495V104.99H510.059V106.503Z" fill="#5D5D5D"/>
<path d="M109.005 49.5018L109.105 49.5002L109.104 49.4148L109.019 49.4028C102.887 48.531 96.7397 50.6881 90.5817 55.8493L90.2252 52.7311L90.1308 51.9053L90.1072 51.6988L90.1032 51.6637C94.8942 43.6899 101.239 39.3588 109.14 38.6504L109.231 38.6422V38.5508V38.5213V38.4919V38.4626V38.4333V38.4041V38.3749V38.3458V38.3167V38.2877V38.2587V38.2299V38.201V38.1723V38.1435V38.1149V38.0863V38.0577V38.0293V38.0008V37.9725V37.9441V37.9159V37.8877V37.8596V37.8315V37.8034V37.7755V37.7476V37.7197V37.6919V37.6642V37.6365V37.6089V37.5813V37.5538V37.5264V37.499V37.4716V37.4444V37.4171V37.39V37.3629V37.3358V37.3089V37.2819V37.255V37.2282V37.2015V37.1748V37.1481V37.1215V37.095V37.0686V37.0421V37.0158V36.9895V36.9632V36.9371V36.9109V36.8849V36.8589V36.8329V36.807V36.7812V36.7554V36.7297V36.704V36.6784V36.6529V36.6274V36.6019V36.5766V36.5513V36.526V36.5008V36.4756V36.4506V36.4255V36.4006V36.3756V36.3508V36.326V36.3012V36.2766V36.2519V36.2274V36.2029V36.1784V36.154V36.1297V36.1054V36.0812V36.057V36.0329V36.0088V35.9848V35.9609V35.937V35.9132V35.8894V35.8657V35.8421V35.8185V35.795V35.7715V35.7481V35.7247V35.7014V35.6782V35.655V35.6319V35.6088V35.5858V35.5628V35.5399V35.5171V35.4943V35.4716V35.4489V35.4263V35.4037V35.3812V35.3588V35.3364V35.3141V35.2918V35.2696V35.2475V35.2254V35.2034V35.1814V35.1595V35.1376V35.1158V35.094V35.0724V35.0507V35.0291V35.0076V34.9862V34.9648V34.9434V34.9221V34.9009V34.8797V34.8586V34.8376V34.8166V34.7956V34.7748V34.7539V34.7332V34.7125V34.6918V34.6712V34.6507V34.6302V34.6098V34.5894V34.5691V34.5488V34.5287V34.5085V34.4884V34.4684V34.4485V34.4286V34.4087V34.3889V34.3692V34.3495V34.3299V34.3103V34.2908V34.2714V34.252V34.2327V34.2134V34.1942V34.1751V34.156V34.1369V34.1179V34.099V34.0801V34.0613V34.0426V34.0239V34.0053V33.9867V33.9682V33.9497V33.9313V33.9129V33.8946V33.8764V33.8582V33.8401V33.8221V33.8041V33.7861V33.7682V33.7504V33.7326V33.7149V33.6973V33.6797V33.6621V33.6446V33.6272V33.6098V33.5925V33.5753V33.5581V33.5409V33.5238V33.5068V33.4899V33.473V33.4561V33.4393V33.4226V33.4059V33.3893V33.3727V33.3562V33.3398V33.3234V33.307V33.2908V33.2745V33.2584V33.2423V33.2262V33.2103V33.1943V33.1785V33.1626V33.1469V33.1312V33.1155V33.1V33.0844V33.069V33.0536V33.0382V33.0229V33.0077V32.9925V32.9774V32.9623V32.9473V32.9323V32.9174V32.9026V32.8878V32.8731V32.8585V32.8439V32.8293V32.8148V32.8004V32.786V32.7717V32.7574V32.7432V32.7291V32.715V32.701V32.687V32.6731V32.6592V32.6454V32.6317V32.618V32.6044V32.5908V32.5773V32.5639V32.5505V32.5371V32.5239V32.5106V32.4975V32.4844V32.4713V32.4583V32.4454V32.4325V32.4197V32.4069V32.3942V32.3816V32.369V32.3565V32.344V32.3316V32.3192V32.3069V32.2947V32.2825V32.2704V32.2583V32.2463V32.2343V32.2224V32.2106V32.1988V32.1871V32.1754V32.1638V32.1523V32.1408V32.1293V32.118V32.1066V32.0954V32.0842V32.073V32.0619V32.0509V32.0399V32.029V32.0181V32.0073V31.9966V31.9859V31.9753V31.9647V31.9542V31.9437V31.9333V31.923V31.9127V31.9025V31.8923V31.8822V31.8722V31.8622V31.8522V31.8423V31.8325V31.8228V31.813V31.8034V31.7938V31.7843V31.7748V31.7654V31.756V31.7467V31.7375V31.7283V31.7191V31.7101V31.701V31.6921V31.6832V31.6743V31.6656V31.6568V31.6482V31.6395V31.631V31.6225V31.6141V31.6057V31.5973V31.5891V31.5809V31.5727V31.5646V31.5566V31.5486V31.5407V31.5328V31.525V31.5173V31.5096V31.5019V31.4944V31.4868V31.4794V31.472V31.4646V31.4573V31.4501V31.4429V31.4358V31.4288V31.4218V31.4148V31.4079V31.4011V31.3943V31.3876V31.381V31.3744V31.3678V31.3614V31.3549V31.3486V31.3423V31.336V31.3298V31.3237V31.3176V31.3116V31.3056V31.2997V31.2939V31.2881V31.2823V31.2767V31.271V31.2655V31.26V31.2545V31.2492V31.2438V31.2414L118.877 40.8874L121.331 43.3418L121.945 43.9554L122.079 44.0895L112.332 53.9307L109.878 56.4088L109.264 57.0283L109.227 57.066C109.187 54.5831 109.157 52.7115 109.137 51.4509L109.113 49.9878L109.107 49.6221L109.106 49.5307L109.105 49.5078L109.105 49.5021L109.105 49.5007L109.105 49.5003L109.105 49.5002L109.005 49.5018Z" fill="#559E0C" stroke="#60863A" stroke-width="0.2"/>
<path d="M64.9435 17.76V67.224C64.9435 77.232 62.4595 84.612 57.4915 89.364C52.5235 94.188 45.1075 96.6 35.2435 96.6C29.8435 96.6 24.6955 95.844 19.7995 94.332C14.9035 92.892 10.9435 90.804 7.91945 88.068L12.8875 80.076C15.5515 82.38 18.8275 84.18 22.7155 85.476C26.6755 86.844 30.7435 87.528 34.9195 87.528C41.6155 87.528 46.5475 85.944 49.7155 82.776C52.9555 79.608 54.5755 74.784 54.5755 68.304V63.768C52.1275 66.72 49.1035 68.952 45.5035 70.464C41.9755 71.904 38.1235 72.624 33.9475 72.624C28.4755 72.624 23.5075 71.472 19.0435 69.168C14.6515 66.792 11.1955 63.516 8.67545 59.34C6.15545 55.092 4.89545 50.268 4.89545 44.868C4.89545 39.468 6.15545 34.68 8.67545 30.504C11.1955 26.256 14.6515 22.98 19.0435 20.676C23.5075 18.372 28.4755 17.22 33.9475 17.22C38.2675 17.22 42.2635 18.012 45.9355 19.596C49.6795 21.18 52.7395 23.52 55.1155 26.616V17.76H64.9435ZM35.1355 63.552C38.8795 63.552 42.2275 62.76 45.1795 61.176C48.2035 59.592 50.5435 57.396 52.1995 54.588C53.9275 51.708 54.7915 48.468 54.7915 44.868C54.7915 39.324 52.9555 34.86 49.2835 31.476C45.6115 28.02 40.8955 26.292 35.1355 26.292C29.3035 26.292 24.5515 28.02 20.8795 31.476C17.2075 34.86 15.3715 39.324 15.3715 44.868C15.3715 48.468 16.1995 51.708 17.8555 54.588C19.5835 57.396 21.9235 59.592 24.8755 61.176C27.8995 62.76 31.3195 63.552 35.1355 63.552ZM111.43 75.648C105.742 75.648 100.63 74.388 96.0939 71.868C91.5579 69.348 87.9939 65.892 85.4019 61.5C82.8819 57.036 81.6219 51.996 81.6219 46.38C81.6219 40.764 82.8819 35.76 85.4019 31.368C87.9939 26.904 91.5579 23.448 96.0939 21C100.63 18.48 105.742 17.22 111.43 17.22C117.118 17.22 122.194 18.48 126.658 21C131.194 23.448 134.722 26.904 137.242 31.368C139.834 35.76 141.13 40.764 141.13 46.38C141.13 51.996 139.834 57.036 137.242 61.5C134.722 65.892 131.194 69.348 126.658 71.868C122.194 74.388 117.118 75.648 111.43 75.648ZM111.43 66.576C115.102 66.576 118.378 65.748 121.258 64.092C124.21 62.364 126.514 59.988 128.17 56.964C129.826 53.868 130.654 50.34 130.654 46.38C130.654 42.42 129.826 38.928 128.17 35.904C126.514 32.808 124.21 30.432 121.258 28.776C118.378 27.12 115.102 26.292 111.43 26.292C107.758 26.292 104.446 27.12 101.494 28.776C98.6139 30.432 96.3099 32.808 94.5819 35.904C92.9259 38.928 92.0979 42.42 92.0979 46.38C92.0979 50.34 92.9259 53.868 94.5819 56.964C96.3099 59.988 98.6139 62.364 101.494 64.092C104.446 65.748 107.758 66.576 111.43 66.576Z" fill="#5F5F5F"/>
<path d="M425.394 17.22C432.666 17.22 438.426 19.344 442.674 23.592C446.994 27.768 449.154 33.924 449.154 42.06V75H438.786V43.248C438.786 37.704 437.454 33.528 434.79 30.72C432.126 27.912 428.31 26.508 423.342 26.508C417.726 26.508 413.298 28.164 410.058 31.476C406.818 34.716 405.198 39.396 405.198 45.516V75H394.83V17.76H404.766V26.4C406.854 23.448 409.662 21.18 413.19 19.596C416.79 18.012 420.858 17.22 425.394 17.22ZM522.55 46.704C522.55 47.496 522.478 48.54 522.334 49.836H475.894C476.542 54.876 478.738 58.944 482.482 62.04C486.298 65.064 491.014 66.576 496.63 66.576C503.47 66.576 508.978 64.272 513.154 59.664L518.878 66.36C516.286 69.384 513.046 71.688 509.158 73.272C505.342 74.856 501.058 75.648 496.306 75.648C490.258 75.648 484.894 74.424 480.214 71.976C475.534 69.456 471.898 65.964 469.306 61.5C466.786 57.036 465.526 51.996 465.526 46.38C465.526 40.836 466.75 35.832 469.198 31.368C471.718 26.904 475.138 23.448 479.458 21C483.85 18.48 488.782 17.22 494.254 17.22C499.726 17.22 504.586 18.48 508.834 21C513.154 23.448 516.502 26.904 518.878 31.368C521.326 35.832 522.55 40.944 522.55 46.704ZM494.254 25.968C489.286 25.968 485.11 27.48 481.726 30.504C478.414 33.528 476.47 37.488 475.894 42.384H512.614C512.038 37.56 510.058 33.636 506.674 30.612C503.362 27.516 499.222 25.968 494.254 25.968ZM571.291 71.652C569.779 72.948 567.907 73.956 565.675 74.676C563.443 75.324 561.139 75.648 558.763 75.648C553.003 75.648 548.539 74.1 545.371 71.004C542.203 67.908 540.619 63.48 540.619 57.72V26.292H530.899V17.76H540.619V5.232H550.987V17.76H567.403V26.292H550.987V57.288C550.987 60.384 551.743 62.76 553.255 64.416C554.839 66.072 557.071 66.9 559.951 66.9C563.119 66.9 565.819 66 568.051 64.2L571.291 71.652Z" fill="#3A3A3A"/>
<path d="M190.252 71.7659L190.337 71.6938L190.292 71.5922L187.052 64.1402L186.974 63.9597L186.821 64.0832C184.618 65.8594 181.952 66.75 178.815 66.75C175.965 66.75 173.777 65.9319 172.228 64.3135C170.751 62.6942 170.001 60.3601 170.001 57.288V26.442H186.267H186.417V26.292V17.76V17.61H186.267H170.001V5.23199V5.08199H169.851H159.483H159.333V5.23199V17.61H149.763H149.613V17.76V26.292V26.442H149.763H159.333V57.72C159.333 63.5077 160.925 67.9793 164.13 71.1113C167.334 74.2422 171.84 75.798 177.627 75.798C180.017 75.798 182.335 75.4721 184.581 74.82L184.581 74.8201L184.585 74.8187C186.832 74.0937 188.723 73.0769 190.252 71.7659ZM214.936 26.8003V17.76V17.61H214.786H204.85H204.7V17.76V75V75.15H204.85H215.218H215.368V75V46.488C215.368 40.3208 216.945 35.6111 220.078 32.3357C223.284 28.9871 227.67 27.306 233.254 27.306C234.259 27.306 235.044 27.342 235.611 27.4128L235.78 27.4339V27.264V17.22V17.07H235.63C230.573 17.07 226.265 17.9368 222.712 19.6773C219.336 21.3304 216.743 23.7051 214.936 26.8003ZM304.808 17.76V17.61H304.658H294.29H294.14V17.76V47.352C294.14 53.3741 292.564 58.0122 289.43 61.2883C286.296 64.5651 282.018 66.21 276.578 66.21C271.64 66.21 267.868 64.8152 265.24 62.0454C262.611 59.2028 261.284 55.0334 261.284 49.512V17.76V17.61H261.134H250.766H250.616V17.76V50.7C250.616 58.9342 252.82 65.2069 257.25 69.4918L257.251 69.4927C261.678 73.7016 267.73 75.798 275.39 75.798C279.443 75.798 283.173 75.0019 286.578 73.4079L286.579 73.4073C289.909 71.8119 292.61 69.6171 294.68 66.823V75V75.15H294.83H304.658H304.808V75V17.76ZM378.072 49.986H378.207L378.221 49.8526C378.366 48.5541 378.438 47.5039 378.438 46.704C378.438 40.9228 377.21 35.7859 374.749 31.2974C372.36 26.8091 368.992 23.3323 364.647 20.87C360.374 18.3355 355.488 17.07 349.992 17.07C344.497 17.07 339.539 18.3357 335.122 20.8695C330.778 23.3314 327.339 26.8073 324.806 31.2943L324.805 31.2959C322.344 35.7839 321.114 40.8131 321.114 46.38C321.114 52.0193 322.38 57.0851 324.914 61.5737L324.915 61.5753C327.521 66.064 331.178 69.5753 335.881 72.1081L335.883 72.1089C340.587 74.5697 345.976 75.798 352.044 75.798C356.813 75.798 361.117 75.0032 364.954 73.4106C368.862 71.8181 372.122 69.5005 374.73 66.4576L374.814 66.3601L374.73 66.2625L369.006 59.5665L368.896 59.437L368.781 59.5633C364.637 64.1366 359.171 66.426 352.368 66.426C346.781 66.426 342.1 64.9227 338.315 61.9237C334.644 58.8879 332.474 54.9116 331.803 49.986H378.072ZM362.31 30.7216L362.312 30.7238C365.628 33.6866 367.585 37.5204 368.183 42.234H331.802C332.398 37.4476 334.32 33.578 337.565 30.6153C340.919 27.6186 345.058 26.118 349.992 26.118C354.926 26.118 359.028 27.6541 362.31 30.7216Z" fill="#559E0C" stroke="#60863A" stroke-width="0.3"/>
</svg>
