<svg width="63" height="46" viewBox="0 0 63 46" fill="none" xmlns="http://www.w3.org/2000/svg">
<path d="M1.94865 0C1.94865 0 -3.0506 0 5.68986 0C28.7435 0 40.7668 44.0002 62.9499 44.0002C62.9499 45.5 62.9499 44.5 62.9499 46.0002C51.5508 46.0002 5.72335 46.0002 1.94865 46.0002V0Z" fill="#E5E5E5" class="tab_corner_path"/>
<path d="M2.04865 45.9002V0.1H2.04964H2.07417H2.09894H2.12394H2.14917H2.17465H2.20035H2.2263H2.25248H2.27891H2.30557H2.33247H2.35962H2.38701H2.41464H2.44251H2.47063H2.499H2.52761H2.55647H2.58558H2.61494H2.64454H2.6744H2.70451H2.73487H2.76549H2.79636H2.82748H2.85887H2.8905H2.9224H2.95455H2.98696H3.01964H3.05257H3.08576H3.11922H3.15294H3.18693H3.22118H3.25569H3.29048H3.32553H3.36084H3.39643H3.43229H3.46842H3.50482H3.54149H3.57844H3.61566H3.65316H3.69093H3.72898H3.76731H3.80591H3.84479H3.88396H3.9234H3.96313H4.00314H4.04343H4.08401H4.12487H4.16602H4.20746H4.24918H4.29119H4.33349H4.37609H4.41897H4.46214H4.50561H4.54937H4.59342H4.63777H4.68242H4.72736H4.7726H4.81814H4.86398H4.91012H4.95656H5.0033H5.05035H5.09769H5.14535H5.19331H5.24157H5.29014H5.33902H5.38821H5.4377H5.48751H5.53763H5.58806H5.6388H5.68986C11.4192 0.1 16.4706 2.83324 21.1772 6.9503C25.8846 11.0681 30.2363 16.5603 34.5678 22.062L34.8207 22.3833C39.0644 27.774 43.2949 33.1482 47.8197 37.1997C52.4075 41.3076 57.3099 44.0671 62.8499 44.0999V44.1016V44.1097V44.1177V44.1257V44.1336V44.1415V44.1493V44.1571V44.1648V44.1725V44.1801V44.1876V44.1952V44.2026V44.21V44.2174V44.2247V44.2319V44.2391V44.2462V44.2533V44.2604V44.2674V44.2743V44.2812V44.2881V44.2949V44.3016V44.3083V44.315V44.3216V44.3281V44.3347V44.3411V44.3475V44.3539V44.3602V44.3665V44.3727V44.3789V44.3851V44.3911V44.3972V44.4032V44.4092V44.4151V44.4209V44.4268V44.4325V44.4383V44.444V44.4496V44.4552V44.4608V44.4663V44.4718V44.4772V44.4826V44.488V44.4933V44.4985V44.5038V44.5089V44.5141V44.5192V44.5243V44.5293V44.5343V44.5392V44.5441V44.549V44.5538V44.5586V44.5634V44.5681V44.5727V44.5774V44.582V44.5865V44.5911V44.5956V44.6V44.6044V44.6088V44.6131V44.6175V44.6217V44.626V44.6302V44.6343V44.6385V44.6426V44.6466V44.6507V44.6546V44.6586V44.6625V44.6664V44.6703V44.6741V44.6779V44.6817V44.6854V44.6891V44.6928V44.6964V44.7V44.7036V44.7072V44.7107V44.7142V44.7176V44.7211V44.7244V44.7278V44.7312V44.7345V44.7377V44.741V44.7442V44.7474V44.7506V44.7537V44.7568V44.7599V44.763V44.766V44.769V44.772V44.775V44.7779V44.7808V44.7837V44.7865V44.7894V44.7922V44.7949V44.7977V44.8004V44.8031V44.8058V44.8085V44.8111V44.8137V44.8163V44.8189V44.8215V44.824V44.8265V44.829V44.8314V44.8339V44.8363V44.8387V44.8411V44.8434V44.8458V44.8481V44.8504V44.8527V44.8549V44.8572V44.8594V44.8616V44.8638V44.866V44.8681V44.8703V44.8724V44.8745V44.8766V44.8786V44.8807V44.8827V44.8847V44.8867V44.8887V44.8907V44.8927V44.8946V44.8965V44.8985V44.9004V44.9022V44.9041V44.906V44.9078V44.9097V44.9115V44.9133V44.9151V44.9169V44.9186V44.9204V44.9222V44.9239V44.9256V44.9273V44.929V44.9307V44.9324V44.9341V44.9358V44.9374V44.9391V44.9407V44.9423V44.944V44.9456V44.9472V44.9488V44.9504V44.952V44.9535V44.9551V44.9567V44.9582V44.9598V44.9613V44.9628V44.9644V44.9659V44.9674V44.9689V44.9705V44.972V44.9735V44.975V44.9765V44.978V44.9794V44.9809V44.9824V44.9839V44.9854V44.9868V44.9883V44.9898V44.9912V44.9927V44.9942V44.9957V44.9971V44.9986V45V45.0015V45.003V45.0044V45.0059V45.0074V45.0088V45.0103V45.0118V45.0133V45.0147V45.0162V45.0177V45.0192V45.0207V45.0221V45.0236V45.0251V45.0266V45.0281V45.0296V45.0312V45.0327V45.0342V45.0357V45.0373V45.0388V45.0403V45.0419V45.0434V45.045V45.0466V45.0481V45.0497V45.0513V45.0529V45.0545V45.0561V45.0578V45.0594V45.061V45.0627V45.0643V45.066V45.0677V45.0694V45.0711V45.0728V45.0745V45.0762V45.0779V45.0797V45.0815V45.0832V45.085V45.0868V45.0886V45.0904V45.0923V45.0941V45.096V45.0979V45.0998V45.1017V45.1036V45.1055V45.1074V45.1094V45.1114V45.1134V45.1154V45.1174V45.1194V45.1215V45.1236V45.1256V45.1277V45.1299V45.132V45.1341V45.1363V45.1385V45.1407V45.1429V45.1452V45.1474V45.1497V45.152V45.1544V45.1567V45.1591V45.1614V45.1638V45.1663V45.1687V45.1712V45.1736V45.1762V45.1787V45.1812V45.1838V45.1864V45.189V45.1917V45.1943V45.197V45.1997V45.2024V45.2052V45.208V45.2108V45.2136V45.2165V45.2193V45.2223V45.2252V45.2281V45.2311V45.2341V45.2372V45.2402V45.2433V45.2464V45.2496V45.2527V45.2559V45.2592V45.2624V45.2657V45.269V45.2724V45.2757V45.2791V45.2825V45.286V45.2895V45.293V45.2966V45.3001V45.3037V45.3074V45.3111V45.3148V45.3185V45.3223V45.3261V45.3299V45.3338V45.3377V45.3416V45.3455V45.3495V45.3536V45.3576V45.3617V45.3659V45.37V45.3742V45.3785V45.3828V45.3871V45.3914V45.3958V45.4002V45.4047V45.4091V45.4137V45.4182V45.4228V45.4275V45.4321V45.4369V45.4416V45.4464V45.4512V45.4561V45.461V45.466V45.4709V45.476V45.481V45.4861V45.4913V45.4965V45.5017V45.507V45.5123V45.5176V45.523V45.5285V45.534V45.5395V45.545V45.5506V45.5563V45.562V45.5677V45.5735V45.5793V45.5852V45.5911V45.5971V45.6031V45.6091V45.6152V45.6214V45.6275V45.6338V45.6401V45.6464V45.6527V45.6592V45.6656V45.6721V45.6787V45.6853V45.692V45.6987V45.7054V45.7122V45.7191V45.726V45.7329V45.7399V45.747V45.7541V45.7612V45.7684V45.7757V45.783V45.7903V45.7977V45.8052V45.8127V45.8202V45.8279V45.8355V45.8432V45.851V45.8588V45.8667V45.8746V45.8826V45.8907V45.8988V45.9002H62.8147H62.746H62.6764H62.6061H62.5351H62.4632H62.3906H62.3172H62.2431H62.1682H62.0926H62.0162H61.9391H61.8613H61.7827H61.7033H61.6233H61.5425H61.461H61.3788H61.2958H61.2122H61.1278H61.0427H60.957H60.8705H60.7833H60.6955H60.6069H60.5177H60.4278H60.3372H60.2459H60.1539H60.0613H59.9681H59.8741H59.7795H59.6843H59.5884H59.4918H59.3946H59.2968H59.1983H59.0992H58.9995H58.8991H58.7981H58.6965H58.5943H58.4915H58.388H58.2839H58.1793H58.074H57.9682H57.8617H57.7547H57.6471H57.5388H57.4301H57.3207H57.2108H57.1003H56.9892H56.8775H56.7654H56.6526H56.5393H56.4255H56.3111H56.1961H56.0807H55.9646H55.8481H55.731H55.6134H55.4953H55.3767H55.2575H55.1379H55.0177H54.897H54.7759H54.6542H54.532H54.4094H54.2863H54.1626H54.0385H53.9139H53.7889H53.6634H53.5374H53.4109H53.284H53.1566H53.0288H52.9005H52.7718H52.6427H52.5131H52.383H52.2525H52.1216H51.9903H51.8586H51.7264H51.5938H51.4608H51.3274H51.1936H51.0594H50.9248H50.7898H50.6544H50.5186H50.3825H50.2459H50.109H49.9717H49.834H49.696H49.5576H49.4188H49.2797H49.1403H49.0004H48.8603H48.7197H48.5789H48.4377H48.2962H48.1543H48.0122H47.8697H47.7268H47.5837H47.4402H47.2965H47.1524H47.008H46.8634H46.7184H46.5732H46.4276H46.2818H46.1357H45.9893H45.8426H45.6957H45.5485H45.401H45.2533H45.1053H44.957H44.8085H44.6598H44.5108H44.3616H44.2121H44.0624H43.9125H43.7623H43.6119H43.4613H43.3105H43.1595H43.0082H42.8568H42.7051H42.5533H42.4012H42.249H42.0966H41.9439H41.7911H41.6382H41.485H41.3317H41.1782H41.0245H40.8707H40.7167H40.5625H40.4082H40.2538H40.0992H39.9445H39.7896H39.6346H39.4795H39.3242H39.1688H39.0133H38.8577H38.702H38.5461H38.3901H38.2341H38.0779H37.9217H37.7653H37.6088H37.4523H37.2957H37.139H36.9822H36.8254H36.6685H36.5115H36.3544H36.1973H36.0402H35.8829H35.7257H35.5684H35.411H35.2536H35.0962H34.9387H34.7812H34.6237H34.4662H34.3086H34.151H33.9935H33.8359H33.6783H33.5207H33.3631H33.2055H33.0479H32.8903H32.7327H32.5752H32.4177H32.2602H32.1027H31.9453H31.7879H31.6306H31.4733H31.316H31.1588H31.0016H30.8445H30.6875H30.5305H30.3736H30.2167H30.0599H29.9033H29.7466H29.5901H29.4337H29.2773H29.1211H28.9649H28.8088H28.6529H28.497H28.3413H28.1857H28.0302H27.8748H27.7195H27.5644H27.4094H27.2545H27.0998H26.9452H26.7908H26.6365H26.4824H26.3284H26.1746H26.0209H25.8674H25.7141H25.5609H25.408H25.2552H25.1026H24.9501H24.7979H24.6459H24.494H24.3424H24.1909H24.0397H23.8887H23.7379H23.5873H23.4369H23.2867H23.1368H22.9871H22.8377H22.6885H22.5395H22.3907H22.2423H22.094H21.946H21.7983H21.6509H21.5037H21.3567H21.2101H21.0637H20.9176H20.7718H20.6263H20.481H20.3361H20.1914H20.0471H19.903H19.7593H19.6158H19.4727H19.3299H19.1874H19.0452H18.9034H18.7619H18.6207H18.4799H18.3394H18.1992H18.0594H17.9199H17.7808H17.6421H17.5037H17.3657H17.228H17.0908H16.9538H16.8173H16.6812H16.5454H16.41H16.275H16.1405H16.0063H15.8725H15.7391H15.6061H15.4735H15.3414H15.2097H15.0784H14.9475H14.817H14.687H14.5574H14.4283H14.2996H14.1713H14.0435H13.9162H13.7893H13.6628H13.5369H13.4114H13.2863H13.1618H13.0377H12.9141H12.791H12.6683H12.5462H12.4245H12.3034H12.1827H12.0626H11.9429H11.8238H11.7052H11.5871H11.4695H11.3525H11.236H11.12H11.0045H10.8896H10.7752H10.6614H10.5481H10.4354H10.3232H10.2116H10.1006H9.99011H9.8802H9.77086H9.66209H9.55391H9.44631H9.33929H9.23287H9.12703H9.0218H8.91716H8.81313H8.70971H8.60689H8.50469H8.40311H8.30215H8.20181H8.1021H8.00302H7.90457H7.80676H7.70959H7.61307H7.5172H7.42197H7.32741H7.23349H7.14025H7.04766H6.95575H6.8645H6.77394H6.68405H6.59484H6.50632H6.41849H6.33135H6.2449H6.15916H6.07411H5.98978H5.90615H5.82324H5.74104H5.65956H5.57881H5.49878H5.41948H5.34092H5.26309H5.186H5.10966H5.03406H4.95922H4.88513H4.81179H4.73922H4.66741H4.59637H4.52609H4.4566H4.38788H4.31994H4.25279H4.18642H4.12085H4.05607H3.99209H3.92892H3.86654H3.80498H3.74423H3.68429H3.62518H3.56688H3.50941H3.45277H3.39696H3.34199H3.28786H3.23457H3.18213H3.13054H3.0798H3.02991H2.98089H2.93273H2.88543H2.83901H2.79346H2.74879H2.705H2.66209H2.62007H2.57894H2.5387H2.49936H2.46092H2.42339H2.38677H2.35105H2.31625H2.28237H2.24941H2.21738H2.18627H2.15609H2.12685H2.09855H2.07119H2.04865Z" stroke="#C8C8C8" stroke-opacity="0.6" stroke-width="0.2"/>
</svg>
