<svg width="63" height="46" viewBox="0 0 63 46" fill="none" xmlns="http://www.w3.org/2000/svg">
<path d="M1.42326 0C1.42326 0 -3.57599 0 5.16447 0C28.2181 0 40.2414 44.0002 62.4245 44.0002C62.4245 45.5 62.4245 44.5 62.4245 46.0002C51.0254 46.0002 5.19795 46.0002 1.42326 46.0002V0Z" fill="white"  class="tab_corner_path"/>
<path d="M1.52326 45.9002V0.1H1.52424H1.54878H1.57355H1.59855H1.62378H1.64925H1.67496H1.70091H1.72709H1.75352H1.78018H1.80708H1.83423H1.86162H1.88925H1.91712H1.94524H1.97361H2.00222H2.03108H2.06019H2.08955H2.11915H2.14901H2.17912H2.20948H2.2401H2.27097H2.30209H2.33347H2.36511H2.39701H2.42916H2.46157H2.49424H2.52718H2.56037H2.59383H2.62755H2.66154H2.69579H2.7303H2.76509H2.80014H2.83545H2.87104H2.9069H2.94303H2.97943H3.0161H3.05305H3.09027H3.12777H3.16554H3.20359H3.24191H3.28052H3.3194H3.35857H3.39801H3.43774H3.47775H3.51804H3.55862H3.59948H3.64063H3.68207H3.72379H3.7658H3.8081H3.8507H3.89358H3.93675H3.98022H4.02398H4.06803H4.11238H4.15703H4.20197H4.24721H4.29275H4.33859H4.38473H4.43117H4.47791H4.52496H4.5723H4.61996H4.66791H4.71618H4.76475H4.81363H4.86282H4.91231H4.96212H5.01224H5.06267H5.11341H5.16447C10.8938 0.1 15.9452 2.83324 20.6518 6.9503C25.3592 11.0681 29.7109 16.5603 34.0424 22.062L34.2954 22.3833C38.539 27.774 42.7695 33.1482 47.2943 37.1997C51.8821 41.3076 56.7845 44.0671 62.3245 44.0999V44.1016V44.1097V44.1177V44.1257V44.1336V44.1415V44.1493V44.1571V44.1648V44.1725V44.1801V44.1876V44.1952V44.2026V44.21V44.2174V44.2247V44.2319V44.2391V44.2462V44.2533V44.2604V44.2674V44.2743V44.2812V44.2881V44.2949V44.3016V44.3083V44.315V44.3216V44.3281V44.3347V44.3411V44.3475V44.3539V44.3602V44.3665V44.3727V44.3789V44.3851V44.3911V44.3972V44.4032V44.4092V44.4151V44.4209V44.4268V44.4325V44.4383V44.444V44.4496V44.4552V44.4608V44.4663V44.4718V44.4772V44.4826V44.488V44.4933V44.4985V44.5038V44.5089V44.5141V44.5192V44.5243V44.5293V44.5343V44.5392V44.5441V44.549V44.5538V44.5586V44.5634V44.5681V44.5727V44.5774V44.582V44.5865V44.5911V44.5956V44.6V44.6044V44.6088V44.6131V44.6175V44.6217V44.626V44.6302V44.6343V44.6385V44.6426V44.6466V44.6507V44.6546V44.6586V44.6625V44.6664V44.6703V44.6741V44.6779V44.6817V44.6854V44.6891V44.6928V44.6964V44.7V44.7036V44.7072V44.7107V44.7142V44.7176V44.7211V44.7244V44.7278V44.7312V44.7345V44.7377V44.741V44.7442V44.7474V44.7506V44.7537V44.7568V44.7599V44.763V44.766V44.769V44.772V44.775V44.7779V44.7808V44.7837V44.7865V44.7894V44.7922V44.7949V44.7977V44.8004V44.8031V44.8058V44.8085V44.8111V44.8137V44.8163V44.8189V44.8215V44.824V44.8265V44.829V44.8314V44.8339V44.8363V44.8387V44.8411V44.8434V44.8458V44.8481V44.8504V44.8527V44.8549V44.8572V44.8594V44.8616V44.8638V44.866V44.8681V44.8703V44.8724V44.8745V44.8766V44.8786V44.8807V44.8827V44.8847V44.8867V44.8887V44.8907V44.8927V44.8946V44.8965V44.8985V44.9004V44.9022V44.9041V44.906V44.9078V44.9097V44.9115V44.9133V44.9151V44.9169V44.9186V44.9204V44.9222V44.9239V44.9256V44.9273V44.929V44.9307V44.9324V44.9341V44.9358V44.9374V44.9391V44.9407V44.9423V44.944V44.9456V44.9472V44.9488V44.9504V44.952V44.9535V44.9551V44.9567V44.9582V44.9598V44.9613V44.9628V44.9644V44.9659V44.9674V44.9689V44.9705V44.972V44.9735V44.975V44.9765V44.978V44.9794V44.9809V44.9824V44.9839V44.9854V44.9868V44.9883V44.9898V44.9912V44.9927V44.9942V44.9957V44.9971V44.9986V45V45.0015V45.003V45.0044V45.0059V45.0074V45.0088V45.0103V45.0118V45.0133V45.0147V45.0162V45.0177V45.0192V45.0207V45.0221V45.0236V45.0251V45.0266V45.0281V45.0296V45.0312V45.0327V45.0342V45.0357V45.0373V45.0388V45.0403V45.0419V45.0434V45.045V45.0466V45.0481V45.0497V45.0513V45.0529V45.0545V45.0561V45.0578V45.0594V45.061V45.0627V45.0643V45.066V45.0677V45.0694V45.0711V45.0728V45.0745V45.0762V45.0779V45.0797V45.0815V45.0832V45.085V45.0868V45.0886V45.0904V45.0923V45.0941V45.096V45.0979V45.0998V45.1017V45.1036V45.1055V45.1074V45.1094V45.1114V45.1134V45.1154V45.1174V45.1194V45.1215V45.1236V45.1256V45.1277V45.1299V45.132V45.1341V45.1363V45.1385V45.1407V45.1429V45.1452V45.1474V45.1497V45.152V45.1544V45.1567V45.1591V45.1614V45.1638V45.1663V45.1687V45.1712V45.1736V45.1762V45.1787V45.1812V45.1838V45.1864V45.189V45.1917V45.1943V45.197V45.1997V45.2024V45.2052V45.208V45.2108V45.2136V45.2165V45.2193V45.2223V45.2252V45.2281V45.2311V45.2341V45.2372V45.2402V45.2433V45.2464V45.2496V45.2527V45.2559V45.2592V45.2624V45.2657V45.269V45.2724V45.2757V45.2791V45.2825V45.286V45.2895V45.293V45.2966V45.3001V45.3037V45.3074V45.3111V45.3148V45.3185V45.3223V45.3261V45.3299V45.3338V45.3377V45.3416V45.3455V45.3495V45.3536V45.3576V45.3617V45.3659V45.37V45.3742V45.3785V45.3828V45.3871V45.3914V45.3958V45.4002V45.4047V45.4091V45.4137V45.4182V45.4228V45.4275V45.4321V45.4369V45.4416V45.4464V45.4512V45.4561V45.461V45.466V45.4709V45.476V45.481V45.4861V45.4913V45.4965V45.5017V45.507V45.5123V45.5176V45.523V45.5285V45.534V45.5395V45.545V45.5506V45.5563V45.562V45.5677V45.5735V45.5793V45.5852V45.5911V45.5971V45.6031V45.6091V45.6152V45.6214V45.6275V45.6338V45.6401V45.6464V45.6527V45.6592V45.6656V45.6721V45.6787V45.6853V45.692V45.6987V45.7054V45.7122V45.7191V45.726V45.7329V45.7399V45.747V45.7541V45.7612V45.7684V45.7757V45.783V45.7903V45.7977V45.8052V45.8127V45.8202V45.8279V45.8355V45.8432V45.851V45.8588V45.8667V45.8746V45.8826V45.8907V45.8988V45.9002H62.2893H62.2206H62.151H62.0807H62.0097H61.9378H61.8652H61.7919H61.7177H61.6429H61.5672H61.4909H61.4137H61.3359H61.2573H61.178H61.0979H61.0171H60.9356H60.8534H60.7704H60.6868H60.6024H60.5173H60.4316H60.3451H60.2579H60.1701H60.0815H59.9923H59.9024H59.8118H59.7205H59.6286H59.5359H59.4427H59.3487H59.2541H59.1589H59.063H58.9664H58.8692H58.7714H58.6729H58.5738H58.4741H58.3737H58.2727H58.1711H58.0689H57.9661H57.8626H57.7586H57.6539H57.5486H57.4428H57.3363H57.2293H57.1217H57.0135H56.9047H56.7953H56.6854H56.5749H56.4638H56.3522H56.24H56.1272H56.0139H55.9001H55.7857H55.6707H55.5553H55.4393H55.3227H55.2056H55.088H54.9699H54.8513H54.7322H54.6125H54.4923H54.3717H54.2505H54.1288H54.0067H53.884H53.7609H53.6372H53.5131H53.3885H53.2635H53.138H53.012H52.8855H52.7586H52.6312H52.5034H52.3751H52.2464H52.1173H51.9877H51.8576H51.7271H51.5963H51.4649H51.3332H51.201H51.0684H50.9354H50.802H50.6682H50.534H50.3994H50.2644H50.129H49.9933H49.8571H49.7205H49.5836H49.4463H49.3087H49.1706H49.0322H48.8935H48.7543H48.6149H48.475H48.3349H48.1944H48.0535H47.9123H47.7708H47.6289H47.4868H47.3443H47.2014H47.0583H46.9148H46.7711H46.627H46.4827H46.338H46.193H46.0478H45.9022H45.7564H45.6103H45.4639H45.3172H45.1703H45.0231H44.8756H44.7279H44.5799H44.4316H44.2832H44.1344H43.9854H43.8362H43.6867H43.537H43.3871H43.2369H43.0866H42.9359H42.7851H42.6341H42.4829H42.3314H42.1797H42.0279H41.8758H41.7236H41.5712H41.4185H41.2657H41.1128H40.9596H40.8063H40.6528H40.4991H40.3453H40.1913H40.0372H39.8829H39.7284H39.5738H39.4191H39.2642H39.1092H38.9541H38.7988H38.6434H38.4879H38.3323H38.1766H38.0207H37.8648H37.7087H37.5525H37.3963H37.2399H37.0835H36.9269H36.7703H36.6136H36.4568H36.3H36.1431H35.9861H35.829H35.6719H35.5148H35.3575H35.2003H35.043H34.8856H34.7282H34.5708H34.4133H34.2558H34.0983H33.9408H33.7832H33.6256H33.4681H33.3105H33.1529H32.9953H32.8377H32.6801H32.5225H32.3649H32.2074H32.0498H31.8923H31.7348H31.5774H31.4199H31.2625H31.1052H30.9479H30.7906H30.6334H30.4762H30.3191H30.1621H30.0051H29.8482H29.6913H29.5346H29.3779H29.2213H29.0647H28.9083H28.7519H28.5957H28.4395H28.2834H28.1275H27.9716H27.8159H27.6603H27.5048H27.3494H27.1941H27.039H26.884H26.7292H26.5744H26.4198H26.2654H26.1111H25.957H25.803H25.6492H25.4955H25.342H25.1887H25.0356H24.8826H24.7298H24.5772H24.4248H24.2725H24.1205H23.9686H23.817H23.6655H23.5143H23.3633H23.2125H23.0619H22.9115H22.7614H22.6114H22.4617H22.3123H22.1631H22.0141H21.8654H21.7169H21.5686H21.4207H21.2729H21.1255H20.9783H20.8314H20.6847H20.5383H20.3922H20.2464H20.1009H19.9556H19.8107H19.666H19.5217H19.3776H19.2339H19.0904H18.9473H18.8045H18.662H18.5198H18.378H18.2365H18.0953H17.9545H17.814H17.6738H17.534H17.3946H17.2554H17.1167H16.9783H16.8403H16.7026H16.5654H16.4285H16.2919H16.1558H16.02H15.8846H15.7496H15.6151H15.4809H15.3471H15.2137H15.0807H14.9482H14.816H14.6843H14.553H14.4221H14.2916H14.1616H14.032H13.9029H13.7742H13.6459H13.5181H13.3908H13.2639H13.1374H13.0115H12.886H12.7609H12.6364H12.5123H12.3887H12.2656H12.1429H12.0208H11.8991H11.778H11.6573H11.5372H11.4176H11.2984H11.1798H11.0617H10.9442H10.8271H10.7106H10.5946H10.4791H10.3642H10.2499H10.136H10.0228H9.91003H9.79786H9.68625H9.5752H9.46472H9.35481H9.24547H9.1367H9.02852H8.92092H8.8139H8.70748H8.60164H8.49641H8.39177H8.28774H8.18432H8.0815H7.9793H7.87772H7.77676H7.67642H7.57671H7.47763H7.37918H7.28137H7.1842H7.08768H6.99181H6.89658H6.80201H6.7081H6.61486H6.52227H6.43036H6.33911H6.24855H6.15866H6.06945H5.98093H5.8931H5.80596H5.71951H5.63377H5.54872H5.46439H5.38076H5.29785H5.21565H5.13417H5.05342H4.97339H4.89409H4.81553H4.7377H4.66061H4.58427H4.50867H4.43383H4.35973H4.2864H4.21383H4.14202H4.07097H4.0007H3.93121H3.86249H3.79455H3.7274H3.66103H3.59546H3.53068H3.4667H3.40353H3.34115H3.27959H3.21884H3.1589H3.09979H3.04149H2.98402H2.92738H2.87157H2.8166H2.76247H2.70918H2.65674H2.60515H2.5544H2.50452H2.4555H2.40734H2.36004H2.31362H2.26807H2.2234H2.17961H2.1367H2.09468H2.05355H2.01331H1.97397H1.93553H1.898H1.86138H1.82566H1.79086H1.75698H1.72402H1.69199H1.66088H1.6307H1.60146H1.57316H1.5458H1.52326Z" stroke="#D4D4D4" stroke-opacity="0.6" stroke-width="1"/>
</svg>
