<svg xmlns="http://www.w3.org/2000/svg" width="154" height="25" viewBox="0 0 154 25" fill="none" class="injected-svg" data-src="https://light-search.com:5555/static/engine/icons/bing.svg" xmlns:xlink="http://www.w3.org/1999/xlink">
<g clip-path="url(#clip0-9)">
<path d="M11.35 0H0V11.35H11.35V0Z" fill="#F26522"></path>
<path d="M23.8803 0H12.5303V11.35H23.8803V0Z" fill="#8DC63F"></path>
<path d="M11.35 12.53H0V23.88H11.35V12.53Z" fill="#00AEEF"></path>
<path d="M23.8803 12.53H12.5303V23.88H23.8803V12.53Z" fill="#FFC20E"></path>
<path d="M46.55 4.77005V19.1H44.07V7.87005H44.02L39.59 19.1H37.94L33.37 7.87005H33.34V19.1H31.04V4.77005H34.61L38.72 15.39H38.78L43.13 4.77005H46.55ZM48.63 5.87005C48.63 5.47005 48.78 5.13005 49.07 4.86005C49.36 4.59005 49.7 4.46005 50.1 4.46005C50.2892 4.45472 50.4775 4.48671 50.6542 4.5542C50.831 4.62169 50.9927 4.72334 51.1301 4.85336C51.2676 4.98338 51.3781 5.1392 51.4553 5.31194C51.5325 5.48467 51.5749 5.67092 51.58 5.86005C51.58 6.26005 51.44 6.59005 51.15 6.86005C50.87 7.12005 50.51 7.26005 50.1 7.26005C49.69 7.26005 49.34 7.12005 49.06 6.85005C48.77 6.58005 48.63 6.25005 48.63 5.86005V5.87005ZM51.3 8.83005V19.1H48.88V8.83005H51.3ZM58.64 17.34C58.99 17.34 59.39 17.26 59.82 17.1C60.26 16.93 60.66 16.71 61.02 16.44V18.68C60.64 18.9 60.2 19.08 59.72 19.18C59.1882 19.2978 58.6447 19.3548 58.1 19.35C57.4182 19.3785 56.7378 19.2662 56.1012 19.0202C55.4646 18.7742 54.8855 18.3997 54.4 17.92C53.9318 17.436 53.5663 16.8622 53.3257 16.2332C53.0851 15.6042 52.9743 14.933 53 14.26C53 12.61 53.48 11.25 54.45 10.18C55.41 9.11005 56.78 8.58005 58.55 8.58005C59.4102 8.58105 60.2586 8.77947 61.03 9.16005V11.47C60.6791 11.2112 60.2959 10.9994 59.89 10.84C59.5077 10.6898 59.1008 10.6118 58.69 10.61C57.74 10.61 56.97 10.92 56.39 11.54C55.81 12.16 55.5 13 55.5 14.05C55.5 15.09 55.79 15.9 56.35 16.48C56.91 17.06 57.68 17.34 58.65 17.34H58.64ZM67.91 8.66005C68.2194 8.65089 68.5278 8.69833 68.82 8.80005V11.25C68.3905 10.9765 67.8891 10.8372 67.38 10.85C66.78 10.85 66.28 11.11 65.88 11.61C65.48 12.11 65.26 12.88 65.26 13.91V19.11H62.84V8.82005H65.26V10.44H65.3C65.52 9.88005 65.86 9.44005 66.3 9.13005C66.75 8.81005 67.28 8.65005 67.9 8.65005L67.91 8.66005ZM68.95 14.12C68.95 12.42 69.43 11.07 70.39 10.08C71.35 9.09005 72.69 8.59005 74.39 8.59005C75.99 8.59005 77.24 9.07005 78.15 10.02C79.06 10.97 79.5 12.27 79.5 13.9C79.5 15.56 79.02 16.89 78.06 17.87C77.5443 18.3741 76.9297 18.7659 76.2551 19.0206C75.5804 19.2754 74.8602 19.3875 74.14 19.35C72.55 19.35 71.29 18.88 70.35 17.95C69.8692 17.4399 69.4971 16.8373 69.2565 16.1789C69.0158 15.5205 68.9115 14.82 68.95 14.12V14.12ZM71.47 14.04C71.47 15.11 71.71 15.93 72.2 16.5C72.69 17.07 73.38 17.34 74.29 17.34C75.16 17.34 75.83 17.06 76.29 16.5C76.75 15.94 76.99 15.09 76.99 13.98C76.99 12.88 76.75 12.04 76.27 11.48C76.0231 11.1958 75.7146 10.9716 75.3681 10.8243C75.0216 10.677 74.6461 10.6106 74.27 10.63C73.38 10.63 72.7 10.93 72.21 11.51C71.71 12.11 71.47 12.95 71.47 14.04V14.04ZM83.1 11.53C83.1 11.88 83.2 12.15 83.43 12.35C83.65 12.55 84.13 12.79 84.89 13.09C85.85 13.48 86.53 13.91 86.92 14.39C87.31 14.88 87.5 15.46 87.5 16.15C87.5 17.11 87.13 17.89 86.39 18.48C85.65 19.07 84.64 19.36 83.38 19.36C82.4424 19.3517 81.5153 19.1615 80.65 18.8V16.43C81.09 16.73 81.56 16.98 82.07 17.16C82.57 17.34 83.04 17.43 83.45 17.43C84 17.43 84.4 17.35 84.66 17.2C84.92 17.04 85.05 16.79 85.05 16.43C85.05 16.09 84.91 15.81 84.65 15.58C84.37 15.35 83.86 15.08 83.11 14.78C82.22 14.41 81.59 13.99 81.21 13.52C80.83 13.05 80.65 12.47 80.65 11.75C80.65 10.82 81.02 10.05 81.75 9.46005C82.5 8.86005 83.45 8.56005 84.62 8.56005C85.416 8.57431 86.2037 8.72307 86.95 9.00005V11.3C86.63 11.08 86.25 10.9 85.83 10.74C85.4232 10.5904 84.9935 10.5125 84.56 10.51C84.1 10.51 83.74 10.61 83.49 10.78C83.3641 10.8597 83.261 10.9707 83.1909 11.1022C83.1208 11.2337 83.086 11.3811 83.09 11.53H83.1ZM88.54 14.12C88.54 12.42 89.02 11.07 89.98 10.08C90.5071 9.56796 91.1348 9.17106 91.8234 8.91456C92.512 8.65805 93.2464 8.54754 93.98 8.59005C95.58 8.59005 96.84 9.07005 97.74 10.02C98.64 10.97 99.09 12.27 99.09 13.9C99.09 15.56 98.61 16.89 97.65 17.87C97.1355 18.3729 96.5225 18.7639 95.8497 19.0186C95.1768 19.2733 94.4586 19.3861 93.74 19.35C92.14 19.35 90.88 18.88 89.94 17.95C89.4592 17.4399 89.0871 16.8373 88.8465 16.1789C88.6058 15.5205 88.5015 14.82 88.54 14.12V14.12ZM91.06 14.04C91.06 15.11 91.3 15.93 91.79 16.5C92.28 17.07 92.97 17.34 93.89 17.34C94.76 17.34 95.43 17.06 95.89 16.5C96.35 15.94 96.59 15.09 96.59 13.98C96.59 12.88 96.34 12.04 95.87 11.48C95.6231 11.1958 95.3146 10.9716 94.9681 10.8243C94.6216 10.677 94.2461 10.6106 93.87 10.63C92.98 10.63 92.29 10.93 91.8 11.51C91.2594 12.2381 90.9969 13.1354 91.06 14.04V14.04ZM107.12 10.81H103.52V19.11H101.07V10.81H99.35V8.83005H101.07V7.40005C101.051 6.90529 101.136 6.41205 101.318 5.95184C101.501 5.49164 101.778 5.07458 102.131 4.72732C102.483 4.38005 102.905 4.11022 103.368 3.93506C103.831 3.7599 104.326 3.68326 104.82 3.71005C105.12 3.71005 105.38 3.73005 105.6 3.76005C105.83 3.79005 106.03 3.84005 106.2 3.90005V5.99005C105.86 5.8143 105.483 5.72176 105.1 5.72005C104.59 5.72005 104.2 5.88005 103.92 6.19005C103.65 6.51005 103.52 6.97005 103.52 7.59005V8.84005H107.12V6.53005L109.54 5.79005V8.84005H112V10.81H109.55V15.61C109.55 16.25 109.67 16.7 109.9 16.96C110.13 17.22 110.49 17.35 110.98 17.35C111.342 17.3171 111.691 17.2007 112 17.01V19.01C111.85 19.1 111.6 19.18 111.24 19.25C110.88 19.32 110.54 19.35 110.18 19.35C109.17 19.35 108.4 19.09 107.89 18.55C107.39 18 107.13 17.19 107.13 16.09V10.81H107.12Z" fill="#737373"></path>
<path d="M117.5 19.24V5.07001H122C123.37 5.07001 124.46 5.37001 125.26 5.97001C126.06 6.57001 126.46 7.35002 126.46 8.31002C126.46 9.11002 126.23 9.81001 125.78 10.41C125.299 11.0188 124.637 11.4598 123.89 11.67V11.71C124.87 11.82 125.64 12.18 126.22 12.8C126.81 13.4 127.1 14.2 127.1 15.17C127.1 16.38 126.62 17.37 125.67 18.11C124.72 18.85 123.51 19.24 122.05 19.24H117.5ZM119.85 6.96001V10.99H121.37C122.19 10.99 122.83 10.79 123.29 10.42C123.76 10.02 123.99 9.48001 123.99 8.78001C123.99 7.56001 123.18 6.96001 121.56 6.96001H119.85ZM119.85 12.88V17.36H121.85C122.73 17.36 123.41 17.16 123.88 16.76C124.36 16.35 124.6 15.79 124.6 15.08C124.6 13.61 123.59 12.88 121.55 12.88H119.85ZM129.97 7.00001C129.6 7.00001 129.27 6.87001 129.01 6.63001C128.74 6.39001 128.61 6.08001 128.61 5.70001C128.61 5.32001 128.74 5.01002 129.01 4.76002C129.28 4.51002 129.6 4.39001 129.98 4.39001C130.36 4.39001 130.69 4.51002 130.96 4.76002C131.23 5.01002 131.36 5.33001 131.36 5.70001C131.36 6.06001 131.23 6.36001 130.96 6.62001C130.69 6.87001 130.36 7.00001 129.97 7.00001V7.00001ZM131.11 19.24H128.82V9.12001H131.12L131.11 19.24ZM142.46 19.24H140.17V13.54C140.17 11.64 139.5 10.7 138.17 10.7C137.47 10.7 136.89 10.97 136.43 11.5C135.967 12.0497 135.725 12.7518 135.75 13.47V19.24H133.45V9.12001H135.75V10.8H135.79C136.103 10.2059 136.576 9.7112 137.156 9.3719C137.736 9.0326 138.399 8.86222 139.07 8.88001C140.17 8.88001 141.01 9.24001 141.59 9.96001C142.17 10.67 142.46 11.7 142.46 13.06V19.24ZM153.81 18.43C153.81 22.14 151.95 24 148.21 24C147.026 24.0271 145.85 23.8021 144.76 23.34V21.24C145.86 21.88 146.92 22.19 147.91 22.19C150.31 22.19 151.52 21.01 151.52 18.64V17.54H151.48C151.148 18.1495 150.651 18.6534 150.046 18.9946C149.442 19.3358 148.754 19.5005 148.06 19.47C147.494 19.4882 146.931 19.3769 146.415 19.1447C145.899 18.9125 145.442 18.5654 145.08 18.13C144.283 17.0932 143.882 15.806 143.95 14.5C143.95 12.78 144.35 11.42 145.17 10.4C145.99 9.38001 147.09 8.88001 148.51 8.88001C149.84 8.88001 150.83 9.43002 151.48 10.52H151.52V9.12001H153.82L153.81 18.43ZM151.54 14.61V13.29C151.54 12.58 151.3 11.97 150.83 11.47C150.609 11.2242 150.337 11.0291 150.033 10.8979C149.729 10.7667 149.401 10.7027 149.07 10.71C148.2 10.71 147.52 11.04 147.03 11.68C146.494 12.4708 146.234 13.4163 146.29 14.37C146.29 15.37 146.53 16.16 146.99 16.76C147.47 17.36 148.09 17.65 148.87 17.65C149.67 17.65 150.31 17.36 150.8 16.8C151.3 16.22 151.54 15.5 151.54 14.6V14.61Z" fill="#737373"></path>
</g>
<defs>
<clipPath id="clip0-9">
<rect width="153.82" height="24.0022" fill="white"></rect>
</clipPath>
</defs>
</svg>