<svg xmlns="http://www.w3.org/2000/svg" width="2500" height="788" viewBox="0 0 2500 788" fill="none" class="injected-svg" data-src="https://light-search.com:5555/static/engine/icons/duckduckgo.svg" xmlns:xlink="http://www.w3.org/1999/xlink">
<g clip-path="url(#clip0-10)">
<path d="M17.4863 389.979C17.4863 182.837 185.378 14.9568 392.531 14.9568C599.651 14.9568 767.599 182.837 767.599 389.979C767.599 597.099 599.651 765.024 392.531 765.024C185.378 765.024 17.4863 597.099 17.4863 389.979" fill="#EC2027"></path>
<path d="M459.671 758.5C442.422 724.762 425.655 693.428 415.496 673.111C389.959 621.987 364.364 549.93 375.99 503.427C378.079 494.98 353.838 430.536 360.833 425.993C415.057 390.588 429.377 429.844 451.111 413.982C462.318 405.777 477.441 420.725 481.358 407.153C495.295 358.36 461.978 273.332 424.812 236.156C412.693 224.028 394.071 216.434 373.053 212.38C365.002 201.338 351.979 190.734 333.547 180.944C312.946 170 268.28 155.546 245.084 151.698C229.035 149.065 225.43 153.557 218.578 154.689C224.958 155.244 255.292 170.237 261.219 171.116C255.292 175.097 237.934 170.928 226.882 175.895C221.293 178.41 217.126 188 217.148 192.525C248.826 189.334 298.231 192.436 327.399 205.423C304.171 208.056 268.866 210.992 253.676 218.995C209.529 242.264 190.06 296.584 201.653 361.67C213.313 426.72 264.432 663.795 280.701 742.811C402.5 769.5 324 746.607 459.671 758.5Z" fill="#CCCDCE"></path>
<path d="M480.371 769C459.695 727.679 437.917 687.315 425.692 662.883C400.13 611.759 374.57 539.693 386.186 493.232C388.319 484.795 388.364 450.236 395.368 445.649C449.602 410.243 445.754 444.471 467.486 428.6C478.694 420.427 487.656 410.53 491.551 396.938C505.52 348.13 472.206 263.117 435.018 225.918C422.909 213.813 404.299 206.198 383.303 202.182C375.198 191.104 362.174 180.501 343.74 170.708C308.995 152.236 265.915 144.878 226.011 152.12C232.4 152.715 246.996 165.897 252.892 166.776C243.983 172.803 220.315 172.027 220.456 185.431C252.153 182.275 286.878 187.291 316.091 200.258C292.863 202.891 271.249 208.628 256.048 216.636C211.888 239.865 200.263 286.349 211.888 351.45C223.504 416.541 274.658 653.584 290.904 732.603C395.368 785.5 318 753.5 480.371 769Z" fill="white"></path>
<path d="M263.088 354.678C263.088 341.21 274.019 330.265 287.526 330.265C301.001 330.265 311.901 341.21 311.901 354.678C311.901 368.191 301.001 379.095 287.526 379.095C274.019 379.095 263.088 368.188 263.088 354.678Z" fill="#0071BC"></path>
<path d="M292.016 346.542C292.016 344.86 292.684 343.247 293.873 342.058C295.062 340.869 296.675 340.201 298.357 340.201C300.038 340.201 301.651 340.869 302.841 342.058C304.03 343.247 304.698 344.86 304.698 346.542C304.692 348.226 304.02 349.838 302.829 351.028C301.638 352.217 300.024 352.887 298.341 352.89C296.661 352.884 295.052 352.213 293.867 351.023C292.681 349.833 292.016 348.222 292.016 346.542Z" fill="white"></path>
<path d="M429.695 340.19C429.695 328.64 439.1 319.238 450.669 319.238C462.262 319.238 471.632 328.643 471.632 340.19C471.632 351.81 462.262 361.198 450.669 361.198C439.1 361.198 429.695 351.81 429.695 340.19Z" fill="#0071BC"></path>
<path d="M454.553 333.239C454.553 330.231 456.995 327.801 459.986 327.801C460.7 327.799 461.408 327.938 462.068 328.211C462.727 328.484 463.327 328.885 463.831 329.39C464.335 329.896 464.734 330.496 465.005 331.157C465.276 331.818 465.414 332.525 465.41 333.239C465.413 333.952 465.275 334.658 465.003 335.317C464.731 335.976 464.332 336.575 463.828 337.079C463.323 337.582 462.724 337.981 462.065 338.252C461.405 338.522 460.699 338.66 459.986 338.656C456.995 338.656 454.553 336.243 454.553 333.239Z" fill="white"></path>
<path d="M294.445 283.935C294.445 283.935 276.042 275.627 258.181 286.857C240.319 298.088 240.957 309.58 240.957 309.58C240.957 309.58 231.465 288.408 256.795 278.062C282.115 267.664 294.445 283.935 294.445 283.935V283.935ZM463.296 282.281C463.296 282.281 450.075 274.718 439.826 274.834C418.741 275.12 412.977 284.442 412.977 284.442C412.977 284.442 416.528 262.24 443.508 266.678C458.095 269.109 463.296 282.281 463.296 282.281" fill="#188DCD"></path>
<path d="M27.9043 392.874C27.9043 189.865 192.429 25.3521 395.403 25.3521C598.378 25.3521 762.97 189.865 762.97 392.874C762.97 595.837 598.401 760.418 395.415 760.418C192.429 760.418 27.9043 595.837 27.9043 392.874Z" stroke="white" stroke-width="51.1384"></path>
<path d="M357.392 448.421C359.859 433.464 398.512 405.15 425.88 403.438C453.305 401.726 461.853 402.109 484.727 396.647C507.59 391.162 566.584 376.487 582.903 368.941C599.234 361.395 668.443 372.691 619.653 399.879C598.525 411.705 541.626 433.408 500.99 445.526C460.366 457.679 435.757 433.926 422.242 453.895C411.52 469.775 420.057 491.512 468.577 496.028C534.114 502.11 596.97 466.531 603.874 485.419C610.835 504.306 547.55 527.924 509.021 528.678C470.525 529.41 392.903 503.225 381.303 495.138C369.702 487.029 354.16 468.142 357.392 448.421" fill="#FDD204"></path>
<path d="M378.509 634.077C378.509 634.077 289.244 586.462 287.76 605.777C286.253 625.123 287.76 703.977 298.165 709.949C308.592 715.899 382.987 671.276 382.987 671.276L378.509 634.077V634.077Z" fill="url(#paint0_linear-11)"></path>
<path d="M412.728 631.074C412.728 631.074 473.749 584.944 487.132 587.925C500.528 590.916 503.497 686.125 491.576 690.633C479.676 695.066 409.855 666.457 409.855 666.457L412.728 631.074V631.074Z" fill="url(#paint1_linear-12)"></path>
<path d="M360.66 634.077C360.66 665.291 356.207 678.71 369.591 681.679C382.987 684.66 408.263 681.679 417.203 675.729C426.124 669.767 418.678 629.621 415.709 622.142C412.728 614.728 360.66 620.69 360.66 634.077Z" fill="url(#paint2_linear-13)"></path>
<path d="M19.0293 393.989C19.0293 186.869 186.944 18.9436 394.041 18.9436C601.137 18.9436 769.086 186.847 769.086 393.989C769.086 601.108 601.149 769.034 394.041 769.034C186.932 769.034 19.0293 601.131 19.0293 393.977V393.989Z" stroke="#EC2027" stroke-width="38.2743"></path>
<path d="M1035.97 426.346C1035.97 447.497 1038.09 463.367 1042.34 473.875C1046.61 484.416 1053.04 492.627 1061.69 498.506C1070.33 504.385 1081.08 507.324 1093.98 507.324C1106.88 507.324 1117.6 504.396 1126.15 498.506C1134.71 492.627 1141.1 484.484 1145.36 474.088C1149.62 463.682 1151.75 448.241 1151.75 427.709V354.671H1134.3V424.206C1134.3 442.823 1133.46 455.01 1131.75 460.742C1129.46 468.809 1124.66 475.936 1118.05 481.094C1111.43 486.252 1103.37 488.82 1093.88 488.82C1084.38 488.82 1076.21 486.173 1069.35 480.869C1062.49 475.564 1057.85 468.39 1055.41 459.244C1053.77 452.858 1052.97 441.179 1052.97 424.218V354.671H1035.99V426.358H1035.97V426.346ZM1303.43 367.06C1297.77 362.228 1290.85 358.32 1282.71 355.313C1274.59 352.311 1266.01 350.786 1257.36 350.808C1243.41 350.808 1230.81 354.266 1219.55 361.203C1208.27 368.13 1199.42 377.782 1192.97 390.126C1186.51 402.47 1183.3 415.872 1183.3 430.277C1183.3 451.71 1190.2 469.921 1203.97 484.878C1217.76 499.824 1235.1 507.302 1256.03 507.302C1269.64 507.302 1281.78 504.362 1292.44 498.461C1303.02 492.639 1311.83 484.052 1317.91 473.615L1304.41 463.626C1292.1 481.026 1276.24 489.71 1256.81 489.71C1246.21 489.71 1236.63 487.074 1228.09 481.781C1219.56 476.487 1212.83 469.065 1207.93 459.481C1203.07 450.014 1200.55 439.514 1200.6 428.869C1200.6 412.2 1205.92 398.01 1216.56 386.341C1227.22 374.685 1240.59 368.851 1256.7 368.851C1276.86 368.851 1292.76 377.557 1304.41 394.935L1317.91 385.508C1313.93 378.052 1309.11 371.892 1303.43 367.06V367.06ZM1350.38 503.461H1367.36V436.64L1433.72 503.461H1457.98L1380.98 425.671L1453.65 354.648H1428.72L1367.36 414.599V297.232H1350.4V503.45L1350.38 503.461ZM1561.99 503.461C1584.29 503.461 1601.61 499.824 1613.96 492.525C1626.33 485.238 1636.39 473.931 1644.12 458.625C1651.86 443.308 1655.75 425.58 1655.75 405.443C1655.75 382.096 1650.86 361.992 1641.09 345.132C1631.33 328.26 1617.75 316.423 1600.41 309.587C1588.33 304.744 1568.92 302.334 1542.18 302.334H1505.08V503.45H1561.99V503.461ZM1522.22 322.1H1534.87C1560.58 322.1 1579.04 324.014 1590.23 327.843C1605.13 332.934 1616.79 342.361 1625.15 356.113C1633.48 369.853 1637.67 386.432 1637.67 405.815C1637.67 424.308 1633.81 439.94 1626.12 452.735C1618.41 465.529 1607.84 474.381 1594.36 479.292C1584.78 482.761 1567.63 484.484 1542.9 484.484H1522.22V322.1V322.1ZM1685.39 426.346C1685.39 447.497 1687.53 463.367 1691.78 473.875C1696.05 484.416 1702.48 492.627 1711.1 498.506C1719.74 504.385 1730.5 507.324 1743.39 507.324C1756.28 507.324 1767.01 504.396 1775.57 498.506C1784.11 492.627 1790.52 484.484 1794.78 474.088C1799.04 463.682 1801.16 448.241 1801.16 427.709V354.671H1783.71V424.206C1783.71 442.823 1782.86 455.01 1781.17 460.742C1778.88 468.811 1774.08 475.939 1767.46 481.094C1760.84 486.252 1752.79 488.82 1743.3 488.82C1733.8 488.82 1725.62 486.173 1718.75 480.869C1711.9 475.575 1707.26 468.39 1704.82 459.244C1703.2 452.858 1702.39 441.179 1702.39 424.218V354.671H1685.4V426.358L1685.39 426.346ZM1952.86 367.06C1947.18 362.228 1940.27 358.32 1932.13 355.313C1924.02 352.311 1915.43 350.786 1906.78 350.808C1892.85 350.808 1880.23 354.266 1868.96 361.203C1857.69 368.13 1848.83 377.782 1842.38 390.126C1835.94 402.522 1832.62 416.306 1832.73 430.277C1832.73 451.71 1839.61 469.921 1853.38 484.878C1867.17 499.824 1884.51 507.302 1905.42 507.302C1919.04 507.302 1931.19 504.362 1941.83 498.461C1952.42 492.644 1961.24 484.056 1967.33 473.615L1953.81 463.626C1941.51 481.026 1925.66 489.71 1906.22 489.71C1895.62 489.71 1886.06 487.074 1877.5 481.781C1868.97 476.487 1862.25 469.065 1857.34 459.481C1852.47 450.015 1849.95 439.515 1849.99 428.869C1849.99 412.2 1855.32 398.01 1865.95 386.341C1876.61 374.685 1889.98 368.851 1906.09 368.851C1926.25 368.851 1942.17 377.557 1953.81 394.935L1967.32 385.508C1963.35 378.052 1958.53 371.892 1952.86 367.06V367.06Z" fill="black" stroke="black" stroke-width="6.92073"></path>
<path d="M2376.79 375.845C2364.63 390.982 2358.52 408.855 2358.52 429.477C2358.52 450.257 2364.94 468.446 2377.83 483.988C2390.7 499.553 2407.28 507.324 2427.59 507.324C2447.8 507.324 2464.36 499.553 2477.23 484C2490.09 468.446 2496.52 450.268 2496.52 429.477C2496.52 408.754 2490.44 390.835 2478.26 375.698C2464.85 359.097 2447.96 350.808 2427.57 350.808C2407.12 350.808 2390.18 359.142 2376.79 375.833V375.845ZM2463.93 387.141C2474.12 398.911 2479.22 413.146 2479.22 429.849C2479.31 440.294 2476.93 450.612 2472.28 459.965C2467.66 469.279 2461.38 476.465 2453.5 481.533C2445.77 486.546 2436.73 489.185 2427.52 489.124C2418.31 489.184 2409.28 486.545 2401.55 481.533C2393.66 476.465 2387.4 469.279 2382.76 459.965C2378.12 450.609 2375.73 440.294 2375.8 429.849C2375.8 413.158 2380.88 398.911 2391.04 387.141C2401.2 375.372 2413.36 369.481 2427.51 369.481C2441.61 369.481 2453.73 375.372 2463.93 387.141V387.141Z" fill="#009900" stroke="#009900" stroke-width="6.92073"></path>
<path d="M1999.81 503.461H2016.79V436.64L2083.14 503.461H2107.4L2030.41 425.671L2103.08 354.648H2078.14L2016.79 414.599V297.232H1999.81V503.45V503.461Z" fill="black" stroke="black" stroke-width="6.92073"></path>
<path d="M2283.98 306.467C2270.56 300.305 2255.96 297.153 2241.2 297.232C2222.48 297.232 2205.71 301.872 2190.88 311.118C2176.05 320.365 2164.38 333.204 2155.88 349.614C2147.36 366.024 2143.12 383.762 2143.12 402.83C2143.12 428.441 2150.53 451.011 2165.37 470.518C2184.65 495.87 2210.84 508.541 2243.89 508.541C2271.11 508.541 2292.87 499.396 2309.11 481.105C2325.37 462.803 2333.55 438.082 2333.73 406.986H2256.7V426.425H2313.69C2311.32 445.053 2303.79 460.19 2291.05 471.87C2278.32 483.572 2262.76 489.406 2244.35 489.406C2229.59 489.515 2215.09 485.455 2202.53 477.693C2189.79 469.91 2179.82 459.177 2172.61 445.549C2165.49 432.275 2161.78 417.442 2161.8 402.379C2161.8 387.592 2165.27 373.57 2172.24 360.302C2178.98 347.28 2189.18 336.369 2201.71 328.767C2214.4 321.018 2227.75 317.133 2241.78 317.133C2253.04 317.133 2264.6 319.982 2276.49 325.692C2288.36 331.38 2299.28 339.748 2309.25 350.785L2323.1 336.02C2310.38 322.471 2297.33 312.605 2283.98 306.456V306.467Z" fill="#009900" stroke="#009900" stroke-width="6.92073"></path>
<path d="M912.551 503.461C934.851 503.461 952.172 499.823 964.55 492.525C976.905 485.238 986.963 473.931 994.7 458.625C1002.44 443.308 1006.3 425.58 1006.3 405.443C1006.3 382.095 1001.42 361.992 991.659 345.131C981.894 328.26 968.334 316.423 950.99 309.587C938.905 304.744 919.5 302.333 892.751 302.333H855.641V503.45H912.551V503.461ZM872.782 322.099H885.441C911.143 322.099 929.602 324.014 940.797 327.843C955.72 332.934 967.354 342.361 975.711 356.112C984.068 369.853 988.235 386.431 988.235 405.814C988.235 424.308 984.384 439.94 976.68 452.734C968.988 465.529 958.389 474.381 944.931 479.292C935.357 482.761 918.204 484.484 893.46 484.484H872.782V322.099V322.099Z" fill="black" stroke="black" stroke-width="6.92073"></path>
</g>
<defs>
<linearGradient id="paint0_linear-11" x1="286.691" y1="655.688" x2="307.681" y2="655.688" gradientUnits="userSpaceOnUse">
<stop stop-color="#B4D66F"></stop>
<stop offset="0.691" stop-color="#0DB14B"></stop>
<stop offset="1" stop-color="#0DB14B"></stop>
</linearGradient>
<linearGradient id="paint1_linear-12" x1="409.177" y1="639.048" x2="428.735" y2="639.048" gradientUnits="userSpaceOnUse">
<stop stop-color="#B4D66F"></stop>
<stop offset="0.691" stop-color="#0DB14B"></stop>
<stop offset="1" stop-color="#0DB14B"></stop>
</linearGradient>
<linearGradient id="paint2_linear-13" x1="359.63" y1="650.832" x2="373.115" y2="650.832" gradientUnits="userSpaceOnUse">
<stop stop-color="#73C063"></stop>
<stop offset="1" stop-color="#0DB14B"></stop>
</linearGradient>
<clipPath id="clip0-10">
<rect width="2500" height="788" fill="white"></rect>
</clipPath>
</defs>
</svg>