<svg xmlns="http://www.w3.org/2000/svg" width="1236" height="303" viewBox="0 0 1236 303" fill="none" class="injected-svg" data-src="https://light-search.com:5555/static/engine/icons/startpage.svg" xmlns:xlink="http://www.w3.org/1999/xlink">
<path fill-rule="evenodd" clip-rule="evenodd" d="M1177.07 136.997C1173.23 136.986 1169.4 136.371 1165.75 135.207L1166.05 145.908C1173.05 148.679 1180.54 150.11 1188.08 150.11C1188.28 150.11 1188.5 150.11 1188.7 150.11C1216.67 150.11 1235.42 134.032 1235.42 110.838C1235.42 88.5143 1216.67 69.0073 1184.8 69.0073C1141.05 69.0073 1113.95 104.848 1113.95 147.7C1113.95 189.38 1139.56 214.927 1178.24 214.927C1208.32 214.927 1227.68 200.694 1234.6 192.348L1231.63 181.339C1222.08 188.176 1210.64 191.924 1198.89 192.042C1176.55 192.042 1154.52 181.339 1154.52 138.793C1154.52 102.952 1165.84 82.474 1182.24 82.474C1193.26 82.474 1201.3 90.5119 1201.3 107.152C1201.3 127.377 1191.77 136.899 1177.17 136.899L1177.07 136.997ZM964.807 201.974L961.222 193.933C959.765 195.437 957.755 196.29 955.658 196.29C955.582 196.29 955.504 196.287 955.431 196.284C950.307 196.284 946.823 193.622 946.823 186.507V106.484C946.823 80.886 928.637 68.8025 897.692 68.8025C861.059 68.8025 831.907 85.9557 831.907 105C831.907 114.78 839.644 120.36 849.737 120.36C851.884 120.332 854.035 120.105 856.14 119.692C862.651 118.337 867.314 112.6 867.314 105.959C867.314 105.931 867.314 105.898 867.314 105.869L867.311 99.9301C867.311 88.9211 872.078 83.2399 885.755 83.2399C898.001 83.2399 907.784 88.6153 907.784 106.484V123.124C907.784 127.887 906.302 129.063 901.535 130.241L862.238 141.865C839.644 148.724 828.016 160.603 828.016 179.036C828.016 198.697 843.387 214.877 867.617 214.877C889.034 214.877 902.147 205.354 908.604 196.699C910.704 205.61 917.52 215.132 934.221 215.132C935.204 215.208 936.192 215.252 937.177 215.252C947.946 215.252 958.154 210.407 964.962 202.069L964.807 201.974ZM756.957 68.5949C756.808 68.5949 756.653 68.5949 756.507 68.5949C741.322 68.5949 726.679 74.3463 715.562 84.6735L716.435 68.5949H706.186C698.142 74.8428 679.954 79.9125 657.669 79.9125V91.7884H666.579C674.316 91.7884 676.829 94.1956 676.829 101.313V255.577C676.829 268.07 674.729 272.525 662.534 272.525H657.411V284.146H738.667V272.371H730.93C719.046 272.371 716.073 267.251 716.073 255.119V106.074C716.073 93.8898 724.986 87.0274 738.667 87.0274C757.161 87.0274 774.118 101.619 774.118 143.86C774.118 182.823 758.287 200.692 739.383 202.176C736.41 202.431 734.004 202.484 731.39 202.484V212.725C734.837 213.117 738.33 213.336 741.808 213.336C741.85 213.336 741.906 213.336 741.951 213.336C784.833 213.336 815.212 183.895 815.212 135.409C815.212 94.4481 790.21 68.4883 757.167 68.4883L756.957 68.5949ZM622.776 192.449C613.248 192.449 605.82 187.326 605.82 176.37V93.1715H644.502V78.8352H605.82V37.1586H592.089C590.604 54.7214 572.466 80.6251 547.722 81.8567V93.1715H566.781V182.004C566.781 198.08 577.028 215.028 606.075 215.028C606.516 215.039 606.985 215.045 607.431 215.045C626.563 215.045 643.989 204.033 652.189 186.762L644.761 180.823C639.724 187.862 631.687 192.166 623.035 192.449H622.776ZM435.11 104.13V183.336C435.11 195.83 433.011 200.588 421.071 200.588H415.95V212.469H496.897V200.692H490.749C478.557 200.692 474.099 195.931 474.099 183.437V108.532C480.598 102.893 487.602 97.7586 494.893 93.1828C496.019 103.83 505.016 111.932 515.743 111.932C516.052 111.932 516.369 111.924 516.675 111.91C528.373 111.831 537.848 102.402 537.989 90.7167C537.989 79.1438 529.637 69.0073 514.165 69.0073C502.846 69.0073 485.887 77.048 473.692 93.9936V93.1715C473.692 81.8567 465.649 70.2361 446.281 70.2361C434.9 70.4662 423.603 72.6882 412.98 76.7843V87.7933C415.518 87.2378 418.118 86.9376 420.717 86.9236C430.964 86.9236 435.321 93.7326 435.321 104.178L435.11 104.13ZM38.7235 148.365C39.3411 145.038 39.5433 137.87 36.4692 135.516C34.8578 134.113 32.8899 133.173 30.7843 132.8C6.34633 129.526 -10.6101 172.838 7.73036 191.683C19.4117 203.713 35.2929 213.286 64.7028 215.028C115.934 218.1 145.65 188.353 147.699 154.201C149.645 122.459 126.13 106.995 94.0087 89.8947L72.2854 79.2953C53.7934 69.055 44.2119 60.6075 44.8772 43.9677C46.5673 21.3886 65.3681 9.97279 85.8646 12.1218C104.205 14.0661 105.488 24.6655 104.924 38.5923L104.149 52.2104C104.132 52.4545 104.121 52.7014 104.121 52.9483C104.121 57.9786 108.04 62.1421 113.065 62.4507C125.566 63.2194 140.527 57.3306 141.498 41.2042C142.573 22.8222 131.813 2.85509 87.243 0.243122C39.0829 -2.87946 9.41758 24.5645 7.62648 54.5166C6.08806 79.7582 18.8447 96.0388 48.305 111.809L71.4629 123.382C94.0031 135.771 107.324 145.857 105.889 167.261C104.455 188.661 94.0031 204.841 67.3613 202.078C40.7195 199.314 38.0582 175.708 37.4939 166.851C37.4602 166.099 37.4378 165.325 37.4378 164.57C37.4378 163.813 37.4602 163.038 37.4911 162.289C37.6006 157.635 38.0582 152.958 38.8246 148.371L38.7235 148.365ZM1060.56 186.56L1019.22 185.946C1009.38 185.637 1003.13 182.054 1003.13 172.838C1003.44 169.267 1004.79 165.866 1007.02 163.058C1015.46 165.805 1024.31 167.213 1033.19 167.213C1033.58 167.213 1034 167.205 1034.38 167.205C1074.86 167.205 1097.81 144.881 1097.81 118.102C1097.68 102.421 1089.31 87.9504 1075.78 80.0107L1073.11 78.476C1071.64 77.5642 1070.09 76.7338 1068.5 76.0184L1066.25 74.9943C1062.33 73.4008 1058.25 72.1607 1054.11 71.305L1052.42 70.9992C1056 65.2647 1070.45 38.0255 1085.57 32.8044C1091.05 30.9078 1094.84 33.4188 1100.94 38.741C1104.93 42.3236 1108.26 48.0582 1117.79 48.0582C1127.32 48.0582 1139.16 38.177 1139.16 27.5805C1139.16 16.9811 1136.44 3.10479 1112.46 3.10479C1079.01 3.10479 1057.44 37.7169 1045.25 61.5249C1045.25 61.5249 1042.33 67.6185 1041.61 69.4113C1039.3 69.4113 1037 69.156 1034.59 69.156C994.425 69.156 971.469 91.7856 971.469 117.95C971.466 117.953 971.466 117.964 971.466 117.964C971.466 135.468 981.562 151.415 997.389 158.911C989.346 166.385 976.899 176.525 976.899 187.48C976.89 187.75 976.884 188.025 976.884 188.297C976.884 196.868 981.081 204.906 988.12 209.804C992.294 212.688 996.971 214.809 1001.9 216.049C1008.44 217.64 1015.12 218.672 1021.83 219.124L1045.04 219.994C1063.23 220.611 1075.42 225.369 1075.42 240.834C1075.42 258.957 1054.93 269.711 1026.59 269.711C1003.69 269.711 986.43 261.059 986.43 244.725C986.477 236.269 991.188 228.531 998.672 224.601C992.319 222.351 986.632 220.098 981.817 218.765C967.471 225.369 961.323 234.894 961.323 246.464C961.323 266.126 982.432 282.305 1020.86 282.305C1076.49 282.305 1108.67 253.733 1108.67 223.989C1108.67 197.774 1088.69 186.765 1060.41 186.51L1060.56 186.56ZM341.766 130.241L302.314 141.865C279.67 148.724 268.093 160.603 268.093 179.036C268.093 198.697 283.463 214.877 307.645 214.877C329.11 214.877 342.176 205.354 348.633 196.699C350.733 205.61 357.597 215.132 374.556 215.132C388.233 215.132 397.61 211.291 405.294 202.075L401.709 194.037C400.254 195.541 398.244 196.391 396.147 196.391C396.071 196.391 395.996 196.391 395.92 196.388C390.796 196.388 387.315 193.725 387.315 186.608L387.312 106.484C387.312 80.886 369.124 68.8025 338.178 68.8025C301.548 68.8025 272.393 85.9557 272.393 105C272.393 114.78 280.131 120.36 290.276 120.36C292.421 120.327 294.577 120.096 296.683 119.692C302.991 118.18 307.443 112.535 307.443 106.052C307.443 106.027 307.443 105.999 307.443 105.97L307.438 99.9301C307.438 88.9211 312.205 83.2399 325.932 83.2399C338.125 83.2399 347.962 88.6153 347.962 106.484V123.124C347.962 127.887 346.477 129.063 341.713 130.241H341.766ZM907.939 175.86C907.939 187.789 900.511 194.037 889.186 194.037C876.685 194.037 867.771 186.869 867.771 173.559C867.771 161.936 874.329 152.717 888.262 146.777L907.885 139.048L907.939 175.86ZM171.059 182.004C171.059 198.08 181.306 215.028 210.354 215.028C210.769 215.031 211.218 215.042 211.642 215.042C230.791 215.042 248.233 204.039 256.462 186.762L248.983 180.823C243.963 187.873 235.918 192.18 227.26 192.446C217.732 192.446 210.303 187.326 210.303 176.367V93.1715H248.983V78.8885H210.096V37.1586H196.368C194.882 54.6681 176.694 80.6251 152 81.8567V93.1715H171.059V182.004ZM1034.54 81.189C1052.67 81.189 1058.36 95.7302 1058.36 118.054C1058.36 140.378 1052.67 155.275 1034.54 155.275C1016.4 155.275 1011.02 140.684 1011.02 118.054C1011.02 95.4244 1016.4 81.189 1034.54 81.189ZM347.965 175.759C347.965 187.688 340.486 193.933 329.214 193.933C316.663 193.933 307.746 186.765 307.746 173.455C307.746 161.832 314.304 152.616 328.24 146.676L347.911 138.944L347.965 175.759Z" fill="#374677"></path>
<path fill-rule="evenodd" clip-rule="evenodd" d="M615.912 274.777C573.9 269.657 503.2 261.72 432.449 257.624C368.408 253.988 308.364 252.86 280.748 252.86C123.668 252.86 118.444 256.701 25.7647 266.481C-5.94994 269.809 -5.69166 306.674 29.5546 302.679C82.0156 296.793 155.33 289.268 218.04 285.122C269.886 281.741 348.425 277.493 434.599 277.493C510.322 277.493 577.283 278.977 615.143 281.741C615.418 281.805 615.702 281.839 615.982 281.839C617.905 281.839 619.466 280.279 619.466 278.357C619.466 276.438 617.905 274.878 615.982 274.878C615.96 274.878 615.935 274.878 615.915 274.878L615.912 274.777V274.777Z" fill="#6573FF"></path>
</svg>