<svg width="15" height="13" viewBox="0 0 15 13" fill="none" xmlns="http://www.w3.org/2000/svg">
<path d="M12 3.01837C12 3.00822 11.9918 3 11.9816 3H3.01837C3.00822 3 3 3.00822 3 3.01837V3.01837C3 3.02851 3.00822 3.03673 3.01837 3.03673H11.9816C11.9918 3.03673 12 3.02851 12 3.01837V3.01837Z" stroke="#E1DBDB" stroke-width="0.7"/>
<path d="M12 5.05938C12 5.04924 11.9918 5.04102 11.9816 5.04102H3.01837C3.00822 5.04102 3 5.04924 3 5.05938V5.05938C3 5.06953 3.00822 5.07775 3.01837 5.07775H11.9816C11.9918 5.07775 12 5.06953 12 5.05938V5.05938Z" stroke="#E1DBDB" stroke-width="0.7"/>
<path d="M12 7.1411C12 7.13113 11.9919 7.12305 11.9819 7.12305H5.51806C5.50808 7.12305 5.5 7.13113 5.5 7.1411V7.1411C5.5 7.15107 5.50808 7.15916 5.51806 7.15916H11.9819C11.9919 7.15916 12 7.15107 12 7.1411V7.1411Z" stroke="#E1DBDB" stroke-width="0.7"/>
<path d="M2.64107 9.66142H14.55V0.45H0.45V11.5472L2.14469 9.85835L2.14468 9.85834L2.14777 9.85532C2.21434 9.79024 2.29353 9.7395 2.38047 9.70622C2.46362 9.6744 2.55215 9.65919 2.64107 9.66142Z" stroke="#E1DBDB" stroke-width="0.9"/>
</svg>
