<svg width="15" height="15" viewBox="0 0 15 15" fill="none" xmlns="http://www.w3.org/2000/svg">
<path d="M14.1211 8.56201V1.34766C14.1211 1.10493 13.9244 0.908203 13.6816 0.908203H11.4551V0.439453C11.4551 0.196724 11.2584 0 11.0156 0C10.7729 0 10.5762 0.196724 10.5762 0.439453V0.908203H8.81836V0.439453C8.81836 0.196724 8.62164 0 8.37891 0C8.13618 0 7.93945 0.196724 7.93945 0.439453V0.908203H6.18164V0.439453C6.18164 0.196724 5.98492 0 5.74219 0C5.49946 0 5.30273 0.196724 5.30273 0.439453V0.908203H3.54492V0.439453C3.54492 0.196724 3.3482 0 3.10547 0C2.86274 0 2.66602 0.196724 2.66602 0.439453V0.908203H0.439453C0.196724 0.908203 0 1.10493 0 1.34766V12.8027C0 13.0455 0.196724 13.2422 0.439453 13.2422H7.75795C8.4684 14.3013 9.67655 15 11.0449 15C13.2257 15 15 13.2257 15 11.0449C15 10.1054 14.6704 9.24133 14.1211 8.56201ZM2.66602 1.78711V2.22656C2.66602 2.46929 2.86274 2.66602 3.10547 2.66602C3.3482 2.66602 3.54492 2.46929 3.54492 2.22656V1.78711H5.30273V2.22656C5.30273 2.46929 5.49946 2.66602 5.74219 2.66602C5.98492 2.66602 6.18164 2.46929 6.18164 2.22656V1.78711H7.93945V2.22656C7.93945 2.46929 8.13618 2.66602 8.37891 2.66602C8.62164 2.66602 8.81836 2.46929 8.81836 2.22656V1.78711H10.5762V2.22656C10.5762 2.46929 10.7729 2.66602 11.0156 2.66602C11.2584 2.66602 11.4551 2.46929 11.4551 2.22656V1.78711H13.2422V3.54492H0.878906V1.78711H2.66602ZM0.878906 12.3633V4.42383H13.2422V7.75795C12.6133 7.33624 11.8573 7.08984 11.0449 7.08984C9.6563 7.08984 8.43269 7.80933 7.72682 8.89492C7.66743 8.86494 7.60048 8.84766 7.5293 8.84766H6.65039C6.40766 8.84766 6.21094 9.04438 6.21094 9.28711C6.21094 9.52984 6.40766 9.72656 6.65039 9.72656H7.31609C7.21687 10.0065 7.14821 10.3008 7.11445 10.6055H6.65039C6.40766 10.6055 6.21094 10.8022 6.21094 11.0449C6.21094 11.2877 6.40766 11.4844 6.65039 11.4844H7.11445C7.14821 11.789 7.21676 12.0834 7.31609 12.3633H0.878906ZM11.0449 14.1211C9.34868 14.1211 7.96875 12.7412 7.96875 11.0449C7.96875 9.34868 9.34868 7.96875 11.0449 7.96875C12.7412 7.96875 14.1211 9.34868 14.1211 11.0449C14.1211 12.7412 12.7412 14.1211 11.0449 14.1211Z" fill="#E1DBDB"/>
</svg>
