<svg width="12" height="15" viewBox="0 0 12 15" fill="none" xmlns="http://www.w3.org/2000/svg">
<path d="M11.2469 3.03601C11.2459 2.94589 11.211 2.85759 11.1448 2.79132L8.45634 0.102861C8.39285 0.0394336 8.30481 0 8.20799 0H0.739394C0.33167 0 0 0.331641 0 0.739365V14.2606C0 14.6683 0.331641 15 0.739365 15H10.5082C10.9159 15 11.2476 14.6683 11.2476 14.2606V3.03964L11.2469 3.03601ZM8.5592 1.19915L10.0485 2.68843H8.59617C8.57581 2.68843 8.5592 2.67182 8.5592 2.65145V1.19915ZM10.5452 14.2606C10.5452 14.281 10.5286 14.2976 10.5083 14.2976H0.739394C0.719033 14.2976 0.702451 14.281 0.702451 14.2606V0.739365C0.702451 0.719004 0.719033 0.702422 0.739394 0.702422H7.85678V2.65145C7.85678 3.05915 8.18848 3.39088 8.5962 3.39088H10.5452L10.5452 14.2606Z" fill="#E1DBDB"/>
<path d="M8.73138 4.80566H2.51527C2.32133 4.80566 2.16406 4.9629 2.16406 5.15687C2.16406 5.35082 2.32133 5.50809 2.51527 5.50809H8.73135C8.9253 5.50809 9.08256 5.35082 9.08256 5.15687C9.08259 4.9629 8.9253 4.80566 8.73138 4.80566Z" fill="#E1DBDB"/>
<path d="M8.73138 6.92383H2.51527C2.32133 6.92383 2.16406 7.08109 2.16406 7.27504C2.16406 7.46898 2.32133 7.62625 2.51527 7.62625H8.73135C8.9253 7.62625 9.08256 7.46898 9.08256 7.27504C9.08259 7.08109 8.9253 6.92383 8.73138 6.92383Z" fill="#E1DBDB"/>
<path d="M8.73138 9.04297H2.51527C2.32133 9.04297 2.16406 9.20023 2.16406 9.39418C2.16406 9.58815 2.32133 9.74539 2.51527 9.74539H8.73135C8.9253 9.74539 9.08256 9.58815 9.08256 9.39418C9.08259 9.20026 8.9253 9.04297 8.73138 9.04297Z" fill="#E1DBDB"/>
<path d="M5.62331 11.1631H2.51527C2.32133 11.1631 2.16406 11.3204 2.16406 11.5143C2.16406 11.7083 2.32133 11.8655 2.51527 11.8655H5.62331C5.81725 11.8655 5.97452 11.7083 5.97452 11.5143C5.97452 11.3203 5.81725 11.1631 5.62331 11.1631Z" fill="#E1DBDB"/>
</svg>
