<svg width="16" height="16" viewBox="0 0 16 16" fill="none" xmlns="http://www.w3.org/2000/svg">
<path d="M8.85 15.3H7.45C6.64903 15.3 6.75799 13.9138 6.69103 13.3882L6.48004 13.3196C6.19934 13.2284 5.92888 13.1161 5.67221 12.9851L5.47404 12.884L5.29836 13.0205L4.36516 13.7457C4.12375 13.9322 3.79113 13.9069 3.58969 13.6998L3.58624 13.6963L2.59809 12.7082C2.05406 12.1804 2.97398 11.3971 3.28018 11.0028L3.41687 10.8268L3.31522 10.6285C3.18383 10.3722 3.07168 10.1021 2.9812 9.82184L2.91287 9.61022L2.69226 9.58217L1.51726 9.43279L1.51574 9.4326C1.22217 9.39659 1 9.14598 1 8.85V7.45C1 7.15425 1.22175 6.90402 1.51654 6.86879L1.51923 6.86844L2.69173 6.71907L2.91181 6.69103L2.98037 6.48004C3.07158 6.19934 3.18391 5.92888 3.31488 5.67221L3.41596 5.47413L3.27958 5.29848L2.55458 4.36473C2.3678 4.12375 2.3934 3.79107 2.60128 3.58932L2.60499 3.58561L3.58939 2.60127L3.59308 2.59747C3.7906 2.39387 4.12337 2.36761 4.36438 2.55417L5.29762 3.28002L5.47332 3.41668L5.67159 3.31551C5.92824 3.18454 6.19864 3.07224 6.47983 2.98106L6.69108 2.91256L6.71908 2.69226L6.86846 1.51727L6.86876 1.51483C6.90387 1.22219 7.15384 1 7.45 1H8.85C9.14575 1 9.39598 1.22175 9.43121 1.51654L9.43156 1.51923L9.58093 2.69173L9.60899 2.91196L9.82017 2.98043C10.1014 3.07162 10.3718 3.18391 10.6284 3.31488L10.8266 3.41601L11.0023 3.27949L11.9355 2.55424C12.1777 2.36734 12.5093 2.39316 12.7107 2.60065L12.7144 2.60436L13.6987 3.58877L13.7025 3.59245C13.9064 3.7902 13.9329 4.12229 13.7459 4.36369L13.0204 5.29783L12.8838 5.47384L12.9854 5.67215C13.1168 5.92846 13.2289 6.19853 13.3194 6.47878L13.3878 6.69041L13.6084 6.71846L14.7834 6.86784L14.7853 6.86807C15.0777 6.90359 15.3 7.15379 15.3 7.45V8.85C15.3 9.14575 15.0782 9.39598 14.7835 9.43121L14.7808 9.43156L13.6083 9.58093L13.3882 9.60897L13.3196 9.81996C13.2284 10.1007 13.1161 10.3711 12.9851 10.6278L12.884 10.826L13.0205 11.0016L13.7461 11.9354C13.9328 12.1763 13.9071 12.5083 13.6993 12.7101L13.6956 12.7138L12.7112 13.6981L12.7075 13.7019C12.5094 13.9061 12.1767 13.9322 11.9365 13.7454L11.0022 13.0198L10.8262 12.8831L10.6278 12.9848C10.3715 13.1162 10.1015 13.2283 9.82122 13.3188L9.60959 13.3871L9.58154 13.6077L9.43216 14.7827L9.43192 14.7847C9.39636 15.0778 9.14607 15.3 8.85 15.3Z" stroke="#E1DBDB" stroke-width="0.7"/>
<path d="M5 8.15C5 6.41305 6.41305 5 8.15 5C9.88695 5 11.3 6.41305 11.3 8.15C11.3 9.88695 9.88695 11.3 8.15 11.3C6.41305 11.3 5 9.88695 5 8.15Z" stroke="#E1DBDB" stroke-width="0.7"/>
</svg>
