<svg width="13" height="13" viewBox="0 0 13 13" fill="none" xmlns="http://www.w3.org/2000/svg">
<path d="M8.63753 9.35494C8.32555 9.35494 8.07243 9.60806 8.07243 9.92005V10.926C8.07243 11.4464 7.64919 11.8698 7.12868 11.8698H2.07395C1.55359 11.8698 1.1302 11.4464 1.1302 10.926V2.07395C1.1302 1.55359 1.55359 1.1302 2.07395 1.1302H7.12868C7.64919 1.1302 8.07243 1.55359 8.07243 2.07395V3.07995C8.07243 3.39194 8.32555 3.64506 8.63753 3.64506C8.94966 3.64506 9.20263 3.39194 9.20263 3.07995V2.07395C9.20263 0.930358 8.27242 0 7.12868 0H2.07395C0.930358 0 0 0.930358 0 2.07395V10.926C0 12.0696 0.930358 13 2.07395 13H7.12868C8.27227 13 9.20263 12.0696 9.20263 10.926V9.92005C9.20263 9.60806 8.94966 9.35494 8.63753 9.35494Z" fill="#959292"/>
<path d="M12.6137 5.59261L11.4875 4.46623C11.2667 4.24563 10.909 4.24563 10.6882 4.46623C10.4675 4.68697 10.4675 5.04472 10.6882 5.26547L11.3833 5.96051H5.4943C5.18217 5.96051 4.9292 6.21348 4.9292 6.52561C4.9292 6.83774 5.18217 7.09072 5.4943 7.09072H11.3833L10.6882 7.78576C10.4675 8.00651 10.4675 8.36426 10.6882 8.585C10.7986 8.69537 10.9431 8.75041 11.0878 8.75041C11.2324 8.75041 11.3771 8.69522 11.4873 8.585L12.6137 7.45862C13.1282 6.94414 13.1282 6.10709 12.6137 5.59261Z" fill="#959292"/>
</svg>
