<svg width="33" height="14" viewBox="0 0 33 14" fill="none" xmlns="http://www.w3.org/2000/svg">
<path d="M1.82469 13.9999H31.1555L32.0574 13.2265V1.12737C32.0574 0.175677 30.8955 -6.7457e-05 30.1694 -0.00012207H1.82469C1.09847 -0.00012207 0.509766 0.504722 0.509766 1.12737V12.3808C0.509766 13.0035 0.653646 13.9999 1.82469 13.9999Z" fill="#B0B0B0" class="pathKeyboard"/>
<path d="M22.1463 2.01154H20.7351C20.5114 2.01154 20.3301 2.19097 20.3301 2.41225V3.80827C20.3301 4.02955 20.5115 4.20898 20.7351 4.20898H22.1463C22.37 4.20898 22.5514 4.02955 22.5514 3.80827V2.41225C22.5515 2.19089 22.3701 2.01154 22.1463 2.01154Z" fill="white"/>
<path d="M18.7098 5.41119H17.2986C17.0749 5.41119 16.8936 5.59063 16.8936 5.81191V7.20793C16.8936 7.42921 17.0749 7.60864 17.2986 7.60864H18.7098C18.9335 7.60864 19.1149 7.42921 19.1149 7.20793V5.81191C19.1149 5.59055 18.9336 5.41119 18.7098 5.41119Z" fill="white"/>
<path d="M15.2733 2.01154H13.8621C13.6383 2.01154 13.457 2.19097 13.457 2.41225V3.80827C13.457 4.02955 13.6384 4.20898 13.8621 4.20898H15.2733C15.4971 4.20898 15.6784 4.02955 15.6784 3.80827V2.41225C15.6784 2.19089 15.497 2.01154 15.2733 2.01154Z" fill="white"/>
<path d="M15.2733 5.41119H13.8621C13.6383 5.41119 13.457 5.59063 13.457 5.81191V7.20793C13.457 7.42921 13.6384 7.60864 13.8621 7.60864H15.2733C15.4971 7.60864 15.6784 7.42921 15.6784 7.20793V5.81191C15.6784 5.59055 15.497 5.41119 15.2733 5.41119Z" fill="white"/>
<path d="M24.1517 10.9512H25.5628C25.7865 10.9512 25.9679 10.7718 25.9679 10.5505V9.15447C25.9679 8.93311 25.7865 8.75375 25.5628 8.75375H24.1517C23.928 8.75375 23.7466 8.93318 23.7466 9.15447V10.5505C23.7466 10.7718 23.928 10.9512 24.1517 10.9512Z" fill="white"/>
<path d="M4.96323 2.01154H3.55204C3.32828 2.01154 3.14697 2.19097 3.14697 2.41225V3.80827C3.14697 4.02955 3.32836 4.20898 3.55204 4.20898H4.96323C5.187 4.20898 5.3683 4.02955 5.3683 3.80827V2.41225C5.36838 2.19089 5.187 2.01154 4.96323 2.01154Z" fill="white"/>
<path d="M11.8368 5.41119H10.4256C10.2018 5.41119 10.0205 5.59063 10.0205 5.81191V7.20793C10.0205 7.42921 10.2019 7.60864 10.4256 7.60864H11.8368C12.0605 7.60864 12.2418 7.42921 12.2418 7.20793V5.81191C12.2419 5.59055 12.0605 5.41119 11.8368 5.41119Z" fill="white"/>
<path d="M24.1517 7.60864H28.9999C29.2236 7.60864 29.405 7.42921 29.405 7.20793V5.81191C29.405 5.59063 29.2236 5.41119 28.9999 5.41119H24.1517C23.928 5.41119 23.7466 5.59063 23.7466 5.81191V7.20793C23.7466 7.42921 23.928 7.60864 24.1517 7.60864Z" fill="white"/>
<path d="M23.7466 2.41225V3.80827C23.7466 4.02955 23.928 4.20898 24.1517 4.20898H25.5628C25.7865 4.20898 25.9679 4.02955 25.9679 3.80827V2.41225C25.9679 2.19097 25.7865 2.01154 25.5628 2.01154H24.1517C23.928 2.01154 23.7466 2.19089 23.7466 2.41225Z" fill="white"/>
<path d="M22.1463 5.41119H20.7351C20.5114 5.41119 20.3301 5.59063 20.3301 5.81191V7.20793C20.3301 7.42921 20.5115 7.60864 20.7351 7.60864H22.1463C22.37 7.60864 22.5514 7.42921 22.5514 7.20793V5.81191C22.5515 5.59055 22.3701 5.41119 22.1463 5.41119Z" fill="white"/>
<path d="M18.7098 2.01154H17.2986C17.0749 2.01154 16.8936 2.19097 16.8936 2.41225V3.80827C16.8936 4.02955 17.0749 4.20898 17.2986 4.20898H18.7098C18.9335 4.20898 19.1149 4.02955 19.1149 3.80827V2.41225C19.1149 2.19089 18.9336 2.01154 18.7098 2.01154Z" fill="white"/>
<path d="M27.5887 4.20898H29.0003C29.224 4.20898 29.4054 4.02955 29.4054 3.80827V2.41225C29.4054 2.19097 29.224 2.01154 29.0003 2.01154H27.5887C27.365 2.01154 27.1836 2.19097 27.1836 2.41225V3.80827C27.1836 4.02955 27.365 4.20898 27.5887 4.20898Z" fill="white"/>
<path d="M27.1836 9.15453V10.5505C27.1836 10.7718 27.365 10.9513 27.5887 10.9513H29.0003C29.224 10.9513 29.4054 10.7718 29.4054 10.5505V9.15453C29.4054 8.93317 29.224 8.75381 29.0003 8.75381H27.5887C27.365 8.75374 27.1836 8.93317 27.1836 9.15453Z" fill="white"/>
<path d="M22.1466 8.75375H10.4256C10.2018 8.75375 10.0205 8.93318 10.0205 9.15447V10.5505C10.0205 10.7718 10.2019 10.9512 10.4256 10.9512H22.1467C22.3704 10.9512 22.5518 10.7718 22.5518 10.5505V9.15447C22.5518 8.93318 22.3704 8.75375 22.1466 8.75375Z" fill="white"/>
<path d="M8.40017 8.75375H6.98905C6.76537 8.75375 6.58398 8.93318 6.58398 9.15447V10.5505C6.58398 10.7718 6.76537 10.9512 6.98905 10.9512H8.40017C8.62385 10.9512 8.80524 10.7718 8.80524 10.5505V9.15447C8.80524 8.93318 8.62393 8.75375 8.40017 8.75375Z" fill="white"/>
<path d="M8.40017 2.01154H6.98905C6.76537 2.01154 6.58398 2.19097 6.58398 2.41225V3.80827C6.58398 4.02955 6.76537 4.20898 6.98905 4.20898H8.40017C8.62385 4.20898 8.80524 4.02955 8.80524 3.80827V2.41225C8.80524 2.19089 8.62393 2.01154 8.40017 2.01154Z" fill="white"/>
<path d="M11.8368 2.01154H10.4256C10.2018 2.01154 10.0205 2.19097 10.0205 2.41225V3.80827C10.0205 4.02955 10.2019 4.20898 10.4256 4.20898H11.8368C12.0605 4.20898 12.2418 4.02955 12.2418 3.80827V2.41225C12.2419 2.19089 12.0605 2.01154 11.8368 2.01154Z" fill="white"/>
<path d="M5.3683 10.5505V9.15447C5.3683 8.93311 5.18692 8.75375 4.96323 8.75375H3.55204C3.32828 8.75375 3.14697 8.93318 3.14697 9.15447V10.5505C3.14697 10.7718 3.32836 10.9512 3.55204 10.9512H4.96323C5.18692 10.9512 5.3683 10.7718 5.3683 10.5505Z" fill="white"/>
<path d="M3.55253 7.60864H8.40089C8.62465 7.60864 8.80596 7.42921 8.80596 7.20793V5.81191C8.80596 5.59063 8.62458 5.41119 8.40089 5.41119H3.55253C3.32884 5.41119 3.14746 5.59063 3.14746 5.81191V7.20793C3.14738 7.42921 3.32877 7.60864 3.55253 7.60864Z" fill="white"/>
</svg>
