<svg width="19" height="19" viewBox="0 0 19 19" fill="none" xmlns="http://www.w3.org/2000/svg">
<path d="M14.9127 6.1994C14.9127 9.12684 12.4893 11.5 9.49999 11.5C6.51064 11.5 4.0873 9.12684 4.0873 6.1994C4.0873 3.27195 6.51064 0.898788 9.49999 0.898788C12.4893 0.898788 14.9127 3.27195 14.9127 6.1994Z" fill="#B0B0B0"/>
<path d="M18.3569 18.9143C12.2061 18.9143 13.6533 18.9143 8.76163 18.9143C3.86996 18.9143 7.53147 18.9143 0.642578 18.9143C0.642578 15.5086 2.64681 12.5614 5.56321 11.1421C7.0394 12.2831 8.08569 12.524 9.49972 12.524C10.9138 12.524 11.96 12.2831 13.4362 11.1421C16.3526 12.5614 18.3569 15.5086 18.3569 18.9143Z" fill="#B0B0B0"/>
</svg>