<svg width="11" height="15" viewBox="0 0 11 15" fill="none" xmlns="http://www.w3.org/2000/svg">
<path d="M5.49994 0C2.46723 0 0 2.46609 0 5.4974C0 6.88992 0.877825 8.85738 2.6092 11.3452C3.8747 13.1638 5.11937 14.5711 5.1718 14.6301L5.49994 15L5.8282 14.6301C5.88052 14.5711 7.12518 13.1638 8.3908 11.3452C10.1221 8.85738 11 6.88992 11 5.4974C11 2.46609 8.53266 0 5.49994 0ZM7.67533 10.8373C6.81994 12.0673 5.9554 13.1259 5.49994 13.666C5.04563 13.1274 4.18429 12.0728 3.32948 10.8444C1.72531 8.53935 0.877367 6.69033 0.877367 5.4974C0.877367 2.94971 2.95108 0.876961 5.49994 0.876961C8.04892 0.876961 10.1225 2.94971 10.1225 5.4974C10.1225 6.68907 9.27629 8.53558 7.67533 10.8373Z" fill="#959292"/>
<path d="M5.5 2.5C3.8458 2.5 2.50005 3.84575 2.50005 5.49995C2.50005 7.15415 3.8458 8.5 5.5 8.5C7.1543 8.5 8.50005 7.15415 8.50005 5.49995C8.50005 3.84575 7.1543 2.5 5.5 2.5ZM5.5 7.68914C4.29297 7.68914 3.31091 6.70708 3.31091 5.49995C3.31091 4.29292 4.29297 3.31086 5.5 3.31086C6.70713 3.31086 7.6892 4.29292 7.6892 5.49995C7.6892 6.70708 6.70713 7.68914 5.5 7.68914Z" fill="#959292"/>
</svg>
