<svg width="17" height="26" viewBox="0 0 17 26" fill="none" xmlns="http://www.w3.org/2000/svg">
<path d="M13.125 9.375C13.125 11.7909 13.0468 13.7361 12.3556 15.1974C11.5035 16.9991 9.89449 17.75 8.5 17.75C7.10551 17.75 5.49655 16.9991 4.64436 15.1974C3.95319 13.7361 3.875 11.7909 3.875 9.375C3.875 6.62707 3.89317 5.10317 4.64023 3.56095C5.4951 1.79619 7.28219 1 8.5 1C9.79522 1 11.6576 1.75919 12.3272 3.48648C12.9771 5.16269 13.125 6.7109 13.125 9.375Z" stroke="#559E0C" stroke-width="2" class="icon_microphon1"/>
<path d="M16 12.1875C16 12.7361 15.9664 13.2594 15.9017 13.757C14.8749 18.9375 12.2278 20.625 8.50004 20.625C4.82412 20.2491 2.12499 18.9375 1.11664 13.875C1.04001 13.3468 1 12.7846 1 12.1875" stroke="#959292" stroke-width="2" stroke-linecap="round" stroke-linejoin="round" class="icon_microphon2"/>
<rect x="7.5625" y="20.6246" width="1.875" height="4.6875" rx="0.9375" fill="#959292" class="icon_microphon3"/>
</svg>
