<svg width="15" height="15" viewBox="0 0 15 15" fill="none" xmlns="http://www.w3.org/2000/svg">
<path d="M14.1211 8.56201V1.34766C14.1211 1.10493 13.9244 0.908203 13.6816 0.908203H11.4551V0.439453C11.4551 0.196724 11.2584 0 11.0156 0C10.7729 0 10.5762 0.196724 10.5762 0.439453V0.908203H8.81836V0.439453C8.81836 0.196724 8.62164 0 8.37891 0C8.13618 0 7.93945 0.196724 7.93945 0.439453V0.908203H6.18164V0.439453C6.18164 0.196724 5.98492 0 5.74219 0C5.49946 0 5.30273 0.196724 5.30273 0.439453V0.908203H3.54492V0.439453C3.54492 0.196724 3.3482 0 3.10547 0C2.86274 0 2.66602 0.196724 2.66602 0.439453V0.908203H0.439453C0.196724 0.908203 0 1.10493 0 1.34766V12.8027C0 13.0455 0.196724 13.2422 0.439453 13.2422H7.75795C8.4684 14.3013 9.67655 15 11.0449 15C13.2257 15 15 13.2257 15 11.0449C15 10.1054 14.6704 9.24133 14.1211 8.56201ZM2.66602 1.78711V2.22656C2.66602 2.46929 2.86274 2.66602 3.10547 2.66602C3.3482 2.66602 3.54492 2.46929 3.54492 2.22656V1.78711H5.30273V2.22656C5.30273 2.46929 5.49946 2.66602 5.74219 2.66602C5.98492 2.66602 6.18164 2.46929 6.18164 2.22656V1.78711H7.93945V2.22656C7.93945 2.46929 8.13618 2.66602 8.37891 2.66602C8.62164 2.66602 8.81836 2.46929 8.81836 2.22656V1.78711H10.5762V2.22656C10.5762 2.46929 10.7729 2.66602 11.0156 2.66602C11.2584 2.66602 11.4551 2.46929 11.4551 2.22656V1.78711H13.2422V3.54492H0.878906V1.78711H2.66602ZM0.878906 12.3633V4.42383H13.2422V7.75795C12.6133 7.33624 11.8573 7.08984 11.0449 7.08984C9.6563 7.08984 8.43269 7.80933 7.72682 8.89492C7.66743 8.86494 7.60048 8.84766 7.5293 8.84766H6.65039C6.40766 8.84766 6.21094 9.04438 6.21094 9.28711C6.21094 9.52984 6.40766 9.72656 6.65039 9.72656H7.31609C7.21687 10.0065 7.14821 10.3008 7.11445 10.6055H6.65039C6.40766 10.6055 6.21094 10.8022 6.21094 11.0449C6.21094 11.2877 6.40766 11.4844 6.65039 11.4844H7.11445C7.14821 11.789 7.21676 12.0834 7.31609 12.3633H0.878906ZM11.0449 14.1211C9.34868 14.1211 7.96875 12.7412 7.96875 11.0449C7.96875 9.34868 9.34868 7.96875 11.0449 7.96875C12.7412 7.96875 14.1211 9.34868 14.1211 11.0449C14.1211 12.7412 12.7412 14.1211 11.0449 14.1211Z" fill="#616161"/>
<path d="M12.8027 10.6055H11.4844V9.28711C11.4844 9.04438 11.2877 8.84766 11.0449 8.84766C10.8022 8.84766 10.6055 9.04438 10.6055 9.28711V11.0449C10.6055 11.2877 10.8022 11.4844 11.0449 11.4844H12.8027C13.0455 11.4844 13.2422 11.2877 13.2422 11.0449C13.2422 10.8022 13.0455 10.6055 12.8027 10.6055Z" fill="#616161"/>
<path d="M3.98438 5.33203H3.10547C2.86274 5.33203 2.66602 5.52876 2.66602 5.77148C2.66602 6.01421 2.86274 6.21094 3.10547 6.21094H3.98438C4.2271 6.21094 4.42383 6.01421 4.42383 5.77148C4.42383 5.52876 4.2271 5.33203 3.98438 5.33203Z" fill="#616161"/>
<path d="M3.98438 7.08984H3.10547C2.86274 7.08984 2.66602 7.28657 2.66602 7.5293C2.66602 7.77203 2.86274 7.96875 3.10547 7.96875H3.98438C4.2271 7.96875 4.42383 7.77203 4.42383 7.5293C4.42383 7.28657 4.2271 7.08984 3.98438 7.08984Z" fill="#616161"/>
<path d="M3.98438 8.84766H3.10547C2.86274 8.84766 2.66602 9.04438 2.66602 9.28711C2.66602 9.52984 2.86274 9.72656 3.10547 9.72656H3.98438C4.2271 9.72656 4.42383 9.52984 4.42383 9.28711C4.42383 9.04438 4.2271 8.84766 3.98438 8.84766Z" fill="#616161"/>
<path d="M6.65039 6.21094H7.5293C7.77203 6.21094 7.96875 6.01421 7.96875 5.77148C7.96875 5.52876 7.77203 5.33203 7.5293 5.33203H6.65039C6.40766 5.33203 6.21094 5.52876 6.21094 5.77148C6.21094 6.01421 6.40766 6.21094 6.65039 6.21094Z" fill="#616161"/>
<path d="M6.65039 7.96875H7.5293C7.77203 7.96875 7.96875 7.77203 7.96875 7.5293C7.96875 7.28657 7.77203 7.08984 7.5293 7.08984H6.65039C6.40766 7.08984 6.21094 7.28657 6.21094 7.5293C6.21094 7.77203 6.40766 7.96875 6.65039 7.96875Z" fill="#616161"/>
<path d="M3.98438 10.6055H3.10547C2.86274 10.6055 2.66602 10.8022 2.66602 11.0449C2.66602 11.2877 2.86274 11.4844 3.10547 11.4844H3.98438C4.2271 11.4844 4.42383 11.2877 4.42383 11.0449C4.42383 10.8022 4.2271 10.6055 3.98438 10.6055Z" fill="#616161"/>
<path d="M10.166 6.21094H11.0449C11.2877 6.21094 11.4844 6.01421 11.4844 5.77148C11.4844 5.52876 11.2877 5.33203 11.0449 5.33203H10.166C9.92329 5.33203 9.72656 5.52876 9.72656 5.77148C9.72656 6.01421 9.92329 6.21094 10.166 6.21094Z" fill="#616161"/>
</svg>
