<svg width="50" height="30" viewBox="0 0 50 30" fill="none" xmlns="http://www.w3.org/2000/svg">
<path d="M50 15C50 23.254 43.3333 30 35 30C26.746 30 20 23.254 20 15C20 6.74603 26.6667 0 34.9206 0C43.3333 0 50 6.74603 50 15Z" fill="#FFB600"/>
<path d="M35 0C43.254 0 50 6.74603 50 15C50 23.254 43.3333 30 35 30C26.746 30 20 23.254 20 15" fill="#F7981D"/>
<path d="M35 0C43.254 0 50 6.74603 50 15C50 23.254 43.3333 30 35 30" fill="#FF8500"/>
<path d="M14.8806 0C6.68435 0.0793651 0 6.74603 0 15C0 23.254 6.68435 30 15.0398 30C18.939 30 22.4403 28.4921 25.1459 26.1111C25.7029 25.6349 26.1804 25.0794 26.6578 24.5238H23.5544C23.1565 24.0476 22.7586 23.4921 22.4403 23.0159H27.7719C28.0902 22.5397 28.4085 21.9841 28.6472 21.4286H21.565C21.3263 20.9524 21.0875 20.3968 20.9284 19.8413H29.2043C29.6817 18.3333 30 16.746 30 15.0794C30 13.9683 29.8409 12.9365 29.6817 11.9048H20.4509C20.5305 11.3492 20.6897 10.873 20.8488 10.3175H29.1247C28.9655 9.76191 28.7268 9.20635 28.4881 8.73016H21.4854C21.7241 8.17461 22.0424 7.69842 22.3608 7.14286H27.6923C27.374 6.5873 26.9761 6.03175 26.4987 5.55556H23.5544C24.0318 5 24.5093 4.52381 25.0663 4.04762C22.4403 1.5873 18.8594 0.15873 14.9602 0.15873C14.9602 -1.53742e-07 14.9602 0 14.8806 0Z" fill="#FF5050"/>
<path d="M0 14.9202C0 23.2181 6.68435 30 15.0398 30C18.939 30 22.4403 28.4841 25.1459 26.0904C25.7029 25.6117 26.1804 25.0532 26.6578 24.4947H23.5544C23.1565 24.016 22.7586 23.4575 22.4403 22.9787H27.7719C28.0902 22.5 28.4085 21.9415 28.6472 21.383H21.565C21.3263 20.9043 21.0875 20.3458 20.9284 19.7872H29.2043C29.6817 18.2713 30 16.6755 30 15C30 13.883 29.8409 12.8457 29.6817 11.8085H20.4509C20.5305 11.25 20.6897 10.7713 20.8488 10.2128H29.1247C28.9655 9.65426 28.7268 9.09575 28.4881 8.61703H21.4854C21.7241 8.05851 22.0424 7.57979 22.3608 7.02128H27.6923C27.374 6.46277 26.9761 5.90426 26.4987 5.42553H23.5544C24.0318 4.86702 24.5093 4.3883 25.0663 3.90958C22.4403 1.43617 18.8594 0 14.9602 0H14.8806" fill="#E52836"/>
<path d="M15.1579 30C19.0263 30 22.5 28.4841 25.1842 26.0904C25.7368 25.6117 26.2105 25.0532 26.6842 24.4947H23.6053C23.2105 24.016 22.8158 23.4575 22.5 22.9787H27.7895C28.1053 22.5 28.4211 21.9415 28.6579 21.383H21.6316C21.3947 20.9043 21.1579 20.3458 21 19.7872H29.2105C29.6842 18.2713 30 16.6755 30 15C30 13.883 29.8421 12.8457 29.6842 11.8085H20.5263C20.6053 11.25 20.7632 10.7713 20.9211 10.2128H29.1316C28.9737 9.65426 28.7368 9.09575 28.5 8.61703H21.5526C21.7895 8.05851 22.1053 7.57979 22.4211 7.02128H27.7105C27.3947 6.46277 27 5.90426 26.5263 5.42553H23.6053C24.079 4.86702 24.5526 4.3883 25.1053 3.90958C22.5 1.43617 18.9474 0 15.0789 0H15" fill="#CB2026"/>
<path d="M20.3175 18.8096L20.5556 17.4604C20.4762 17.4604 20.3175 17.5397 20.1587 17.5397C19.6032 17.5397 19.5238 17.2223 19.6032 17.0635L20.0794 14.2858H20.9524L21.1905 12.7778H20.3968L20.5556 11.8254H18.9682C18.9682 11.8254 18.0159 17.0635 18.0159 17.6985C18.0159 18.6508 18.5714 19.0477 19.2857 19.0477C19.7619 19.0477 20.1587 18.8889 20.3175 18.8096Z" fill="white"/>
<path d="M20.873 16.2698C20.873 18.4921 22.381 19.0476 23.6508 19.0476C24.8413 19.0476 25.3175 18.8095 25.3175 18.8095L25.635 17.3016C25.635 17.3016 24.7619 17.6984 23.9683 17.6984C22.2223 17.6984 22.5397 16.4286 22.5397 16.4286H25.7937C25.7937 16.4286 26.0318 15.3968 26.0318 15C26.0318 13.9682 25.4762 12.6984 23.7302 12.6984C22.0635 12.5397 20.873 14.2857 20.873 16.2698ZM23.6508 13.9682C24.5238 13.9682 24.3651 15 24.3651 15.0794H22.6191C22.6191 15 22.7778 13.9682 23.6508 13.9682Z" fill="white"/>
<path d="M33.7302 18.8096L34.0477 17.0635C34.0477 17.0635 33.254 17.4604 32.6984 17.4604C31.5873 17.4604 31.1111 16.5873 31.1111 15.635C31.1111 13.7302 32.0635 12.6984 33.1746 12.6984C33.9683 12.6984 34.6032 13.1746 34.6032 13.1746L34.8413 11.508C34.8413 11.508 33.8889 11.1111 33.0159 11.1111C31.1905 11.1111 29.3651 12.6984 29.3651 15.7143C29.3651 17.6984 30.3175 19.0477 32.2223 19.0477C32.8572 19.0477 33.7302 18.8096 33.7302 18.8096Z" fill="white"/>
<path d="M11.5873 12.5397C10.4762 12.5397 9.68258 12.8571 9.68258 12.8571L9.44449 14.2063C9.44449 14.2063 10.1588 13.8889 11.1905 13.8889C11.7461 13.8889 12.2223 13.9682 12.2223 14.4444C12.2223 14.7619 12.1429 14.8413 12.1429 14.8413C12.1429 14.8413 11.6667 14.8413 11.4286 14.8413C10.0794 14.8413 8.57147 15.3968 8.57147 17.2222C8.57147 18.6508 9.52385 18.9682 10.0794 18.9682C11.1905 18.9682 11.6667 18.254 11.7461 18.254L11.6667 18.8889H13.0953L13.7302 14.5238C13.7302 12.619 12.1429 12.5397 11.5873 12.5397ZM11.9048 16.1111C11.9048 16.3492 11.7461 17.619 10.7937 17.619C10.3175 17.619 10.1588 17.2222 10.1588 16.9841C10.1588 16.5873 10.3969 16.0317 11.5873 16.0317C11.8254 16.1111 11.9048 16.1111 11.9048 16.1111Z" fill="white"/>
<path d="M15.2382 18.9683C15.635 18.9683 17.6191 19.0476 17.6191 16.9048C17.6191 14.9206 15.7144 15.3175 15.7144 14.5238C15.7144 14.127 16.0318 13.9683 16.5874 13.9683C16.8255 13.9683 17.6985 14.0476 17.6985 14.0476L17.9366 12.6191C17.9366 12.6191 17.381 12.4603 16.4287 12.4603C15.2382 12.4603 14.0477 12.9365 14.0477 14.5238C14.0477 16.3492 16.0318 16.1905 16.0318 16.9048C16.0318 17.381 15.4763 17.4603 15.0794 17.4603C14.3652 17.4603 13.6509 17.2222 13.6509 17.2222L13.4128 18.6508C13.4921 18.8095 13.889 18.9683 15.2382 18.9683Z" fill="white"/>
<path d="M46.9049 11.2698L46.5874 13.4127C46.5874 13.4127 45.9525 12.619 45.0795 12.619C43.6509 12.619 42.381 14.3651 42.381 16.4286C42.381 17.6984 43.016 19.0476 44.3652 19.0476C45.3176 19.0476 45.8731 18.4127 45.8731 18.4127L45.7937 18.9683H47.381L48.5715 11.3492L46.9049 11.2698ZM46.1906 15.4762C46.1906 16.3492 45.7937 17.4603 44.9207 17.4603C44.3652 17.4603 44.0477 16.9841 44.0477 16.1905C44.0477 14.9206 44.6033 14.127 45.3175 14.127C45.8731 14.127 46.1906 14.5238 46.1906 15.4762Z" fill="white"/>
<path d="M2.93653 18.8889L3.88891 13.1746L4.04764 18.8889H5.15875L7.22224 13.1746L6.34923 18.8889H8.01589L9.28573 11.2698H6.66669L5.07938 15.9524L5.00002 11.2698H2.69843L1.42859 18.8889H2.93653Z" fill="white"/>
<path d="M27.5397 18.8889C28.0159 16.2699 28.0953 14.127 29.2064 14.5238C29.3651 13.4921 29.6032 13.0953 29.762 12.6984C29.762 12.6984 29.6826 12.6984 29.4445 12.6984C28.7302 12.6984 28.1747 13.6508 28.1747 13.6508L28.3334 12.7778H26.8254L25.7937 18.9683H27.5397V18.8889Z" fill="white"/>
<path d="M37.381 12.5397C36.2699 12.5397 35.4763 12.8571 35.4763 12.8571L35.2382 14.2063C35.2382 14.2063 35.9525 13.8889 36.9842 13.8889C37.5398 13.8889 38.016 13.9682 38.016 14.4444C38.016 14.7619 37.9366 14.8413 37.9366 14.8413C37.9366 14.8413 37.4604 14.8413 37.2223 14.8413C35.8731 14.8413 34.3652 15.3968 34.3652 17.2222C34.3652 18.6508 35.3176 18.9682 35.8731 18.9682C36.9842 18.9682 37.4604 18.254 37.5398 18.254L37.4604 18.8889H38.889L39.5239 14.5238C39.6033 12.619 37.9366 12.5397 37.381 12.5397ZM37.7779 16.1111C37.7779 16.3492 37.6191 17.619 36.6668 17.619C36.1906 17.619 36.0318 17.2222 36.0318 16.9841C36.0318 16.5873 36.2699 16.0317 37.4604 16.0317C37.6985 16.1111 37.6985 16.1111 37.7779 16.1111Z" fill="white"/>
<path d="M40.8731 18.8889C41.3493 16.2699 41.4287 14.127 42.5398 14.5238C42.6985 13.4921 42.9366 13.0953 43.0953 12.6984C43.0953 12.6984 43.016 12.6984 42.7779 12.6984C42.0636 12.6984 41.508 13.6508 41.508 13.6508L41.6668 12.7778H40.1588L39.1271 18.9683H40.8731V18.8889Z" fill="white"/>
<path d="M17.8572 17.6985C17.8572 18.6508 18.4128 19.0477 19.1271 19.0477C19.6826 19.0477 20.1588 18.8889 20.3176 18.8096L20.5557 17.4604C20.4763 17.4604 20.3176 17.5397 20.1588 17.5397C19.6033 17.5397 19.5239 17.2223 19.6033 17.0635L20.0795 14.2858H20.9525L21.1906 12.7778H20.3969L20.5557 11.8254" fill="#DCE5E5"/>
<path d="M21.6667 16.2698C21.6667 18.4921 22.381 19.0476 23.6509 19.0476C24.8414 19.0476 25.3175 18.8095 25.3175 18.8095L25.635 17.3016C25.635 17.3016 24.762 17.6984 23.9683 17.6984C22.2223 17.6984 22.5398 16.4286 22.5398 16.4286H25.7937C25.7937 16.4286 26.0318 15.3968 26.0318 15C26.0318 13.9682 25.4763 12.6984 23.7302 12.6984C22.0636 12.5397 21.6667 14.2857 21.6667 16.2698ZM23.6509 13.9682C24.5239 13.9682 24.6826 15 24.6826 15.0794H22.6191C22.6191 15 22.7779 13.9682 23.6509 13.9682Z" fill="#DCE5E5"/>
<path d="M33.7302 18.8096L34.0477 17.0635C34.0477 17.0635 33.2541 17.4604 32.6985 17.4604C31.5874 17.4604 31.1112 16.5873 31.1112 15.635C31.1112 13.7302 32.0636 12.6984 33.1747 12.6984C33.9683 12.6984 34.6033 13.1746 34.6033 13.1746L34.8414 11.508C34.8414 11.508 33.889 11.1111 33.016 11.1111C31.1906 11.1111 30.1588 12.6984 30.1588 15.7143C30.1588 17.6984 30.3175 19.0477 32.2223 19.0477C32.8572 19.0477 33.7302 18.8096 33.7302 18.8096Z" fill="#DCE5E5"/>
<path d="M9.44449 14.2857C9.44449 14.2857 10.1588 13.9683 11.1905 13.9683C11.7461 13.9683 12.2223 14.0476 12.2223 14.5238C12.2223 14.8413 12.1429 14.9206 12.1429 14.9206C12.1429 14.9206 11.6667 14.9206 11.4286 14.9206C10.0794 14.9206 8.57147 15.4762 8.57147 17.3016C8.57147 18.7302 9.52385 19.0476 10.0794 19.0476C11.1905 19.0476 11.6667 18.3333 11.7461 18.3333L11.6667 18.9683H13.0953L13.7302 14.6032C13.7302 12.7778 12.1429 12.6984 11.508 12.6984L9.44449 14.2857ZM12.6985 16.1111C12.6985 16.3492 11.7461 17.6191 10.7937 17.6191C10.3175 17.6191 10.1588 17.2222 10.1588 16.9841C10.1588 16.5873 10.3969 16.0318 11.5873 16.0318C11.8254 16.1111 12.6985 16.1111 12.6985 16.1111Z" fill="#DCE5E5"/>
<path d="M13.4921 18.8095C13.4921 18.8095 13.9683 18.9683 15.3175 18.9683C15.7143 18.9683 17.6985 19.0476 17.6985 16.9048C17.6985 14.9206 15.7937 15.3175 15.7937 14.5238C15.7937 14.127 16.1112 13.9683 16.6667 13.9683C16.9048 13.9683 17.7778 14.0476 17.7778 14.0476L18.0159 12.6191C18.0159 12.6191 17.4604 12.4603 16.508 12.4603C15.3175 12.4603 14.9207 12.9365 14.9207 14.5238C14.9207 16.3492 16.1112 16.1905 16.1112 16.9048C16.1112 17.381 15.5556 17.4603 15.1588 17.4603" fill="#DCE5E5"/>
<path d="M46.5873 13.4127C46.5873 13.4127 45.9524 12.6191 45.0794 12.6191C43.6508 12.6191 43.1746 14.3651 43.1746 16.4286C43.1746 17.6985 43.0159 19.0477 44.3651 19.0477C45.3175 19.0477 45.8731 18.4127 45.8731 18.4127L45.7937 18.9683H47.381L48.5715 11.3492L46.5873 13.4127ZM46.508 15.4762C46.508 16.3492 45.7937 17.4604 44.9207 17.4604C44.3651 17.4604 44.0477 16.9842 44.0477 16.1905C44.0477 14.9207 44.6032 14.127 45.3175 14.127C45.8731 14.127 46.508 14.5238 46.508 15.4762Z" fill="#DCE5E5"/>
<path d="M2.93653 18.8889L3.88891 13.1746L4.04764 18.8889H5.15875L7.22224 13.1746L6.34923 18.8889H8.01589L9.28573 11.2698H7.30161L5.07938 15.9524L5.00002 11.2698H4.127L1.42859 18.8889H2.93653Z" fill="#DCE5E5"/>
<path d="M25.8731 18.8889H27.5398C28.016 16.2699 28.0953 14.127 29.2064 14.5238C29.3652 13.4921 29.6033 13.0953 29.762 12.6984C29.762 12.6984 29.6826 12.6984 29.4445 12.6984C28.7303 12.6984 28.1747 13.6508 28.1747 13.6508L28.3334 12.7778" fill="#DCE5E5"/>
<path d="M35.2382 14.2857C35.2382 14.2857 35.9525 13.9683 36.9842 13.9683C37.5398 13.9683 38.016 14.0476 38.016 14.5238C38.016 14.8413 37.9366 14.9206 37.9366 14.9206C37.9366 14.9206 37.4604 14.9206 37.2223 14.9206C35.8731 14.9206 34.3652 15.4762 34.3652 17.3016C34.3652 18.7302 35.3176 19.0476 35.8731 19.0476C36.9842 19.0476 37.4604 18.3333 37.5398 18.3333L37.4604 18.9683H38.889L39.5239 14.6032C39.5239 12.7778 37.9366 12.6984 37.3017 12.6984L35.2382 14.2857ZM38.4922 16.1111C38.4922 16.3492 37.5398 17.6191 36.5874 17.6191C36.1112 17.6191 35.9525 17.2222 35.9525 16.9841C35.9525 16.5873 36.1906 16.0318 37.381 16.0318C37.6985 16.1111 38.4922 16.1111 38.4922 16.1111Z" fill="#DCE5E5"/>
<path d="M39.2064 18.8889H40.8731C41.3493 16.2699 41.4286 14.127 42.5398 14.5238C42.6985 13.4921 42.9366 13.0953 43.0953 12.6984C43.0953 12.6984 43.0159 12.6984 42.7779 12.6984C42.0636 12.6984 41.508 13.6508 41.508 13.6508L41.6667 12.7778" fill="#DCE5E5"/>
</svg>
