<svg width="82" height="25" viewBox="0 0 82 25" fill="none" xmlns="http://www.w3.org/2000/svg">
<path d="M30.0667 24.2095L34.2318 0.780945H40.7397L36.7048 24.2095H30.0667Z" fill="#3C58BF"/>
<path d="M30.0667 24.2095L35.4032 0.780945H40.7397L36.7048 24.2095H30.0667Z" fill="#293688"/>
<path d="M60.2635 1.04127C58.9619 0.520634 56.8794 0 54.2762 0C47.7683 0 43.0826 3.25397 43.0826 7.93968C43.0826 11.454 46.3365 13.2762 48.9397 14.4476C51.5429 15.6191 52.3239 16.4 52.3239 17.4413C52.3239 19.0032 50.2413 19.7841 48.4191 19.7841C45.8159 19.7841 44.3842 19.3937 42.1715 18.4825L41.2604 18.0921L40.3492 23.4286C41.9111 24.0794 44.7746 24.7302 47.7683 24.7302C54.6667 24.7302 59.2223 21.4762 59.2223 16.5302C59.2223 13.7968 57.5302 11.7143 53.6254 10.0222C51.2826 8.85079 49.8508 8.2 49.8508 7.02857C49.8508 5.9873 51.0223 4.94603 53.6254 4.94603C55.8381 4.94603 57.4 5.33651 58.5715 5.85714L59.2223 6.11746L60.2635 1.04127Z" fill="#3C58BF"/>
<path d="M60.2635 1.04127C58.9619 0.520634 56.8794 0 54.2762 0C47.7683 0 44.254 3.25397 44.254 7.93968C44.254 11.454 46.3365 13.2762 48.9397 14.4476C51.5429 15.6191 52.3239 16.4 52.3239 17.4413C52.3239 19.0032 50.2413 19.7841 48.4191 19.7841C45.8159 19.7841 44.3842 19.3937 42.1715 18.4825L41.2604 18.0921L40.3492 23.4286C41.9111 24.0794 44.7746 24.7302 47.7683 24.7302C54.6667 24.7302 59.2223 21.4762 59.2223 16.5302C59.2223 13.7968 57.5302 11.7143 53.6254 10.0222C51.2826 8.85079 49.8508 8.2 49.8508 7.02857C49.8508 5.9873 51.0223 4.94603 53.6254 4.94603C55.8381 4.94603 57.4 5.33651 58.5715 5.85714L59.2223 6.11746L60.2635 1.04127Z" fill="#293688"/>
<path d="M71.4572 0.780945C69.8953 0.780945 68.7239 0.911105 68.0731 2.47301L58.3112 24.2095H65.3397L66.6413 20.3048H74.9715L75.7524 24.2095H82.0001L76.5334 0.780945H71.4572ZM68.4635 16.4C68.854 15.2286 71.0667 9.50158 71.0667 9.50158C71.0667 9.50158 71.5874 8.06984 71.9778 7.15873L72.3683 9.37142C72.3683 9.37142 73.6699 15.2286 73.9302 16.5302H68.4635V16.4Z" fill="#3C58BF"/>
<path d="M73.0191 0.780945C71.4572 0.780945 70.2858 0.911105 69.635 2.47301L58.3112 24.2095H65.3397L66.6413 20.3048H74.9715L75.7524 24.2095H82.0001L76.5334 0.780945H73.0191ZM68.4635 16.4C68.9842 15.0984 71.0667 9.50158 71.0667 9.50158C71.0667 9.50158 71.5874 8.06984 71.9778 7.15873L72.3683 9.37142C72.3683 9.37142 73.6699 15.2286 73.9302 16.5302H68.4635V16.4Z" fill="#293688"/>
<path d="M18.092 17.181L17.4413 13.7969C16.2698 9.89209 12.4952 5.59685 8.33014 3.51431L14.1873 24.3397H21.2159L31.7587 0.911133H24.7301L18.092 17.181Z" fill="#3C58BF"/>
<path d="M18.092 17.181L17.4413 13.7969C16.2698 9.89209 12.4952 5.59685 8.33014 3.51431L14.1873 24.3397H21.2159L31.7587 0.911133H26.0317L18.092 17.181Z" fill="#293688"/>
<path d="M0 0.780945L1.17143 1.04126C9.50159 2.99364 15.2286 7.93968 17.4413 13.7968L15.0984 2.73333C14.7079 1.17142 13.5365 0.780945 12.1048 0.780945H0Z" fill="#FFBC00"/>
<path d="M0 0.780945C8.33016 2.73333 15.2286 7.80952 17.4413 13.6667L15.2286 4.42539C14.8381 2.86349 13.5365 1.95238 12.1048 1.95238L0 0.780945Z" fill="#F7981D"/>
<path d="M0 0.780945C8.33016 2.73333 15.2286 7.80952 17.4413 13.6667L15.8794 8.59047C15.4889 7.02856 14.9683 5.46666 13.146 4.81587L0 0.780945Z" fill="#ED7C00"/>
<path d="M24.6 16.4L20.1746 11.9746L18.0921 16.9206L17.5714 13.6666C16.4 9.76188 12.6254 5.46663 8.46033 3.38409L14.3175 24.2095H21.346L24.6 16.4Z" fill="#051244"/>
<path d="M36.7047 24.2095L31.1079 18.4825L30.0667 24.2095H36.7047Z" fill="#051244"/>
<path d="M51.673 16.1396C52.1936 16.6603 52.4539 17.0508 52.3238 17.5714C52.3238 19.1333 50.2413 19.9143 48.419 19.9143C45.8159 19.9143 44.3841 19.5238 42.1714 18.6127L41.2603 18.2222L40.3492 23.5587C41.9111 24.2095 44.7746 24.8603 47.7682 24.8603C51.9333 24.8603 55.3174 23.6889 57.2698 21.6063L51.673 16.1396Z" fill="#051244"/>
<path d="M59.2222 24.2095H65.3397L66.6413 20.3047H74.9714L75.7524 24.2095H82L79.7873 14.7079L71.9778 7.15869L72.3683 9.24123C72.3683 9.24123 73.6699 15.0984 73.9302 16.4H68.4635C68.9841 15.0984 71.0667 9.50155 71.0667 9.50155C71.0667 9.50155 71.5873 8.0698 71.9778 7.15869" fill="#051244"/>
</svg>
