<svg width="98" height="25" viewBox="0 0 98 25" fill="none" xmlns="http://www.w3.org/2000/svg">
<path d="M75.6211 6.52173H70.3416C70.031 6.52173 69.7205 6.83229 69.5652 7.14285L67.3913 20.8074C67.3913 21.118 67.5466 21.2733 67.8571 21.2733H70.6522C70.9627 21.2733 71.118 21.118 71.118 20.8074L71.7391 16.9255C71.7391 16.6149 72.0497 16.3043 72.5155 16.3043H74.2236C77.795 16.3043 79.8137 14.5963 80.2795 11.1801C80.5901 9.7826 80.2795 8.54036 79.6584 7.76397C78.7267 6.98757 77.3292 6.52173 75.6211 6.52173ZM76.2422 11.646C75.9317 13.5093 74.5342 13.5093 73.1366 13.5093H72.205L72.8261 9.93788C72.8261 9.7826 72.9814 9.62732 73.2919 9.62732H73.6025C74.5342 9.62732 75.4658 9.62732 75.9317 10.2484C76.2422 10.4037 76.2422 10.8696 76.2422 11.646Z" fill="#139AD6"/>
<path d="M37.5776 6.52173H32.2981C31.9875 6.52173 31.677 6.83229 31.5217 7.14285L29.3478 20.8074C29.3478 21.118 29.5031 21.2733 29.8136 21.2733H32.2981C32.6086 21.2733 32.9192 20.9627 33.0745 20.6522L33.6956 16.9255C33.6956 16.6149 34.0062 16.3043 34.472 16.3043H36.1801C39.7515 16.3043 41.7701 14.5963 42.236 11.1801C42.5465 9.7826 42.236 8.54036 41.6149 7.76397C40.6832 6.98757 39.4409 6.52173 37.5776 6.52173ZM38.1987 11.646C37.8882 13.5093 36.4906 13.5093 35.0931 13.5093H34.3167L34.9378 9.93788C34.9378 9.7826 35.0931 9.62732 35.4037 9.62732H35.7142C36.6459 9.62732 37.5776 9.62732 38.0434 10.2484C38.1987 10.4037 38.354 10.8696 38.1987 11.646Z" fill="#263B80"/>
<path d="M53.5714 11.4907H51.087C50.9317 11.4907 50.6211 11.646 50.6211 11.8012L50.4659 12.5776L50.3106 12.2671C49.6895 11.4907 48.6025 11.1801 47.3603 11.1801C44.5652 11.1801 42.0808 13.354 41.6149 16.3043C41.3044 17.8571 41.7702 19.2547 42.5466 20.1863C43.323 21.118 44.4099 21.4286 45.8075 21.4286C48.1367 21.4286 49.3789 20.031 49.3789 20.031L49.2236 20.8074C49.2236 21.118 49.3789 21.2733 49.6895 21.2733H52.0186C52.3292 21.2733 52.6398 20.9627 52.795 20.6522L54.1926 11.9565C54.0373 11.8012 53.7267 11.4907 53.5714 11.4907ZM50 16.4596C49.6895 17.8571 48.6025 18.9441 47.0497 18.9441C46.2733 18.9441 45.6522 18.6335 45.3416 18.323C45.0311 17.8571 44.8758 17.236 44.8758 16.4596C45.0311 15.0621 46.2733 13.9751 47.6708 13.9751C48.4472 13.9751 48.9131 14.2857 49.3789 14.5963C49.8447 15.0621 50 15.8385 50 16.4596Z" fill="#263B80"/>
<path d="M91.4597 11.4906H88.9752C88.8199 11.4906 88.5094 11.6459 88.5094 11.8012L88.3541 12.5776L88.1988 12.267C87.5777 11.4906 86.4907 11.1801 85.2485 11.1801C82.4535 11.1801 79.969 13.354 79.5032 16.3043C79.1926 17.8571 79.6584 19.2546 80.4348 20.1863C81.2112 21.1179 82.2982 21.4285 83.6957 21.4285C86.0249 21.4285 87.2671 20.031 87.2671 20.031L87.1119 20.8074C87.1119 21.1179 87.2671 21.2732 87.5777 21.2732H89.9069C90.2175 21.2732 90.528 20.9627 90.6833 20.6521L92.0808 11.9565C91.9255 11.8012 91.7702 11.4906 91.4597 11.4906ZM87.8883 16.4596C87.5777 17.8571 86.4907 18.944 84.9379 18.944C84.1615 18.944 83.5404 18.6335 83.2299 18.3229C82.9193 17.8571 82.764 17.236 82.764 16.4596C82.9193 15.062 84.1615 13.9751 85.5591 13.9751C86.3355 13.9751 86.8013 14.2856 87.2671 14.5962C87.8883 15.062 88.0435 15.8384 87.8883 16.4596Z" fill="#139AD6"/>
<path d="M67.0807 11.4907H64.441C64.1304 11.4907 63.9751 11.646 63.8199 11.8013L60.4037 17.0808L58.8509 12.1118C58.6956 11.8013 58.5404 11.646 58.0745 11.646H55.59C55.2795 11.646 55.1242 11.9566 55.1242 12.2671L57.9192 20.4969L55.2795 24.2236C55.1242 24.5342 55.2795 25 55.59 25H58.0745C58.3851 25 58.5404 24.8448 58.6956 24.6895L67.236 12.4224C67.7018 11.9566 67.3913 11.4907 67.0807 11.4907Z" fill="#263B80"/>
<path d="M94.41 6.98757L92.2361 20.9627C92.2361 21.2733 92.3914 21.4286 92.7019 21.4286H94.8758C95.1864 21.4286 95.4969 21.118 95.6522 20.8074L97.8261 7.14284C97.8261 6.83228 97.6709 6.67701 97.3603 6.67701H94.8758C94.7206 6.52173 94.5653 6.67701 94.41 6.98757Z" fill="#139AD6"/>
<path d="M17.8571 1.86335C16.7702 0.621116 14.7516 0 11.9565 0H4.19255C3.72671 0 3.26087 0.465836 3.10559 0.931675L0 21.2733C0 21.7391 0.310559 22.0497 0.621118 22.0497H5.43478L6.67702 14.441V14.7516C6.8323 14.2857 7.29814 13.8199 7.76398 13.8199H10.0932C14.5963 13.8199 18.0124 11.9565 19.0994 6.8323C19.0994 6.67702 19.0994 6.52174 19.0994 6.36646C18.9441 6.36646 18.9441 6.36646 19.0994 6.36646C19.2547 4.34783 18.9441 3.10559 17.8571 1.86335Z" fill="#263B80"/>
<path d="M18.9441 6.36639C18.9441 6.52167 18.9441 6.67695 18.9441 6.83223C17.8571 12.1117 14.441 13.8198 9.93788 13.8198H7.60869C7.14285 13.8198 6.67701 14.2857 6.52173 14.7515L4.96893 24.2235C4.96893 24.5341 5.12421 24.8447 5.59005 24.8447H9.62732C10.0932 24.8447 10.559 24.5341 10.559 24.0683V23.913L11.3354 19.0993V18.7888C11.3354 18.3229 11.8012 18.0124 12.2671 18.0124H12.8882C16.7702 18.0124 19.8758 16.4596 20.6522 11.8012C20.9627 9.93782 20.8074 8.22975 19.8758 7.14279C19.7205 6.83223 19.4099 6.52167 18.9441 6.36639Z" fill="#139AD6"/>
<path d="M17.8572 5.90065C17.7019 5.90065 17.5466 5.74537 17.3914 5.74537C17.2361 5.74537 17.0808 5.74537 16.9255 5.59009C16.3044 5.43481 15.6833 5.43481 14.9069 5.43481H8.85098C8.6957 5.43481 8.54042 5.43481 8.38514 5.59009C8.07458 5.74537 7.9193 6.05593 7.9193 6.36649L6.67706 14.441V14.7516C6.83234 14.2857 7.29818 13.8199 7.76402 13.8199H10.0932C14.5963 13.8199 18.0125 11.9566 19.0994 6.83233C19.0994 6.67705 19.0994 6.52177 19.2547 6.36649C18.9441 6.21121 18.7889 6.05593 18.4783 6.05593C18.0125 5.90065 18.0125 5.90065 17.8572 5.90065Z" fill="#232C65"/>
</svg>
