<svg width="17" height="19" viewBox="0 0 17 19" fill="none" xmlns="http://www.w3.org/2000/svg">
<path d="M3.5 12C4.88071 12 6 10.8807 6 9.5C6 8.11929 4.88071 7 3.5 7C2.11929 7 1 8.11929 1 9.5C1 10.8807 2.11929 12 3.5 12Z" stroke="#B0B0B0" class="none"/>
<path d="M13.5 6C14.8807 6 16 4.88071 16 3.5C16 2.11929 14.8807 1 13.5 1C12.1193 1 11 2.11929 11 3.5C11 4.88071 12.1193 6 13.5 6Z" stroke="#B0B0B0" class="none"/>
<path d="M13.5 18C14.8807 18 16 16.8807 16 15.5C16 14.1193 14.8807 13 13.5 13C12.1193 13 11 14.1193 11 15.5C11 16.8807 12.1193 18 13.5 18Z" stroke="#B0B0B0" class="none"/>
<path d="M11.1188 4.47728L5.84326 7.65558L6.10128 8.08386L11.3768 4.90556L11.1188 4.47728Z" stroke="#B0B0B0" stroke-width="0.5"/>
<path d="M6.10115 10.4773L11.3767 13.6556L11.1187 14.0839L5.84313 10.9055L6.10115 10.4773Z" stroke="#B0B0B0" stroke-width="0.5"/>
</svg>
