<svg width="14" height="16" viewBox="0 0 14 16" fill="none" xmlns="http://www.w3.org/2000/svg">
<path d="M3 10C4.10457 10 5 9.10457 5 8C5 6.89543 4.10457 6 3 6C1.89543 6 1 6.89543 1 8C1 9.10457 1.89543 10 3 10Z" stroke="white"/>
<path d="M11 5C12.1046 5 13 4.10457 13 3C13 1.89543 12.1046 1 11 1C9.89543 1 9 1.89543 9 3C9 4.10457 9.89543 5 11 5Z" stroke="white"/>
<path d="M11 15C12.1046 15 13 14.1046 13 13C13 11.8954 12.1046 11 11 11C9.89543 11 9 11.8954 9 13C9 14.1046 9.89543 15 11 15Z" stroke="white"/>
<path d="M9.25494 4.08179L4.33691 6.48047L4.5561 6.92987L9.47413 4.53118L9.25494 4.08179Z" stroke="white" stroke-width="0.5"/>
<path d="M9.18936 11.8983L4.40234 9.56348L4.62153 9.11408L9.40855 11.4489L9.18936 11.8983Z" stroke="white" stroke-width="0.5"/>
</svg>
