<svg width="33" height="45" viewBox="0 0 33 45" fill="none" xmlns="http://www.w3.org/2000/svg">
<mask id="mask0" mask-type="alpha" maskUnits="userSpaceOnUse" x="0" y="0" width="33" height="32">
<rect width="22.7548" height="22.2861" transform="matrix(0.707107 0.707107 -0.704428 0.709775 15.9707 0)" fill="white"/>
</mask>
<g mask="url(#mask0)">
<path d="M34.7143 29.6295C34.7143 19.1755 26.2717 10.7009 15.8571 10.7009C5.44263 10.7009 -3 19.1755 -3 29.6295" stroke="white" stroke-width="4"/>
<path d="M28.5412 29.2854C28.5412 22.4428 23.0151 16.8958 16.1983 16.8958C9.38155 16.8958 3.85547 22.4428 3.85547 29.2854" stroke="white" stroke-width="4"/>
<path d="M21.6824 28.597C21.6824 25.5559 19.2263 23.0905 16.1967 23.0905C13.167 23.0905 11 25.4595 11 28.5007" stroke="white" stroke-width="4"/>
</g>
<circle cx="16.3594" cy="29" r="2" fill="white"/>
<path d="M11.3052 36.275L8.30523 44.9996H6.02007L3.02007 36.275H5.29351L7.19195 42.1871L9.09038 36.275H11.3052ZM19.5487 39.0289C19.5487 39.4352 19.4842 39.8219 19.3553 40.1891C19.2264 40.5563 19.0409 40.8629 18.7987 41.109C18.6502 41.2614 18.4862 41.402 18.3065 41.5309C18.1307 41.6598 17.9354 41.7692 17.7205 41.859C17.5057 41.9489 17.2713 42.0192 17.0174 42.0699C16.7674 42.1207 16.4862 42.1461 16.1737 42.1461H15.0252V44.9996H12.8338V36.275H16.2205C16.7244 36.275 17.158 36.3219 17.5213 36.4156C17.8885 36.5055 18.2205 36.65 18.5174 36.8492C18.8455 37.068 19.0994 37.361 19.2791 37.7281C19.4588 38.0914 19.5487 38.525 19.5487 39.0289ZM17.2987 39.0817C17.2987 38.8356 17.2401 38.6246 17.1229 38.4489C17.0057 38.2692 16.8651 38.1461 16.701 38.0797C16.494 37.9899 16.2948 37.9391 16.1034 37.9274C15.9159 37.9117 15.66 37.9039 15.3358 37.9039H15.0252V40.5172H15.1776C15.3846 40.5172 15.5799 40.5153 15.7635 40.5114C15.9471 40.5074 16.1073 40.4938 16.244 40.4703C16.3612 40.4508 16.4842 40.4137 16.6131 40.359C16.7459 40.3004 16.8475 40.236 16.9178 40.1656C17.0662 40.0211 17.1659 39.8707 17.2166 39.7145C17.2713 39.5582 17.2987 39.3473 17.2987 39.0817ZM28.9171 44.9996H26.8077L23.4444 38.9176V44.9996H21.4405V36.275H24.13L26.9132 41.2731V36.275H28.9171V44.9996Z" fill="white"/>
</svg>
